{"glyphs":{"0":{"ha":833,"x_min":69,"x_max":764,"o":"m 167 142 l 556 850 l 667 844 l 278 136 l 167 142 m 417 -22 q 231 40 310 -22 q 111 218 153 103 q 69 492 69 333 q 111 767 69 651 q 231 945 153 882 q 417 1008 310 1008 q 603 945 525 1008 q 722 767 681 882 q 764 492 764 651 q 722 218 764 333 q 603 40 681 103 q 417 -22 525 -22 m 417 94 q 535 143 486 94 q 612 281 585 192 q 639 492 639 371 q 612 705 639 615 q 535 843 585 794 q 417 892 486 892 q 299 843 349 892 q 222 705 249 794 q 194 492 194 615 q 222 281 194 371 q 299 143 249 192 q 417 94 349 94 z "},"1":{"ha":833,"x_min":83,"x_max":750,"o":"m 394 0 l 394 731 l 136 731 l 136 833 l 269 833 q 355 849 322 833 q 402 897 388 864 q 417 986 417 931 l 514 986 l 514 0 l 394 0 m 83 0 l 83 117 l 750 117 l 750 0 l 83 0 z "},"2":{"ha":833,"x_min":69,"x_max":764,"o":"m 69 0 q 102 188 69 104 q 217 349 135 272 q 447 503 300 425 q 557 569 515 539 q 618 635 599 600 q 638 719 638 669 q 615 809 638 771 q 549 869 593 847 q 440 892 506 892 q 276 838 336 892 q 200 683 215 783 l 75 692 q 186 922 92 836 q 440 1008 281 1008 q 614 972 542 1008 q 724 872 686 936 q 763 722 763 807 q 738 592 763 647 q 653 490 713 538 q 492 389 594 443 q 342 293 403 342 q 251 199 282 244 q 217 117 219 154 l 764 117 l 764 0 l 69 0 z "},"3":{"ha":833,"x_min":69,"x_max":764,"o":"m 408 -22 q 163 55 249 -22 q 69 254 76 132 l 193 263 q 260 133 201 172 q 408 94 319 94 q 521 112 468 94 q 606 169 574 129 q 639 275 639 208 q 610 383 639 340 q 530 445 581 425 q 415 465 479 465 l 338 465 l 338 582 l 415 582 q 510 597 467 582 q 578 647 553 613 q 604 736 604 681 q 556 852 604 813 q 415 892 507 892 q 274 854 322 892 q 217 751 226 817 l 92 760 q 189 940 106 871 q 415 1008 272 1008 q 582 976 511 1008 q 691 883 653 943 q 729 742 729 824 q 672 594 729 650 q 501 517 614 538 l 501 542 q 693 456 622 528 q 764 275 764 383 q 718 114 764 181 q 592 13 672 47 q 408 -22 511 -22 z "},"4":{"ha":833,"x_min":56,"x_max":778,"o":"m 539 0 l 539 214 l 56 214 l 56 322 l 531 986 l 658 986 l 658 331 l 778 331 l 778 214 l 658 214 l 658 0 l 539 0 m 178 331 l 539 331 l 539 819 l 178 331 z "},"5":{"ha":833,"x_min":83,"x_max":750,"o":"m 414 -22 q 247 13 318 -22 q 133 110 175 47 q 83 254 90 172 l 208 263 q 274 137 219 179 q 414 94 329 94 q 567 153 510 94 q 625 317 625 213 q 600 437 625 386 q 528 515 575 488 q 417 542 482 542 q 305 513 358 542 q 228 432 251 485 l 100 432 l 165 986 l 690 986 l 690 869 l 275 869 l 231 506 l 208 528 q 267 599 231 571 q 347 641 303 626 q 433 656 390 656 q 599 612 528 656 q 710 492 671 568 q 750 317 750 415 q 707 141 750 218 q 588 21 664 64 q 414 -22 513 -22 z "},"6":{"ha":833,"x_min":69,"x_max":764,"o":"m 419 -22 q 230 28 308 -22 q 110 178 151 79 q 69 417 69 276 q 90 646 69 539 q 155 834 110 753 q 274 962 200 915 q 458 1008 349 1008 q 607 979 546 1008 q 706 897 668 950 q 764 775 744 844 l 639 764 q 581 857 622 822 q 458 892 540 892 q 318 845 376 892 q 227 706 260 799 q 192 472 194 613 l 167 478 q 220 570 182 528 q 315 638 258 613 q 442 664 371 664 q 611 622 539 664 q 724 505 683 581 q 764 328 764 429 q 720 141 764 219 q 599 20 676 63 q 419 -22 522 -22 m 422 94 q 579 156 519 94 q 639 328 639 218 q 583 490 639 431 q 433 550 526 550 q 314 523 367 550 q 231 446 261 496 q 200 328 200 396 q 227 207 200 260 q 304 124 254 154 q 422 94 354 94 z "},"7":{"ha":833,"x_min":83,"x_max":750,"o":"m 267 0 q 309 305 267 153 q 431 600 351 457 q 619 869 510 743 l 83 869 l 83 986 l 750 986 l 750 878 q 590 668 657 772 q 479 458 522 564 q 415 238 436 351 q 394 0 394 125 l 267 0 z "},"8":{"ha":833,"x_min":69,"x_max":764,"o":"m 417 -22 q 240 11 319 -22 q 115 110 161 44 q 69 271 69 175 q 133 448 69 378 q 303 543 197 518 l 306 515 q 169 592 221 539 q 117 738 117 646 q 156 876 117 815 q 262 973 194 938 q 417 1008 329 1008 q 572 973 504 1008 q 678 876 640 938 q 717 738 717 815 q 665 592 717 646 q 528 515 614 539 l 531 543 q 701 448 638 518 q 764 271 764 378 q 718 110 764 175 q 594 11 672 44 q 417 -22 515 -22 m 417 94 q 576 140 514 94 q 639 278 639 185 q 583 416 639 364 q 417 468 528 468 q 251 416 307 468 q 194 278 194 364 q 257 140 194 185 q 417 94 319 94 m 417 579 q 544 619 496 579 q 592 738 592 658 q 545 850 592 808 q 417 892 499 892 q 289 850 336 892 q 242 738 242 808 q 290 619 242 658 q 417 579 338 579 z "},"9":{"ha":833,"x_min":69,"x_max":764,"o":"m 414 1008 q 603 958 525 1008 q 723 809 682 907 q 764 569 764 711 q 744 340 764 447 q 678 152 724 233 q 559 24 633 71 q 375 -22 485 -22 q 226 7 288 -22 q 127 89 165 36 q 69 211 89 142 l 194 222 q 253 129 211 164 q 375 94 294 94 q 516 141 457 94 q 607 281 575 188 q 642 514 639 374 l 667 508 q 613 416 651 458 q 519 348 575 374 q 392 322 463 322 q 222 364 294 322 q 110 481 150 406 q 69 658 69 557 q 113 845 69 767 q 235 966 157 924 q 414 1008 313 1008 m 411 892 q 254 831 314 892 q 194 658 194 769 q 251 497 194 557 q 400 436 307 436 q 519 463 467 436 q 603 540 572 490 q 633 658 633 590 q 606 779 633 726 q 529 862 579 832 q 411 892 479 892 z "},"A":{"ha":833,"x_min":36,"x_max":797,"o":"m 36 0 l 336 986 l 497 986 l 797 0 l 669 0 l 417 878 l 164 0 l 36 0 m 188 281 l 229 397 l 604 397 l 646 281 l 188 281 z "},"Á":{"ha":833,"x_min":36,"x_max":797,"o":"m 36 0 l 336 986 l 497 986 l 797 0 l 669 0 l 417 878 l 164 0 l 36 0 m 188 281 l 229 397 l 604 397 l 646 281 l 188 281 m 364 1083 l 456 1261 l 586 1261 l 461 1083 l 364 1083 z "},"Ă":{"ha":833,"x_min":36,"x_max":797,"o":"m 36 0 l 336 986 l 497 986 l 797 0 l 669 0 l 417 878 l 164 0 l 36 0 m 188 281 l 229 397 l 604 397 l 646 281 l 188 281 m 417 1088 q 279 1136 332 1088 q 222 1265 226 1185 l 303 1265 q 340 1196 310 1218 q 417 1174 369 1174 q 495 1196 465 1174 q 531 1265 525 1218 l 611 1265 q 555 1136 607 1185 q 417 1088 503 1088 z "},"Ǎ":{"ha":833,"x_min":36,"x_max":797,"o":"m 36 0 l 336 986 l 497 986 l 797 0 l 669 0 l 417 878 l 164 0 l 36 0 m 188 281 l 229 397 l 604 397 l 646 281 l 188 281 m 222 1265 l 319 1265 l 428 1126 l 406 1126 l 514 1265 l 611 1265 l 482 1081 l 351 1081 l 222 1265 z "},"Â":{"ha":833,"x_min":36,"x_max":797,"o":"m 36 0 l 336 986 l 497 986 l 797 0 l 669 0 l 417 878 l 164 0 l 36 0 m 188 281 l 229 397 l 604 397 l 646 281 l 188 281 m 221 1081 l 350 1265 l 481 1265 l 610 1081 l 513 1081 l 404 1219 l 426 1219 l 318 1081 l 221 1081 z "},"Ä":{"ha":833,"x_min":36,"x_max":797,"o":"m 36 0 l 336 986 l 497 986 l 797 0 l 669 0 l 417 878 l 164 0 l 36 0 m 188 281 l 229 397 l 604 397 l 646 281 l 188 281 m 222 1101 l 222 1238 l 344 1238 l 344 1101 l 222 1101 m 489 1101 l 489 1238 l 611 1238 l 611 1101 l 489 1101 z "},"À":{"ha":833,"x_min":36,"x_max":797,"o":"m 36 0 l 336 986 l 497 986 l 797 0 l 669 0 l 417 878 l 164 0 l 36 0 m 188 281 l 229 397 l 604 397 l 646 281 l 188 281 m 375 1083 l 250 1261 l 381 1261 l 472 1083 l 375 1083 z "},"Ā":{"ha":833,"x_min":36,"x_max":797,"o":"m 36 0 l 336 986 l 497 986 l 797 0 l 669 0 l 417 878 l 164 0 l 36 0 m 188 281 l 229 397 l 604 397 l 646 281 l 188 281 m 229 1118 l 229 1218 l 601 1218 l 601 1118 l 229 1118 z "},"Ą":{"ha":833,"x_min":36,"x_max":844,"o":"m 36 0 l 336 986 l 497 986 l 797 0 l 669 0 l 417 878 l 164 0 l 36 0 m 188 281 l 229 397 l 604 397 l 646 281 l 188 281 m 725 -292 q 633 -262 667 -292 q 600 -181 600 -232 q 614 -111 600 -144 q 657 -42 628 -78 l 701 14 l 797 0 l 749 -62 q 714 -118 722 -97 q 706 -156 706 -139 q 717 -187 706 -176 q 747 -197 728 -197 q 781 -192 763 -197 q 811 -178 799 -187 l 844 -256 q 797 -282 828 -272 q 725 -292 765 -292 z "},"Å":{"ha":833,"x_min":36,"x_max":797,"o":"m 36 0 l 336 986 l 497 986 l 797 0 l 669 0 l 417 878 l 164 0 l 36 0 m 188 281 l 229 397 l 604 397 l 646 281 l 188 281 m 417 1050 q 326 1087 363 1050 q 289 1178 289 1124 q 326 1269 289 1232 q 417 1306 363 1306 q 508 1269 471 1306 q 544 1178 544 1232 q 508 1087 544 1124 q 417 1050 471 1050 m 417 1119 q 458 1136 442 1119 q 475 1178 475 1153 q 458 1219 475 1203 q 417 1236 442 1236 q 375 1219 392 1236 q 358 1178 358 1203 q 375 1136 358 1153 q 417 1119 392 1119 z "},"Ã":{"ha":833,"x_min":36,"x_max":797,"o":"m 36 0 l 336 986 l 497 986 l 797 0 l 669 0 l 417 878 l 164 0 l 36 0 m 188 281 l 229 397 l 604 397 l 646 281 l 188 281 m 500 1097 q 450 1109 474 1097 q 403 1139 426 1121 q 365 1167 379 1158 q 331 1175 351 1175 q 289 1156 306 1175 q 269 1088 272 1138 l 197 1088 q 238 1209 200 1168 q 331 1250 275 1250 q 388 1238 364 1250 q 436 1206 413 1225 q 474 1180 458 1188 q 506 1172 489 1172 q 546 1192 532 1172 q 564 1264 560 1213 l 636 1264 q 596 1141 632 1185 q 500 1097 560 1097 z "},"Æ":{"ha":833,"x_min":14,"x_max":806,"o":"m 14 0 l 328 986 l 794 986 l 794 869 l 556 869 l 556 551 l 778 551 l 778 438 l 556 438 l 556 117 l 806 117 l 806 0 l 436 0 l 436 874 l 411 874 l 139 0 l 14 0 m 204 281 l 240 397 l 458 397 l 458 281 l 204 281 z "},"B":{"ha":833,"x_min":125,"x_max":772,"o":"m 125 0 l 125 986 l 403 986 q 648 914 565 986 q 731 717 731 842 q 701 607 731 656 q 619 531 672 558 q 497 503 567 503 l 497 511 q 645 482 583 511 q 740 400 707 453 q 772 275 772 347 q 683 74 772 147 q 438 0 594 0 l 125 0 m 244 117 l 439 117 q 597 158 546 117 q 647 275 647 200 q 594 399 647 354 q 439 443 542 443 l 244 443 l 244 117 m 244 560 l 408 560 q 558 600 511 560 q 606 714 606 640 q 558 829 606 789 q 408 869 511 869 l 244 869 l 244 560 z "},"C":{"ha":833,"x_min":53,"x_max":772,"o":"m 419 -22 q 219 40 301 -22 q 95 218 138 103 q 53 492 53 333 q 95 767 53 651 q 219 945 138 882 q 419 1008 301 1008 q 642 923 550 1008 q 764 685 733 838 l 636 676 q 555 838 613 783 q 419 892 497 892 q 287 845 340 892 q 206 709 233 799 q 178 492 178 619 q 206 276 178 365 q 287 141 233 188 q 419 94 340 94 q 565 154 506 94 q 646 332 625 214 l 772 325 q 653 70 746 163 q 419 -22 560 -22 z "},"Ć":{"ha":833,"x_min":53,"x_max":772,"o":"m 419 -22 q 219 40 301 -22 q 95 218 138 103 q 53 492 53 333 q 95 767 53 651 q 219 945 138 882 q 419 1008 301 1008 q 642 923 550 1008 q 764 685 733 838 l 636 676 q 555 838 613 783 q 419 892 497 892 q 287 845 340 892 q 206 709 233 799 q 178 492 178 619 q 206 276 178 365 q 287 141 233 188 q 419 94 340 94 q 565 154 506 94 q 646 332 625 214 l 772 325 q 653 70 746 163 q 419 -22 560 -22 m 367 1083 l 458 1261 l 589 1261 l 464 1083 l 367 1083 z "},"Č":{"ha":833,"x_min":53,"x_max":772,"o":"m 419 -22 q 219 40 301 -22 q 95 218 138 103 q 53 492 53 333 q 95 767 53 651 q 219 945 138 882 q 419 1008 301 1008 q 642 923 550 1008 q 764 685 733 838 l 636 676 q 555 838 613 783 q 419 892 497 892 q 287 845 340 892 q 206 709 233 799 q 178 492 178 619 q 206 276 178 365 q 287 141 233 188 q 419 94 340 94 q 565 154 506 94 q 646 332 625 214 l 772 325 q 653 70 746 163 q 419 -22 560 -22 m 225 1265 l 322 1265 l 431 1126 l 408 1126 l 517 1265 l 614 1265 l 485 1081 l 354 1081 l 225 1265 z "},"Ç":{"ha":833,"x_min":53,"x_max":772,"o":"m 419 -22 q 219 40 301 -22 q 95 218 138 103 q 53 492 53 333 q 95 767 53 651 q 219 945 138 882 q 419 1008 301 1008 q 642 923 550 1008 q 764 685 733 838 l 636 676 q 555 838 613 783 q 419 892 497 892 q 287 845 340 892 q 206 709 233 799 q 178 492 178 619 q 206 276 178 365 q 287 141 233 188 q 419 94 340 94 q 565 154 506 94 q 646 332 625 214 l 772 325 q 653 70 746 163 q 419 -22 560 -22 m 424 -306 q 317 -274 357 -306 q 261 -197 276 -243 l 332 -169 q 365 -214 344 -200 q 421 -228 386 -228 q 476 -213 457 -228 q 496 -172 496 -199 q 476 -128 496 -146 q 390 -111 457 -111 l 351 -69 l 404 14 l 493 14 l 446 -50 q 547 -87 514 -53 q 579 -175 579 -121 q 559 -243 579 -214 q 504 -289 539 -272 q 424 -306 469 -306 z "},"Ĉ":{"ha":833,"x_min":53,"x_max":772,"o":"m 419 -22 q 219 40 301 -22 q 95 218 138 103 q 53 492 53 333 q 95 767 53 651 q 219 945 138 882 q 419 1008 301 1008 q 642 923 550 1008 q 764 685 733 838 l 636 676 q 555 838 613 783 q 419 892 497 892 q 287 845 340 892 q 206 709 233 799 q 178 492 178 619 q 206 276 178 365 q 287 141 233 188 q 419 94 340 94 q 565 154 506 94 q 646 332 625 214 l 772 325 q 653 70 746 163 q 419 -22 560 -22 m 224 1081 l 353 1265 l 483 1265 l 613 1081 l 515 1081 l 407 1219 l 429 1219 l 321 1081 l 224 1081 z "},"Ċ":{"ha":833,"x_min":53,"x_max":772,"o":"m 419 -22 q 219 40 301 -22 q 95 218 138 103 q 53 492 53 333 q 95 767 53 651 q 219 945 138 882 q 419 1008 301 1008 q 642 923 550 1008 q 764 685 733 838 l 636 676 q 555 838 613 783 q 419 892 497 892 q 287 845 340 892 q 206 709 233 799 q 178 492 178 619 q 206 276 178 365 q 287 141 233 188 q 419 94 340 94 q 565 154 506 94 q 646 332 625 214 l 772 325 q 653 70 746 163 q 419 -22 560 -22 m 357 1101 l 357 1238 l 479 1238 l 479 1101 l 357 1101 z "},"D":{"ha":833,"x_min":125,"x_max":781,"o":"m 125 0 l 125 986 l 358 986 q 581 928 486 986 q 728 760 676 871 q 781 492 781 650 q 728 224 781 333 q 581 57 676 114 q 358 0 486 0 l 125 0 m 244 117 l 351 117 q 576 210 496 117 q 656 492 656 304 q 576 774 656 679 q 351 869 496 869 l 244 869 l 244 117 z "},"Ď":{"ha":833,"x_min":125,"x_max":781,"o":"m 125 0 l 125 986 l 358 986 q 581 928 486 986 q 728 760 676 871 q 781 492 781 650 q 728 224 781 333 q 581 57 676 114 q 358 0 486 0 l 125 0 m 244 117 l 351 117 q 576 210 496 117 q 656 492 656 304 q 576 774 656 679 q 351 869 496 869 l 244 869 l 244 117 m 222 1265 l 319 1265 l 428 1126 l 406 1126 l 514 1265 l 611 1265 l 482 1081 l 351 1081 l 222 1265 z "},"Đ":{"ha":833,"x_min":28,"x_max":781,"o":"m 125 0 l 125 986 l 358 986 q 581 928 486 986 q 728 760 676 871 q 781 492 781 650 q 728 224 781 333 q 581 57 676 114 q 358 0 486 0 l 125 0 m 244 117 l 351 117 q 576 210 496 117 q 656 492 656 304 q 576 774 656 679 q 351 869 496 869 l 244 869 l 244 117 m 28 439 l 28 547 l 472 547 l 472 439 l 28 439 z "},"Ð":{"ha":833,"x_min":28,"x_max":781,"o":"m 125 0 l 125 986 l 358 986 q 581 928 486 986 q 728 760 676 871 q 781 492 781 650 q 728 224 781 333 q 581 57 676 114 q 358 0 486 0 l 125 0 m 244 117 l 351 117 q 576 210 496 117 q 656 492 656 304 q 576 774 656 679 q 351 869 496 869 l 244 869 l 244 117 m 28 439 l 28 547 l 472 547 l 472 439 l 28 439 z "},"E":{"ha":833,"x_min":125,"x_max":736,"o":"m 125 0 l 125 986 l 725 986 l 725 869 l 244 869 l 244 551 l 708 551 l 708 438 l 244 438 l 244 117 l 736 117 l 736 0 l 125 0 z "},"É":{"ha":833,"x_min":125,"x_max":736,"o":"m 125 0 l 125 986 l 725 986 l 725 869 l 244 869 l 244 551 l 708 551 l 708 438 l 244 438 l 244 117 l 736 117 l 736 0 l 125 0 m 389 1085 l 481 1263 l 611 1263 l 486 1085 l 389 1085 z "},"Ě":{"ha":833,"x_min":125,"x_max":736,"o":"m 125 0 l 125 986 l 725 986 l 725 869 l 244 869 l 244 551 l 708 551 l 708 438 l 244 438 l 244 117 l 736 117 l 736 0 l 125 0 m 247 1267 l 344 1267 l 453 1128 l 431 1128 l 539 1267 l 636 1267 l 507 1082 l 376 1082 l 247 1267 z "},"Ê":{"ha":833,"x_min":125,"x_max":736,"o":"m 125 0 l 125 986 l 725 986 l 725 869 l 244 869 l 244 551 l 708 551 l 708 438 l 244 438 l 244 117 l 736 117 l 736 0 l 125 0 m 246 1082 l 375 1267 l 506 1267 l 635 1082 l 538 1082 l 429 1221 l 451 1221 l 343 1082 l 246 1082 z "},"Ë":{"ha":833,"x_min":125,"x_max":736,"o":"m 125 0 l 125 986 l 725 986 l 725 869 l 244 869 l 244 551 l 708 551 l 708 438 l 244 438 l 244 117 l 736 117 l 736 0 l 125 0 m 247 1103 l 247 1239 l 369 1239 l 369 1103 l 247 1103 m 514 1103 l 514 1239 l 636 1239 l 636 1103 l 514 1103 z "},"Ė":{"ha":833,"x_min":125,"x_max":736,"o":"m 125 0 l 125 986 l 725 986 l 725 869 l 244 869 l 244 551 l 708 551 l 708 438 l 244 438 l 244 117 l 736 117 l 736 0 l 125 0 m 379 1103 l 379 1239 l 501 1239 l 501 1103 l 379 1103 z "},"È":{"ha":833,"x_min":125,"x_max":736,"o":"m 125 0 l 125 986 l 725 986 l 725 869 l 244 869 l 244 551 l 708 551 l 708 438 l 244 438 l 244 117 l 736 117 l 736 0 l 125 0 m 400 1085 l 275 1263 l 406 1263 l 497 1085 l 400 1085 z "},"Ē":{"ha":833,"x_min":125,"x_max":736,"o":"m 125 0 l 125 986 l 725 986 l 725 869 l 244 869 l 244 551 l 708 551 l 708 438 l 244 438 l 244 117 l 736 117 l 736 0 l 125 0 m 254 1119 l 254 1219 l 626 1219 l 626 1119 l 254 1119 z "},"Ę":{"ha":833,"x_min":125,"x_max":783,"o":"m 125 0 l 125 986 l 725 986 l 725 869 l 244 869 l 244 551 l 708 551 l 708 438 l 244 438 l 244 117 l 736 117 l 736 0 l 125 0 m 664 -292 q 572 -262 606 -292 q 539 -181 539 -232 q 553 -111 539 -144 q 596 -42 567 -78 l 640 14 l 736 0 l 688 -62 q 653 -118 661 -97 q 644 -156 644 -139 q 656 -187 644 -176 q 686 -197 667 -197 q 719 -192 701 -197 q 750 -178 738 -187 l 783 -256 q 735 -282 767 -272 q 664 -292 704 -292 z "},"Ẽ":{"ha":833,"x_min":125,"x_max":736,"o":"m 125 0 l 125 986 l 725 986 l 725 869 l 244 869 l 244 551 l 708 551 l 708 438 l 244 438 l 244 117 l 736 117 l 736 0 l 125 0 m 525 1099 q 475 1110 499 1099 q 428 1140 451 1122 q 390 1168 404 1160 q 356 1176 376 1176 q 314 1158 331 1176 q 294 1089 297 1139 l 222 1089 q 263 1210 225 1169 q 356 1251 300 1251 q 413 1239 389 1251 q 461 1207 438 1226 q 499 1181 483 1189 q 531 1174 514 1174 q 571 1194 557 1174 q 589 1265 585 1214 l 661 1265 q 621 1142 657 1186 q 525 1099 585 1099 z "},"Ə":{"ha":833,"x_min":53,"x_max":794,"o":"m 428 -22 q 226 41 310 -22 q 97 217 142 104 q 53 476 53 329 l 53 542 l 668 542 q 638 726 668 647 q 553 848 608 804 q 419 892 497 892 q 281 834 335 892 q 203 681 226 776 l 72 692 q 149 863 100 792 q 264 971 197 933 q 414 1008 331 1008 q 619 949 535 1008 q 749 774 704 889 q 794 493 794 658 q 748 219 794 335 q 619 40 701 103 q 428 -22 536 -22 m 428 94 q 555 134 501 94 q 638 248 608 174 q 667 425 667 322 l 182 425 q 212 248 182 322 q 297 134 242 174 q 428 94 351 94 z "},"F":{"ha":833,"x_min":139,"x_max":750,"o":"m 139 0 l 139 986 l 750 986 l 750 872 l 203 872 l 258 929 l 258 539 l 725 539 l 725 425 l 258 425 l 258 0 l 139 0 z "},"G":{"ha":833,"x_min":53,"x_max":769,"o":"m 414 -22 q 228 35 310 -22 q 100 208 147 93 q 53 492 53 322 q 97 767 53 651 q 222 945 140 882 q 419 1008 304 1008 q 580 968 510 1008 q 697 856 650 928 q 765 692 744 785 l 640 683 q 562 833 617 775 q 419 892 507 892 q 289 845 343 892 q 206 709 235 799 q 178 492 178 619 q 207 276 178 365 q 291 141 236 188 q 425 94 346 94 q 547 131 496 94 q 626 234 597 168 q 658 385 656 300 l 422 385 l 422 499 l 769 499 l 769 0 l 658 0 l 653 233 l 686 222 q 633 96 667 151 q 545 9 599 40 q 414 -22 492 -22 z "},"Ğ":{"ha":833,"x_min":53,"x_max":769,"o":"m 414 -22 q 228 35 310 -22 q 100 208 147 93 q 53 492 53 322 q 97 767 53 651 q 222 945 140 882 q 419 1008 304 1008 q 580 968 510 1008 q 697 856 650 928 q 765 692 744 785 l 640 683 q 562 833 617 775 q 419 892 507 892 q 289 845 343 892 q 206 709 235 799 q 178 492 178 619 q 207 276 178 365 q 291 141 236 188 q 425 94 346 94 q 547 131 496 94 q 626 234 597 168 q 658 385 656 300 l 422 385 l 422 499 l 769 499 l 769 0 l 658 0 l 653 233 l 686 222 q 633 96 667 151 q 545 9 599 40 q 414 -22 492 -22 m 415 1088 q 278 1136 331 1088 q 221 1265 225 1185 l 301 1265 q 338 1196 308 1218 q 415 1174 368 1174 q 494 1196 464 1174 q 529 1265 524 1218 l 610 1265 q 553 1136 606 1185 q 415 1088 501 1088 z "},"Ǧ":{"ha":833,"x_min":53,"x_max":769,"o":"m 414 -22 q 228 35 310 -22 q 100 208 147 93 q 53 492 53 322 q 97 767 53 651 q 222 945 140 882 q 419 1008 304 1008 q 580 968 510 1008 q 697 856 650 928 q 765 692 744 785 l 640 683 q 562 833 617 775 q 419 892 507 892 q 289 845 343 892 q 206 709 235 799 q 178 492 178 619 q 207 276 178 365 q 291 141 236 188 q 425 94 346 94 q 547 131 496 94 q 626 234 597 168 q 658 385 656 300 l 422 385 l 422 499 l 769 499 l 769 0 l 658 0 l 653 233 l 686 222 q 633 96 667 151 q 545 9 599 40 q 414 -22 492 -22 m 221 1265 l 318 1265 l 426 1126 l 404 1126 l 513 1265 l 610 1265 l 481 1081 l 350 1081 l 221 1265 z "},"Ĝ":{"ha":833,"x_min":53,"x_max":769,"o":"m 414 -22 q 228 35 310 -22 q 100 208 147 93 q 53 492 53 322 q 97 767 53 651 q 222 945 140 882 q 419 1008 304 1008 q 580 968 510 1008 q 697 856 650 928 q 765 692 744 785 l 640 683 q 562 833 617 775 q 419 892 507 892 q 289 845 343 892 q 206 709 235 799 q 178 492 178 619 q 207 276 178 365 q 291 141 236 188 q 425 94 346 94 q 547 131 496 94 q 626 234 597 168 q 658 385 656 300 l 422 385 l 422 499 l 769 499 l 769 0 l 658 0 l 653 233 l 686 222 q 633 96 667 151 q 545 9 599 40 q 414 -22 492 -22 m 219 1081 l 349 1265 l 479 1265 l 608 1081 l 511 1081 l 403 1219 l 425 1219 l 317 1081 l 219 1081 z "},"Ģ":{"ha":833,"x_min":53,"x_max":769,"o":"m 414 -22 q 228 35 310 -22 q 100 208 147 93 q 53 492 53 322 q 97 767 53 651 q 222 945 140 882 q 419 1008 304 1008 q 580 968 510 1008 q 697 856 650 928 q 765 692 744 785 l 640 683 q 562 833 617 775 q 419 892 507 892 q 289 845 343 892 q 206 709 235 799 q 178 492 178 619 q 207 276 178 365 q 291 141 236 188 q 425 94 346 94 q 547 131 496 94 q 626 234 597 168 q 658 385 656 300 l 422 385 l 422 499 l 769 499 l 769 0 l 658 0 l 653 233 l 686 222 q 633 96 667 151 q 545 9 599 40 q 414 -22 492 -22 m 318 -333 l 393 -200 l 346 -200 l 346 -75 l 485 -75 l 485 -194 l 396 -333 l 318 -333 z "},"Ġ":{"ha":833,"x_min":53,"x_max":769,"o":"m 414 -22 q 228 35 310 -22 q 100 208 147 93 q 53 492 53 322 q 97 767 53 651 q 222 945 140 882 q 419 1008 304 1008 q 580 968 510 1008 q 697 856 650 928 q 765 692 744 785 l 640 683 q 562 833 617 775 q 419 892 507 892 q 289 845 343 892 q 206 709 235 799 q 178 492 178 619 q 207 276 178 365 q 291 141 236 188 q 425 94 346 94 q 547 131 496 94 q 626 234 597 168 q 658 385 656 300 l 422 385 l 422 499 l 769 499 l 769 0 l 658 0 l 653 233 l 686 222 q 633 96 667 151 q 545 9 599 40 q 414 -22 492 -22 m 353 1101 l 353 1238 l 475 1238 l 475 1101 l 353 1101 z "},"Ḡ":{"ha":833,"x_min":53,"x_max":769,"o":"m 414 -22 q 228 35 310 -22 q 100 208 147 93 q 53 492 53 322 q 97 767 53 651 q 222 945 140 882 q 419 1008 304 1008 q 580 968 510 1008 q 697 856 650 928 q 765 692 744 785 l 640 683 q 562 833 617 775 q 419 892 507 892 q 289 845 343 892 q 206 709 235 799 q 178 492 178 619 q 207 276 178 365 q 291 141 236 188 q 425 94 346 94 q 547 131 496 94 q 626 234 597 168 q 658 385 656 300 l 422 385 l 422 499 l 769 499 l 769 0 l 658 0 l 653 233 l 686 222 q 633 96 667 151 q 545 9 599 40 q 414 -22 492 -22 m 228 1118 l 228 1218 l 600 1218 l 600 1118 l 228 1118 z "},"Ǥ":{"ha":833,"x_min":28,"x_max":814,"o":"m 415 -22 q 212 41 299 -22 q 76 219 125 104 q 28 492 28 335 q 76 766 28 650 q 212 945 125 882 q 415 1008 299 1008 q 585 967 514 1008 q 701 855 656 926 q 768 692 747 783 l 643 683 q 567 833 621 775 q 415 892 514 892 q 274 842 332 892 q 184 703 215 793 q 153 492 153 613 q 184 283 153 372 q 274 144 215 193 q 415 94 332 94 q 546 128 492 94 q 629 226 600 161 q 658 385 658 290 l 425 385 l 425 499 l 778 499 l 778 431 q 683 91 778 204 q 415 -22 588 -22 m 425 207 l 425 304 l 814 304 l 814 207 l 425 207 z "},"H":{"ha":833,"x_min":83,"x_max":750,"o":"m 83 0 l 83 986 l 203 986 l 203 507 l 142 554 l 692 554 l 631 507 l 631 986 l 750 986 l 750 0 l 631 0 l 631 485 l 692 438 l 142 438 l 203 485 l 203 0 l 83 0 z "},"Ħ":{"ha":833,"x_min":28,"x_max":806,"o":"m 83 0 l 83 986 l 203 986 l 203 507 l 142 554 l 692 554 l 631 507 l 631 986 l 750 986 l 750 0 l 631 0 l 631 485 l 692 438 l 142 438 l 203 485 l 203 0 l 83 0 m 28 733 l 28 844 l 806 844 l 806 733 l 28 733 z "},"Ĥ":{"ha":833,"x_min":83,"x_max":750,"o":"m 83 0 l 83 986 l 203 986 l 203 507 l 142 554 l 692 554 l 631 507 l 631 986 l 750 986 l 750 0 l 631 0 l 631 485 l 692 438 l 142 438 l 203 485 l 203 0 l 83 0 m 221 1081 l 350 1265 l 481 1265 l 610 1081 l 513 1081 l 404 1219 l 426 1219 l 318 1081 l 221 1081 z "},"I":{"ha":833,"x_min":111,"x_max":722,"o":"m 111 0 l 111 117 l 357 117 l 357 869 l 111 869 l 111 986 l 722 986 l 722 869 l 476 869 l 476 117 l 722 117 l 722 0 l 111 0 z "},"Í":{"ha":833,"x_min":111,"x_max":722,"o":"m 111 0 l 111 117 l 357 117 l 357 869 l 111 869 l 111 986 l 722 986 l 722 869 l 476 869 l 476 117 l 722 117 l 722 0 l 111 0 m 364 1083 l 456 1261 l 586 1261 l 461 1083 l 364 1083 z "},"Î":{"ha":833,"x_min":111,"x_max":722,"o":"m 111 0 l 111 117 l 357 117 l 357 869 l 111 869 l 111 986 l 722 986 l 722 869 l 476 869 l 476 117 l 722 117 l 722 0 l 111 0 m 221 1081 l 350 1265 l 481 1265 l 610 1081 l 513 1081 l 404 1219 l 426 1219 l 318 1081 l 221 1081 z "},"Ï":{"ha":833,"x_min":111,"x_max":722,"o":"m 111 0 l 111 117 l 357 117 l 357 869 l 111 869 l 111 986 l 722 986 l 722 869 l 476 869 l 476 117 l 722 117 l 722 0 l 111 0 m 222 1101 l 222 1238 l 344 1238 l 344 1101 l 222 1101 m 489 1101 l 489 1238 l 611 1238 l 611 1101 l 489 1101 z "},"İ":{"ha":833,"x_min":111,"x_max":722,"o":"m 111 0 l 111 117 l 357 117 l 357 869 l 111 869 l 111 986 l 722 986 l 722 869 l 476 869 l 476 117 l 722 117 l 722 0 l 111 0 m 354 1101 l 354 1238 l 476 1238 l 476 1101 l 354 1101 z "},"Ì":{"ha":833,"x_min":111,"x_max":722,"o":"m 111 0 l 111 117 l 357 117 l 357 869 l 111 869 l 111 986 l 722 986 l 722 869 l 476 869 l 476 117 l 722 117 l 722 0 l 111 0 m 375 1083 l 250 1261 l 381 1261 l 472 1083 l 375 1083 z "},"Ī":{"ha":833,"x_min":111,"x_max":722,"o":"m 111 0 l 111 117 l 357 117 l 357 869 l 111 869 l 111 986 l 722 986 l 722 869 l 476 869 l 476 117 l 722 117 l 722 0 l 111 0 m 229 1118 l 229 1218 l 601 1218 l 601 1118 l 229 1118 z "},"Į":{"ha":833,"x_min":111,"x_max":769,"o":"m 111 0 l 111 117 l 357 117 l 357 869 l 111 869 l 111 986 l 722 986 l 722 869 l 476 869 l 476 117 l 722 117 l 722 0 l 111 0 m 650 -292 q 558 -262 592 -292 q 525 -181 525 -232 q 539 -111 525 -144 q 582 -42 553 -78 l 626 14 l 722 0 l 674 -62 q 639 -118 647 -97 q 631 -156 631 -139 q 642 -187 631 -176 q 672 -197 653 -197 q 706 -192 688 -197 q 736 -178 724 -187 l 769 -256 q 722 -282 753 -272 q 650 -292 690 -292 z "},"Ĩ":{"ha":833,"x_min":111,"x_max":722,"o":"m 111 0 l 111 117 l 357 117 l 357 869 l 111 869 l 111 986 l 722 986 l 722 869 l 476 869 l 476 117 l 722 117 l 722 0 l 111 0 m 500 1097 q 450 1109 474 1097 q 403 1139 426 1121 q 365 1167 379 1158 q 331 1175 351 1175 q 289 1156 306 1175 q 269 1088 272 1138 l 197 1088 q 238 1209 200 1168 q 331 1250 275 1250 q 388 1238 364 1250 q 436 1206 413 1225 q 474 1180 458 1188 q 506 1172 489 1172 q 546 1192 532 1172 q 564 1264 560 1213 l 636 1264 q 596 1141 632 1185 q 500 1097 560 1097 z "},"J":{"ha":833,"x_min":56,"x_max":708,"o":"m 382 -22 q 213 19 285 -22 q 99 138 140 61 q 56 319 58 215 l 172 331 q 228 153 176 211 q 382 94 279 94 q 537 153 485 94 q 589 331 589 213 l 589 986 l 708 986 l 708 331 q 621 72 708 167 q 382 -22 533 -22 z "},"Ĵ":{"ha":833,"x_min":56,"x_max":839,"o":"m 382 -22 q 213 19 285 -22 q 99 138 140 61 q 56 319 58 215 l 172 331 q 228 153 176 211 q 382 94 279 94 q 537 153 485 94 q 589 331 589 213 l 589 986 l 708 986 l 708 331 q 621 72 708 167 q 382 -22 533 -22 m 450 1081 l 579 1265 l 710 1265 l 839 1081 l 742 1081 l 633 1219 l 656 1219 l 547 1081 l 450 1081 z "},"K":{"ha":833,"x_min":83,"x_max":778,"o":"m 189 314 l 189 475 l 617 986 l 764 986 l 189 314 m 83 0 l 83 986 l 203 986 l 203 0 l 83 0 m 631 0 l 286 500 l 369 586 l 778 0 l 631 0 z "},"Ǩ":{"ha":833,"x_min":83,"x_max":778,"o":"m 189 314 l 189 475 l 617 986 l 764 986 l 189 314 m 83 0 l 83 986 l 203 986 l 203 0 l 83 0 m 631 0 l 286 500 l 369 586 l 778 0 l 631 0 m 190 1265 l 288 1265 l 396 1126 l 374 1126 l 482 1265 l 579 1265 l 450 1081 l 319 1081 l 190 1265 z "},"Ķ":{"ha":833,"x_min":83,"x_max":778,"o":"m 189 314 l 189 475 l 617 986 l 764 986 l 189 314 m 83 0 l 83 986 l 203 986 l 203 0 l 83 0 m 631 0 l 286 500 l 369 586 l 778 0 l 631 0 m 297 -333 l 372 -200 l 325 -200 l 325 -75 l 464 -75 l 464 -194 l 375 -333 l 297 -333 z "},"L":{"ha":833,"x_min":139,"x_max":750,"o":"m 139 0 l 139 986 l 258 986 l 258 56 l 199 117 l 750 117 l 750 0 l 139 0 z "},"Ĺ":{"ha":833,"x_min":139,"x_max":750,"o":"m 139 0 l 139 986 l 258 986 l 258 56 l 199 117 l 750 117 l 750 0 l 139 0 m 146 1083 l 238 1261 l 368 1261 l 243 1083 l 146 1083 z "},"Ľ":{"ha":833,"x_min":139,"x_max":750,"o":"m 139 0 l 139 986 l 258 986 l 258 56 l 199 117 l 750 117 l 750 0 l 139 0 m 492 633 l 533 986 l 650 986 l 575 633 l 492 633 z "},"Ļ":{"ha":833,"x_min":139,"x_max":750,"o":"m 139 0 l 139 986 l 258 986 l 258 56 l 199 117 l 750 117 l 750 0 l 139 0 m 349 -333 l 424 -200 l 376 -200 l 376 -75 l 515 -75 l 515 -194 l 426 -333 l 349 -333 z "},"Ł":{"ha":833,"x_min":42,"x_max":750,"o":"m 139 0 l 139 986 l 258 986 l 258 56 l 199 117 l 750 117 l 750 0 l 139 0 m 42 364 l 42 469 l 469 692 l 469 586 l 42 364 z "},"M":{"ha":833,"x_min":69,"x_max":764,"o":"m 364 111 l 178 875 l 189 875 l 189 0 l 69 0 l 69 986 l 250 986 l 444 175 l 389 175 l 583 986 l 764 986 l 764 0 l 644 0 l 644 875 l 656 875 l 469 111 l 364 111 z "},"N":{"ha":833,"x_min":97,"x_max":736,"o":"m 97 0 l 97 986 l 267 986 l 638 85 l 617 81 l 617 986 l 736 986 l 736 0 l 567 0 l 196 901 l 217 907 l 217 0 l 97 0 z "},"Ń":{"ha":833,"x_min":97,"x_max":736,"o":"m 97 0 l 97 986 l 267 986 l 638 85 l 617 81 l 617 986 l 736 986 l 736 0 l 567 0 l 196 901 l 217 907 l 217 0 l 97 0 m 364 1083 l 456 1261 l 586 1261 l 461 1083 l 364 1083 z "},"Ň":{"ha":833,"x_min":97,"x_max":736,"o":"m 97 0 l 97 986 l 267 986 l 638 85 l 617 81 l 617 986 l 736 986 l 736 0 l 567 0 l 196 901 l 217 907 l 217 0 l 97 0 m 222 1265 l 319 1265 l 428 1126 l 406 1126 l 514 1265 l 611 1265 l 482 1081 l 351 1081 l 222 1265 z "},"Ņ":{"ha":833,"x_min":97,"x_max":736,"o":"m 97 0 l 97 986 l 267 986 l 638 85 l 617 81 l 617 986 l 736 986 l 736 0 l 567 0 l 196 901 l 217 907 l 217 0 l 97 0 m 319 -333 l 394 -200 l 347 -200 l 347 -75 l 486 -75 l 486 -194 l 397 -333 l 319 -333 z "},"Ñ":{"ha":833,"x_min":97,"x_max":736,"o":"m 97 0 l 97 986 l 267 986 l 638 85 l 617 81 l 617 986 l 736 986 l 736 0 l 567 0 l 196 901 l 217 907 l 217 0 l 97 0 m 500 1097 q 450 1109 474 1097 q 403 1139 426 1121 q 365 1167 379 1158 q 331 1175 351 1175 q 289 1156 306 1175 q 269 1088 272 1138 l 197 1088 q 238 1209 200 1168 q 331 1250 275 1250 q 388 1238 364 1250 q 436 1206 413 1225 q 474 1180 458 1188 q 506 1172 489 1172 q 546 1192 532 1172 q 564 1264 560 1213 l 636 1264 q 596 1141 632 1185 q 500 1097 560 1097 z "},"Ŋ":{"ha":833,"x_min":97,"x_max":736,"o":"m 385 -208 l 385 -92 l 528 -92 q 594 -71 572 -92 q 617 -11 617 -50 l 617 126 l 736 126 l 736 -10 q 680 -154 736 -100 q 528 -208 624 -208 l 385 -208 m 97 0 l 97 986 l 267 986 l 638 85 l 617 81 l 617 986 l 736 986 l 736 0 l 567 0 l 196 901 l 217 907 l 217 0 l 97 0 z "},"O":{"ha":833,"x_min":53,"x_max":781,"o":"m 417 -22 q 219 38 300 -22 q 95 213 138 97 q 53 492 53 328 q 95 774 53 658 q 219 949 138 889 q 417 1008 300 1008 q 615 949 533 1008 q 738 774 696 889 q 781 492 781 658 q 738 213 781 328 q 615 38 696 97 q 417 -22 533 -22 m 417 94 q 547 140 493 94 q 628 274 600 185 q 656 492 656 363 q 628 710 656 621 q 547 846 600 800 q 417 892 493 892 q 287 846 340 892 q 206 710 233 800 q 178 492 178 621 q 206 274 178 363 q 287 140 233 185 q 417 94 340 94 z "},"Ó":{"ha":833,"x_min":53,"x_max":781,"o":"m 417 -22 q 219 38 300 -22 q 95 213 138 97 q 53 492 53 328 q 95 774 53 658 q 219 949 138 889 q 417 1008 300 1008 q 615 949 533 1008 q 738 774 696 889 q 781 492 781 658 q 738 213 781 328 q 615 38 696 97 q 417 -22 533 -22 m 417 94 q 547 140 493 94 q 628 274 600 185 q 656 492 656 363 q 628 710 656 621 q 547 846 600 800 q 417 892 493 892 q 287 846 340 892 q 206 710 233 800 q 178 492 178 621 q 206 274 178 363 q 287 140 233 185 q 417 94 340 94 m 364 1083 l 456 1261 l 586 1261 l 461 1083 l 364 1083 z "},"Ô":{"ha":833,"x_min":53,"x_max":781,"o":"m 417 -22 q 219 38 300 -22 q 95 213 138 97 q 53 492 53 328 q 95 774 53 658 q 219 949 138 889 q 417 1008 300 1008 q 615 949 533 1008 q 738 774 696 889 q 781 492 781 658 q 738 213 781 328 q 615 38 696 97 q 417 -22 533 -22 m 417 94 q 547 140 493 94 q 628 274 600 185 q 656 492 656 363 q 628 710 656 621 q 547 846 600 800 q 417 892 493 892 q 287 846 340 892 q 206 710 233 800 q 178 492 178 621 q 206 274 178 363 q 287 140 233 185 q 417 94 340 94 m 221 1081 l 350 1265 l 481 1265 l 610 1081 l 513 1081 l 404 1219 l 426 1219 l 318 1081 l 221 1081 z "},"Ö":{"ha":833,"x_min":53,"x_max":781,"o":"m 417 -22 q 219 38 300 -22 q 95 213 138 97 q 53 492 53 328 q 95 774 53 658 q 219 949 138 889 q 417 1008 300 1008 q 615 949 533 1008 q 738 774 696 889 q 781 492 781 658 q 738 213 781 328 q 615 38 696 97 q 417 -22 533 -22 m 417 94 q 547 140 493 94 q 628 274 600 185 q 656 492 656 363 q 628 710 656 621 q 547 846 600 800 q 417 892 493 892 q 287 846 340 892 q 206 710 233 800 q 178 492 178 621 q 206 274 178 363 q 287 140 233 185 q 417 94 340 94 m 222 1101 l 222 1238 l 344 1238 l 344 1101 l 222 1101 m 489 1101 l 489 1238 l 611 1238 l 611 1101 l 489 1101 z "},"Ò":{"ha":833,"x_min":53,"x_max":781,"o":"m 417 -22 q 219 38 300 -22 q 95 213 138 97 q 53 492 53 328 q 95 774 53 658 q 219 949 138 889 q 417 1008 300 1008 q 615 949 533 1008 q 738 774 696 889 q 781 492 781 658 q 738 213 781 328 q 615 38 696 97 q 417 -22 533 -22 m 417 94 q 547 140 493 94 q 628 274 600 185 q 656 492 656 363 q 628 710 656 621 q 547 846 600 800 q 417 892 493 892 q 287 846 340 892 q 206 710 233 800 q 178 492 178 621 q 206 274 178 363 q 287 140 233 185 q 417 94 340 94 m 375 1083 l 250 1261 l 381 1261 l 472 1083 l 375 1083 z "},"Ő":{"ha":833,"x_min":53,"x_max":781,"o":"m 417 -22 q 219 38 300 -22 q 95 213 138 97 q 53 492 53 328 q 95 774 53 658 q 219 949 138 889 q 417 1008 300 1008 q 615 949 533 1008 q 738 774 696 889 q 781 492 781 658 q 738 213 781 328 q 615 38 696 97 q 417 -22 533 -22 m 417 94 q 547 140 493 94 q 628 274 600 185 q 656 492 656 363 q 628 710 656 621 q 547 846 600 800 q 417 892 493 892 q 287 846 340 892 q 206 710 233 800 q 178 492 178 621 q 206 274 178 363 q 287 140 233 185 q 417 94 340 94 m 264 1081 l 356 1258 l 486 1258 l 361 1081 l 264 1081 m 458 1081 l 550 1258 l 681 1258 l 556 1081 l 458 1081 z "},"Ō":{"ha":833,"x_min":53,"x_max":781,"o":"m 417 -22 q 219 38 300 -22 q 95 213 138 97 q 53 492 53 328 q 95 774 53 658 q 219 949 138 889 q 417 1008 300 1008 q 615 949 533 1008 q 738 774 696 889 q 781 492 781 658 q 738 213 781 328 q 615 38 696 97 q 417 -22 533 -22 m 417 94 q 547 140 493 94 q 628 274 600 185 q 656 492 656 363 q 628 710 656 621 q 547 846 600 800 q 417 892 493 892 q 287 846 340 892 q 206 710 233 800 q 178 492 178 621 q 206 274 178 363 q 287 140 233 185 q 417 94 340 94 m 229 1118 l 229 1218 l 601 1218 l 601 1118 l 229 1118 z "},"Ø":{"ha":833,"x_min":53,"x_max":781,"o":"m 417 -22 q 219 38 300 -22 q 95 213 138 97 q 53 492 53 328 q 95 774 53 658 q 219 949 138 889 q 417 1008 300 1008 q 615 949 533 1008 q 738 774 696 889 q 781 492 781 658 q 738 213 781 328 q 615 38 696 97 q 417 -22 533 -22 m 417 94 q 547 140 493 94 q 628 274 600 185 q 656 492 656 363 q 628 710 656 621 q 547 846 600 800 q 417 892 493 892 q 287 846 340 892 q 206 710 233 800 q 178 492 178 621 q 206 274 178 363 q 287 140 233 185 q 417 94 340 94 m 56 -22 l 661 1008 l 778 1008 l 172 -22 l 56 -22 z "},"Õ":{"ha":833,"x_min":53,"x_max":781,"o":"m 417 -22 q 219 38 300 -22 q 95 213 138 97 q 53 492 53 328 q 95 774 53 658 q 219 949 138 889 q 417 1008 300 1008 q 615 949 533 1008 q 738 774 696 889 q 781 492 781 658 q 738 213 781 328 q 615 38 696 97 q 417 -22 533 -22 m 417 94 q 547 140 493 94 q 628 274 600 185 q 656 492 656 363 q 628 710 656 621 q 547 846 600 800 q 417 892 493 892 q 287 846 340 892 q 206 710 233 800 q 178 492 178 621 q 206 274 178 363 q 287 140 233 185 q 417 94 340 94 m 500 1097 q 450 1109 474 1097 q 403 1139 426 1121 q 365 1167 379 1158 q 331 1175 351 1175 q 289 1156 306 1175 q 269 1088 272 1138 l 197 1088 q 238 1209 200 1168 q 331 1250 275 1250 q 388 1238 364 1250 q 436 1206 413 1225 q 474 1180 458 1188 q 506 1172 489 1172 q 546 1192 532 1172 q 564 1264 560 1213 l 636 1264 q 596 1141 632 1185 q 500 1097 560 1097 z "},"Œ":{"ha":833,"x_min":14,"x_max":819,"o":"m 294 -22 q 87 110 160 -22 q 14 492 14 242 q 87 875 14 742 q 294 1008 160 1008 q 409 971 360 1008 q 492 864 458 933 q 542 700 525 794 q 558 492 558 606 q 542 284 558 378 q 492 122 525 190 q 409 15 458 53 q 294 -22 360 -22 m 294 94 q 388 140 354 94 q 438 274 422 185 q 453 492 453 363 q 438 711 453 622 q 388 846 422 800 q 294 892 354 892 q 201 846 236 892 q 151 711 167 800 q 136 492 136 622 q 151 274 136 363 q 201 140 167 185 q 294 94 236 94 m 456 0 l 456 986 l 808 986 l 808 869 l 575 869 l 575 551 l 792 551 l 792 438 l 575 438 l 575 117 l 819 117 l 819 0 l 456 0 z "},"P":{"ha":833,"x_min":125,"x_max":764,"o":"m 125 0 l 125 986 l 425 986 q 604 950 528 986 q 722 847 681 914 q 764 685 764 779 q 722 523 764 590 q 604 419 681 456 q 425 383 528 383 l 244 383 l 244 0 l 125 0 m 244 500 l 411 500 q 583 548 528 500 q 639 685 639 596 q 583 822 639 775 q 411 869 528 869 l 244 869 l 244 500 z "},"Þ":{"ha":833,"x_min":125,"x_max":778,"o":"m 160 207 l 160 324 l 428 324 q 597 371 540 324 q 653 511 653 418 q 597 647 653 601 q 428 692 540 692 l 160 692 l 160 808 l 428 808 q 617 773 539 808 q 736 672 694 738 q 778 511 778 606 q 736 348 778 417 q 617 243 694 279 q 428 207 539 207 l 160 207 m 125 0 l 125 986 l 244 986 l 244 0 l 125 0 z "},"Q":{"ha":833,"x_min":53,"x_max":781,"o":"m 528 -165 l 347 303 l 467 303 l 647 -165 l 528 -165 m 417 -22 q 219 38 300 -22 q 95 213 138 97 q 53 492 53 328 q 95 774 53 658 q 219 949 138 889 q 417 1008 300 1008 q 615 949 533 1008 q 738 774 696 889 q 781 492 781 658 q 738 213 781 328 q 615 38 696 97 q 417 -22 533 -22 m 417 94 q 518 120 474 94 q 593 197 563 146 q 640 321 624 247 q 656 492 656 394 q 628 710 656 621 q 547 846 600 800 q 417 892 493 892 q 287 846 340 892 q 206 710 233 800 q 178 492 178 621 q 206 274 178 363 q 287 140 233 185 q 417 94 340 94 z "},"R":{"ha":833,"x_min":97,"x_max":742,"o":"m 97 0 l 97 986 l 397 986 q 643 908 553 986 q 733 692 733 829 q 701 569 733 622 q 619 485 669 515 q 517 450 569 454 l 511 467 q 659 419 610 461 q 717 283 708 378 l 742 0 l 622 0 l 599 268 q 577 342 594 314 q 523 384 560 371 q 422 397 486 397 l 217 397 l 217 0 l 97 0 m 217 514 l 397 514 q 554 560 500 514 q 608 692 608 607 q 554 824 608 778 q 397 869 500 869 l 217 869 l 217 514 z "},"Ŕ":{"ha":833,"x_min":97,"x_max":742,"o":"m 97 0 l 97 986 l 397 986 q 643 908 553 986 q 733 692 733 829 q 701 569 733 622 q 619 485 669 515 q 517 450 569 454 l 511 467 q 659 419 610 461 q 717 283 708 378 l 742 0 l 622 0 l 599 268 q 577 342 594 314 q 523 384 560 371 q 422 397 486 397 l 217 397 l 217 0 l 97 0 m 217 514 l 397 514 q 554 560 500 514 q 608 692 608 607 q 554 824 608 778 q 397 869 500 869 l 217 869 l 217 514 m 344 1083 l 436 1261 l 567 1261 l 442 1083 l 344 1083 z "},"Ř":{"ha":833,"x_min":97,"x_max":742,"o":"m 97 0 l 97 986 l 397 986 q 643 908 553 986 q 733 692 733 829 q 701 569 733 622 q 619 485 669 515 q 517 450 569 454 l 511 467 q 659 419 610 461 q 717 283 708 378 l 742 0 l 622 0 l 599 268 q 577 342 594 314 q 523 384 560 371 q 422 397 486 397 l 217 397 l 217 0 l 97 0 m 217 514 l 397 514 q 554 560 500 514 q 608 692 608 607 q 554 824 608 778 q 397 869 500 869 l 217 869 l 217 514 m 203 1265 l 300 1265 l 408 1126 l 386 1126 l 494 1265 l 592 1265 l 463 1081 l 332 1081 l 203 1265 z "},"Ŗ":{"ha":833,"x_min":97,"x_max":742,"o":"m 97 0 l 97 986 l 397 986 q 643 908 553 986 q 733 692 733 829 q 701 569 733 622 q 619 485 669 515 q 517 450 569 454 l 511 467 q 659 419 610 461 q 717 283 708 378 l 742 0 l 622 0 l 599 268 q 577 342 594 314 q 523 384 560 371 q 422 397 486 397 l 217 397 l 217 0 l 97 0 m 217 514 l 397 514 q 554 560 500 514 q 608 692 608 607 q 554 824 608 778 q 397 869 500 869 l 217 869 l 217 514 m 325 -333 l 400 -200 l 353 -200 l 353 -75 l 492 -75 l 492 -194 l 403 -333 l 325 -333 z "},"S":{"ha":833,"x_min":61,"x_max":772,"o":"m 432 -22 q 247 21 328 -22 q 118 140 167 64 q 61 315 69 215 l 186 324 q 228 199 196 250 q 313 121 261 147 q 435 94 365 94 q 551 112 504 94 q 623 163 599 129 q 647 244 647 197 q 626 327 647 292 q 545 393 604 363 q 371 456 486 424 q 205 519 268 485 q 113 604 142 554 q 85 728 85 654 q 124 874 85 811 q 238 973 164 938 q 413 1008 311 1008 q 586 967 514 1008 q 701 856 658 926 q 754 694 743 785 l 629 686 q 594 792 621 746 q 522 865 568 839 q 410 892 476 892 q 264 848 318 892 q 210 733 210 804 q 230 658 210 688 q 301 605 250 628 q 446 556 353 582 q 638 481 567 522 q 741 381 710 439 q 772 242 772 324 q 729 104 772 164 q 610 11 686 44 q 432 -22 533 -22 z "},"Ś":{"ha":833,"x_min":61,"x_max":772,"o":"m 432 -22 q 247 21 328 -22 q 118 140 167 64 q 61 315 69 215 l 186 324 q 228 199 196 250 q 313 121 261 147 q 435 94 365 94 q 551 112 504 94 q 623 163 599 129 q 647 244 647 197 q 626 327 647 292 q 545 393 604 363 q 371 456 486 424 q 205 519 268 485 q 113 604 142 554 q 85 728 85 654 q 124 874 85 811 q 238 973 164 938 q 413 1008 311 1008 q 586 967 514 1008 q 701 856 658 926 q 754 694 743 785 l 629 686 q 594 792 621 746 q 522 865 568 839 q 410 892 476 892 q 264 848 318 892 q 210 733 210 804 q 230 658 210 688 q 301 605 250 628 q 446 556 353 582 q 638 481 567 522 q 741 381 710 439 q 772 242 772 324 q 729 104 772 164 q 610 11 686 44 q 432 -22 533 -22 m 363 1083 l 454 1261 l 585 1261 l 460 1083 l 363 1083 z "},"Š":{"ha":833,"x_min":61,"x_max":772,"o":"m 432 -22 q 247 21 328 -22 q 118 140 167 64 q 61 315 69 215 l 186 324 q 228 199 196 250 q 313 121 261 147 q 435 94 365 94 q 551 112 504 94 q 623 163 599 129 q 647 244 647 197 q 626 327 647 292 q 545 393 604 363 q 371 456 486 424 q 205 519 268 485 q 113 604 142 554 q 85 728 85 654 q 124 874 85 811 q 238 973 164 938 q 413 1008 311 1008 q 586 967 514 1008 q 701 856 658 926 q 754 694 743 785 l 629 686 q 594 792 621 746 q 522 865 568 839 q 410 892 476 892 q 264 848 318 892 q 210 733 210 804 q 230 658 210 688 q 301 605 250 628 q 446 556 353 582 q 638 481 567 522 q 741 381 710 439 q 772 242 772 324 q 729 104 772 164 q 610 11 686 44 q 432 -22 533 -22 m 221 1265 l 318 1265 l 426 1126 l 404 1126 l 513 1265 l 610 1265 l 481 1081 l 350 1081 l 221 1265 z "},"Ş":{"ha":833,"x_min":61,"x_max":772,"o":"m 432 -22 q 247 21 328 -22 q 118 140 167 64 q 61 315 69 215 l 186 324 q 228 199 196 250 q 313 121 261 147 q 435 94 365 94 q 551 112 504 94 q 623 163 599 129 q 647 244 647 197 q 626 327 647 292 q 545 393 604 363 q 371 456 486 424 q 205 519 268 485 q 113 604 142 554 q 85 728 85 654 q 124 874 85 811 q 238 973 164 938 q 413 1008 311 1008 q 586 967 514 1008 q 701 856 658 926 q 754 694 743 785 l 629 686 q 594 792 621 746 q 522 865 568 839 q 410 892 476 892 q 264 848 318 892 q 210 733 210 804 q 230 658 210 688 q 301 605 250 628 q 446 556 353 582 q 638 481 567 522 q 741 381 710 439 q 772 242 772 324 q 729 104 772 164 q 610 11 686 44 q 432 -22 533 -22 m 403 -306 q 296 -274 336 -306 q 240 -197 256 -243 l 311 -169 q 344 -214 324 -200 q 400 -228 365 -228 q 456 -213 436 -228 q 475 -172 475 -199 q 456 -128 475 -146 q 369 -111 436 -111 l 331 -69 l 383 14 l 472 14 l 425 -50 q 526 -87 493 -53 q 558 -175 558 -121 q 538 -243 558 -214 q 483 -289 518 -272 q 403 -306 449 -306 z "},"Ŝ":{"ha":833,"x_min":61,"x_max":772,"o":"m 432 -22 q 247 21 328 -22 q 118 140 167 64 q 61 315 69 215 l 186 324 q 228 199 196 250 q 313 121 261 147 q 435 94 365 94 q 551 112 504 94 q 623 163 599 129 q 647 244 647 197 q 626 327 647 292 q 545 393 604 363 q 371 456 486 424 q 205 519 268 485 q 113 604 142 554 q 85 728 85 654 q 124 874 85 811 q 238 973 164 938 q 413 1008 311 1008 q 586 967 514 1008 q 701 856 658 926 q 754 694 743 785 l 629 686 q 594 792 621 746 q 522 865 568 839 q 410 892 476 892 q 264 848 318 892 q 210 733 210 804 q 230 658 210 688 q 301 605 250 628 q 446 556 353 582 q 638 481 567 522 q 741 381 710 439 q 772 242 772 324 q 729 104 772 164 q 610 11 686 44 q 432 -22 533 -22 m 219 1081 l 349 1265 l 479 1265 l 608 1081 l 511 1081 l 403 1219 l 425 1219 l 317 1081 l 219 1081 z "},"Ș":{"ha":833,"x_min":61,"x_max":772,"o":"m 432 -22 q 247 21 328 -22 q 118 140 167 64 q 61 315 69 215 l 186 324 q 228 199 196 250 q 313 121 261 147 q 435 94 365 94 q 551 112 504 94 q 623 163 599 129 q 647 244 647 197 q 626 327 647 292 q 545 393 604 363 q 371 456 486 424 q 205 519 268 485 q 113 604 142 554 q 85 728 85 654 q 124 874 85 811 q 238 973 164 938 q 413 1008 311 1008 q 586 967 514 1008 q 701 856 658 926 q 754 694 743 785 l 629 686 q 594 792 621 746 q 522 865 568 839 q 410 892 476 892 q 264 848 318 892 q 210 733 210 804 q 230 658 210 688 q 301 605 250 628 q 446 556 353 582 q 638 481 567 522 q 741 381 710 439 q 772 242 772 324 q 729 104 772 164 q 610 11 686 44 q 432 -22 533 -22 m 319 -333 l 394 -200 l 347 -200 l 347 -75 l 486 -75 l 486 -194 l 397 -333 l 319 -333 z "},"ẞ":{"ha":833,"x_min":50,"x_max":799,"o":"m 50 0 l 50 696 q 125 908 50 831 q 328 986 200 986 l 732 986 l 732 858 l 426 592 q 622 558 538 594 q 752 458 706 522 q 799 307 799 393 q 756 147 799 217 q 634 39 713 78 q 449 0 556 0 l 263 0 l 263 117 l 449 117 q 570 140 519 117 q 648 204 621 163 q 675 301 675 246 q 610 441 675 392 q 418 490 546 490 l 299 490 l 299 599 l 581 869 l 331 869 q 212 824 254 869 q 169 693 169 778 l 169 0 l 50 0 z "},"T":{"ha":833,"x_min":56,"x_max":778,"o":"m 357 0 l 357 869 l 56 869 l 56 986 l 778 986 l 778 869 l 476 869 l 476 0 l 357 0 z "},"Ŧ":{"ha":833,"x_min":56,"x_max":778,"o":"m 357 0 l 357 869 l 56 869 l 56 986 l 778 986 l 778 869 l 476 869 l 476 0 l 357 0 m 194 429 l 194 538 l 639 538 l 639 429 l 194 429 z "},"Ť":{"ha":833,"x_min":56,"x_max":778,"o":"m 357 0 l 357 869 l 56 869 l 56 986 l 778 986 l 778 869 l 476 869 l 476 0 l 357 0 m 222 1265 l 319 1265 l 428 1126 l 406 1126 l 514 1265 l 611 1265 l 482 1081 l 351 1081 l 222 1265 z "},"Ţ":{"ha":833,"x_min":56,"x_max":778,"o":"m 357 0 l 357 869 l 56 869 l 56 986 l 778 986 l 778 869 l 476 869 l 476 0 l 357 0 m 403 -306 q 296 -274 336 -306 q 240 -197 256 -243 l 311 -169 q 344 -214 324 -200 q 400 -228 365 -228 q 456 -213 436 -228 q 475 -172 475 -199 q 456 -128 475 -146 q 369 -111 436 -111 l 331 -69 l 383 14 l 472 14 l 425 -50 q 526 -87 493 -53 q 558 -175 558 -121 q 538 -243 558 -214 q 483 -289 518 -272 q 403 -306 449 -306 z "},"Ț":{"ha":833,"x_min":56,"x_max":778,"o":"m 357 0 l 357 869 l 56 869 l 56 986 l 778 986 l 778 869 l 476 869 l 476 0 l 357 0 m 319 -333 l 394 -200 l 347 -200 l 347 -75 l 486 -75 l 486 -194 l 397 -333 l 319 -333 z "},"U":{"ha":833,"x_min":83,"x_max":750,"o":"m 417 -22 q 172 76 261 -22 q 83 344 83 175 l 83 986 l 203 986 l 203 344 q 258 158 203 222 q 417 94 313 94 q 576 158 521 94 q 631 344 631 222 l 631 986 l 750 986 l 750 344 q 661 76 750 175 q 417 -22 572 -22 z "},"Ú":{"ha":833,"x_min":83,"x_max":750,"o":"m 417 -22 q 172 76 261 -22 q 83 344 83 175 l 83 986 l 203 986 l 203 344 q 258 158 203 222 q 417 94 313 94 q 576 158 521 94 q 631 344 631 222 l 631 986 l 750 986 l 750 344 q 661 76 750 175 q 417 -22 572 -22 m 364 1083 l 456 1261 l 586 1261 l 461 1083 l 364 1083 z "},"Ŭ":{"ha":833,"x_min":83,"x_max":750,"o":"m 417 -22 q 172 76 261 -22 q 83 344 83 175 l 83 986 l 203 986 l 203 344 q 258 158 203 222 q 417 94 313 94 q 576 158 521 94 q 631 344 631 222 l 631 986 l 750 986 l 750 344 q 661 76 750 175 q 417 -22 572 -22 m 417 1088 q 279 1136 332 1088 q 222 1265 226 1185 l 303 1265 q 340 1196 310 1218 q 417 1174 369 1174 q 495 1196 465 1174 q 531 1265 525 1218 l 611 1265 q 555 1136 607 1185 q 417 1088 503 1088 z "},"Û":{"ha":833,"x_min":83,"x_max":750,"o":"m 417 -22 q 172 76 261 -22 q 83 344 83 175 l 83 986 l 203 986 l 203 344 q 258 158 203 222 q 417 94 313 94 q 576 158 521 94 q 631 344 631 222 l 631 986 l 750 986 l 750 344 q 661 76 750 175 q 417 -22 572 -22 m 221 1081 l 350 1265 l 481 1265 l 610 1081 l 513 1081 l 404 1219 l 426 1219 l 318 1081 l 221 1081 z "},"Ü":{"ha":833,"x_min":83,"x_max":750,"o":"m 417 -22 q 172 76 261 -22 q 83 344 83 175 l 83 986 l 203 986 l 203 344 q 258 158 203 222 q 417 94 313 94 q 576 158 521 94 q 631 344 631 222 l 631 986 l 750 986 l 750 344 q 661 76 750 175 q 417 -22 572 -22 m 222 1101 l 222 1238 l 344 1238 l 344 1101 l 222 1101 m 489 1101 l 489 1238 l 611 1238 l 611 1101 l 489 1101 z "},"Ù":{"ha":833,"x_min":83,"x_max":750,"o":"m 417 -22 q 172 76 261 -22 q 83 344 83 175 l 83 986 l 203 986 l 203 344 q 258 158 203 222 q 417 94 313 94 q 576 158 521 94 q 631 344 631 222 l 631 986 l 750 986 l 750 344 q 661 76 750 175 q 417 -22 572 -22 m 375 1083 l 250 1261 l 381 1261 l 472 1083 l 375 1083 z "},"Ű":{"ha":833,"x_min":83,"x_max":750,"o":"m 417 -22 q 172 76 261 -22 q 83 344 83 175 l 83 986 l 203 986 l 203 344 q 258 158 203 222 q 417 94 313 94 q 576 158 521 94 q 631 344 631 222 l 631 986 l 750 986 l 750 344 q 661 76 750 175 q 417 -22 572 -22 m 264 1081 l 356 1258 l 486 1258 l 361 1081 l 264 1081 m 458 1081 l 550 1258 l 681 1258 l 556 1081 l 458 1081 z "},"Ū":{"ha":833,"x_min":83,"x_max":750,"o":"m 417 -22 q 172 76 261 -22 q 83 344 83 175 l 83 986 l 203 986 l 203 344 q 258 158 203 222 q 417 94 313 94 q 576 158 521 94 q 631 344 631 222 l 631 986 l 750 986 l 750 344 q 661 76 750 175 q 417 -22 572 -22 m 229 1118 l 229 1218 l 601 1218 l 601 1118 l 229 1118 z "},"Ų":{"ha":833,"x_min":83,"x_max":750,"o":"m 417 -22 q 172 76 261 -22 q 83 344 83 175 l 83 986 l 203 986 l 203 344 q 258 158 203 222 q 417 94 313 94 q 576 158 521 94 q 631 344 631 222 l 631 986 l 750 986 l 750 344 q 661 76 750 175 q 417 -22 572 -22 m 475 -292 q 383 -262 417 -292 q 350 -181 350 -232 q 364 -111 350 -144 q 407 -42 378 -78 l 451 14 l 547 0 l 499 -62 q 464 -118 472 -97 q 456 -156 456 -139 q 467 -187 456 -176 q 497 -197 478 -197 q 531 -192 513 -197 q 561 -178 549 -187 l 594 -256 q 547 -282 578 -272 q 475 -292 515 -292 z "},"Ů":{"ha":833,"x_min":83,"x_max":750,"o":"m 417 -22 q 172 76 261 -22 q 83 344 83 175 l 83 986 l 203 986 l 203 344 q 258 158 203 222 q 417 94 313 94 q 576 158 521 94 q 631 344 631 222 l 631 986 l 750 986 l 750 344 q 661 76 750 175 q 417 -22 572 -22 m 417 1050 q 326 1087 363 1050 q 289 1178 289 1124 q 326 1269 289 1232 q 417 1306 363 1306 q 508 1269 471 1306 q 544 1178 544 1232 q 508 1087 544 1124 q 417 1050 471 1050 m 417 1119 q 458 1136 442 1119 q 475 1178 475 1153 q 458 1219 475 1203 q 417 1236 442 1236 q 375 1219 392 1236 q 358 1178 358 1203 q 375 1136 358 1153 q 417 1119 392 1119 z "},"Ũ":{"ha":833,"x_min":83,"x_max":750,"o":"m 417 -22 q 172 76 261 -22 q 83 344 83 175 l 83 986 l 203 986 l 203 344 q 258 158 203 222 q 417 94 313 94 q 576 158 521 94 q 631 344 631 222 l 631 986 l 750 986 l 750 344 q 661 76 750 175 q 417 -22 572 -22 m 500 1097 q 450 1109 474 1097 q 403 1139 426 1121 q 365 1167 379 1158 q 331 1175 351 1175 q 289 1156 306 1175 q 269 1088 272 1138 l 197 1088 q 238 1209 200 1168 q 331 1250 275 1250 q 388 1238 364 1250 q 436 1206 413 1225 q 474 1180 458 1188 q 506 1172 489 1172 q 546 1192 532 1172 q 564 1264 560 1213 l 636 1264 q 596 1141 632 1185 q 500 1097 560 1097 z "},"V":{"ha":833,"x_min":42,"x_max":792,"o":"m 339 0 l 42 986 l 169 986 l 433 78 l 400 78 l 664 986 l 792 986 l 494 0 l 339 0 z "},"W":{"ha":833,"x_min":42,"x_max":792,"o":"m 150 0 l 42 986 l 167 986 l 258 69 l 244 69 l 353 875 l 481 875 l 589 69 l 575 69 l 667 986 l 792 986 l 683 0 l 503 0 l 400 778 l 433 778 l 331 0 l 150 0 z "},"Ẃ":{"ha":833,"x_min":42,"x_max":792,"o":"m 150 0 l 42 986 l 167 986 l 258 69 l 244 69 l 353 875 l 481 875 l 589 69 l 575 69 l 667 986 l 792 986 l 683 0 l 503 0 l 400 778 l 433 778 l 331 0 l 150 0 m 364 1083 l 456 1261 l 586 1261 l 461 1083 l 364 1083 z "},"Ŵ":{"ha":833,"x_min":42,"x_max":792,"o":"m 150 0 l 42 986 l 167 986 l 258 69 l 244 69 l 353 875 l 481 875 l 589 69 l 575 69 l 667 986 l 792 986 l 683 0 l 503 0 l 400 778 l 433 778 l 331 0 l 150 0 m 221 1081 l 350 1265 l 481 1265 l 610 1081 l 513 1081 l 404 1219 l 426 1219 l 318 1081 l 221 1081 z "},"Ẅ":{"ha":833,"x_min":42,"x_max":792,"o":"m 150 0 l 42 986 l 167 986 l 258 69 l 244 69 l 353 875 l 481 875 l 589 69 l 575 69 l 667 986 l 792 986 l 683 0 l 503 0 l 400 778 l 433 778 l 331 0 l 150 0 m 222 1101 l 222 1238 l 344 1238 l 344 1101 l 222 1101 m 489 1101 l 489 1238 l 611 1238 l 611 1101 l 489 1101 z "},"Ẁ":{"ha":833,"x_min":42,"x_max":792,"o":"m 150 0 l 42 986 l 167 986 l 258 69 l 244 69 l 353 875 l 481 875 l 589 69 l 575 69 l 667 986 l 792 986 l 683 0 l 503 0 l 400 778 l 433 778 l 331 0 l 150 0 m 375 1083 l 250 1261 l 381 1261 l 472 1083 l 375 1083 z "},"X":{"ha":833,"x_min":69,"x_max":764,"o":"m 69 0 l 342 496 l 75 986 l 214 986 l 418 590 l 622 986 l 758 986 l 492 494 l 764 0 l 625 0 l 415 401 l 206 0 l 69 0 z "},"Y":{"ha":833,"x_min":56,"x_max":778,"o":"m 358 0 l 358 403 l 56 986 l 192 986 l 417 525 l 642 986 l 778 986 l 478 403 l 478 0 l 358 0 z "},"Ý":{"ha":833,"x_min":56,"x_max":778,"o":"m 358 0 l 358 403 l 56 986 l 192 986 l 417 525 l 642 986 l 778 986 l 478 403 l 478 0 l 358 0 m 364 1083 l 456 1261 l 586 1261 l 461 1083 l 364 1083 z "},"Ŷ":{"ha":833,"x_min":56,"x_max":778,"o":"m 358 0 l 358 403 l 56 986 l 192 986 l 417 525 l 642 986 l 778 986 l 478 403 l 478 0 l 358 0 m 221 1081 l 350 1265 l 481 1265 l 610 1081 l 513 1081 l 404 1219 l 426 1219 l 318 1081 l 221 1081 z "},"Ÿ":{"ha":833,"x_min":56,"x_max":778,"o":"m 358 0 l 358 403 l 56 986 l 192 986 l 417 525 l 642 986 l 778 986 l 478 403 l 478 0 l 358 0 m 222 1101 l 222 1238 l 344 1238 l 344 1101 l 222 1101 m 489 1101 l 489 1238 l 611 1238 l 611 1101 l 489 1101 z "},"Ỳ":{"ha":833,"x_min":56,"x_max":778,"o":"m 358 0 l 358 403 l 56 986 l 192 986 l 417 525 l 642 986 l 778 986 l 478 403 l 478 0 l 358 0 m 375 1083 l 250 1261 l 381 1261 l 472 1083 l 375 1083 z "},"Ỹ":{"ha":833,"x_min":56,"x_max":778,"o":"m 358 0 l 358 403 l 56 986 l 192 986 l 417 525 l 642 986 l 778 986 l 478 403 l 478 0 l 358 0 m 500 1097 q 450 1109 474 1097 q 403 1139 426 1121 q 365 1167 379 1158 q 331 1175 351 1175 q 289 1156 306 1175 q 269 1088 272 1138 l 197 1088 q 238 1209 200 1168 q 331 1250 275 1250 q 388 1238 364 1250 q 436 1206 413 1225 q 474 1180 458 1188 q 506 1172 489 1172 q 546 1192 532 1172 q 564 1264 560 1213 l 636 1264 q 596 1141 632 1185 q 500 1097 560 1097 z "},"Z":{"ha":833,"x_min":69,"x_max":764,"o":"m 69 0 l 69 119 l 619 869 l 94 869 l 94 986 l 753 986 l 753 867 l 203 117 l 764 117 l 764 0 l 69 0 z "},"Ź":{"ha":833,"x_min":69,"x_max":764,"o":"m 69 0 l 69 119 l 619 869 l 94 869 l 94 986 l 753 986 l 753 867 l 203 117 l 764 117 l 764 0 l 69 0 m 364 1083 l 456 1261 l 586 1261 l 461 1083 l 364 1083 z "},"Ž":{"ha":833,"x_min":69,"x_max":764,"o":"m 69 0 l 69 119 l 619 869 l 94 869 l 94 986 l 753 986 l 753 867 l 203 117 l 764 117 l 764 0 l 69 0 m 222 1265 l 319 1265 l 428 1126 l 406 1126 l 514 1265 l 611 1265 l 482 1081 l 351 1081 l 222 1265 z "},"Ż":{"ha":833,"x_min":69,"x_max":764,"o":"m 69 0 l 69 119 l 619 869 l 94 869 l 94 986 l 753 986 l 753 867 l 203 117 l 764 117 l 764 0 l 69 0 m 354 1101 l 354 1238 l 476 1238 l 476 1101 l 354 1101 z "},"Ꞌ":{"ha":833,"x_min":356,"x_max":478,"o":"m 375 525 l 356 797 l 356 986 l 478 986 l 478 797 l 458 525 l 375 525 z "},"a":{"ha":833,"x_min":75,"x_max":764,"o":"m 319 -17 q 194 8 250 -17 q 107 78 139 33 q 75 183 75 124 q 131 330 75 278 q 308 406 188 382 l 556 456 q 513 596 556 550 q 392 642 471 642 q 272 608 315 642 q 213 510 229 574 l 89 519 q 188 688 110 624 q 392 753 267 753 q 599 673 525 753 q 672 453 672 593 l 672 147 q 683 113 672 122 q 717 103 694 103 l 764 103 l 764 0 q 738 -2 756 -1 q 703 -3 719 -3 q 623 13 656 -3 q 574 62 590 28 q 556 150 557 96 l 578 150 q 531 65 568 103 q 439 5 494 26 q 319 -17 383 -17 m 331 86 q 456 112 406 86 q 531 184 506 138 q 556 292 556 231 l 556 356 l 331 311 q 226 269 256 297 q 197 194 197 240 q 233 115 197 143 q 331 86 268 86 z "},"á":{"ha":833,"x_min":75,"x_max":764,"o":"m 319 -17 q 194 8 250 -17 q 107 78 139 33 q 75 183 75 124 q 131 330 75 278 q 308 406 188 382 l 556 456 q 513 596 556 550 q 392 642 471 642 q 272 608 315 642 q 213 510 229 574 l 89 519 q 188 688 110 624 q 392 753 267 753 q 599 673 525 753 q 672 453 672 593 l 672 147 q 683 113 672 122 q 717 103 694 103 l 764 103 l 764 0 q 738 -2 756 -1 q 703 -3 719 -3 q 623 13 656 -3 q 574 62 590 28 q 556 150 557 96 l 578 150 q 531 65 568 103 q 439 5 494 26 q 319 -17 383 -17 m 331 86 q 456 112 406 86 q 531 184 506 138 q 556 292 556 231 l 556 356 l 331 311 q 226 269 256 297 q 197 194 197 240 q 233 115 197 143 q 331 86 268 86 m 342 833 l 433 1011 l 564 1011 l 439 833 l 342 833 z "},"ă":{"ha":833,"x_min":75,"x_max":764,"o":"m 319 -17 q 194 8 250 -17 q 107 78 139 33 q 75 183 75 124 q 131 330 75 278 q 308 406 188 382 l 556 456 q 513 596 556 550 q 392 642 471 642 q 272 608 315 642 q 213 510 229 574 l 89 519 q 188 688 110 624 q 392 753 267 753 q 599 673 525 753 q 672 453 672 593 l 672 147 q 683 113 672 122 q 717 103 694 103 l 764 103 l 764 0 q 738 -2 756 -1 q 703 -3 719 -3 q 623 13 656 -3 q 574 62 590 28 q 556 150 557 96 l 578 150 q 531 65 568 103 q 439 5 494 26 q 319 -17 383 -17 m 331 86 q 456 112 406 86 q 531 184 506 138 q 556 292 556 231 l 556 356 l 331 311 q 226 269 256 297 q 197 194 197 240 q 233 115 197 143 q 331 86 268 86 m 394 838 q 257 886 310 838 q 200 1015 204 935 l 281 1015 q 317 946 288 968 q 394 924 347 924 q 473 946 443 924 q 508 1015 503 968 l 589 1015 q 533 886 585 935 q 394 838 481 838 z "},"ǎ":{"ha":833,"x_min":75,"x_max":764,"o":"m 319 -17 q 194 8 250 -17 q 107 78 139 33 q 75 183 75 124 q 131 330 75 278 q 308 406 188 382 l 556 456 q 513 596 556 550 q 392 642 471 642 q 272 608 315 642 q 213 510 229 574 l 89 519 q 188 688 110 624 q 392 753 267 753 q 599 673 525 753 q 672 453 672 593 l 672 147 q 683 113 672 122 q 717 103 694 103 l 764 103 l 764 0 q 738 -2 756 -1 q 703 -3 719 -3 q 623 13 656 -3 q 574 62 590 28 q 556 150 557 96 l 578 150 q 531 65 568 103 q 439 5 494 26 q 319 -17 383 -17 m 331 86 q 456 112 406 86 q 531 184 506 138 q 556 292 556 231 l 556 356 l 331 311 q 226 269 256 297 q 197 194 197 240 q 233 115 197 143 q 331 86 268 86 m 200 1015 l 297 1015 l 406 876 l 383 876 l 492 1015 l 589 1015 l 460 831 l 329 831 l 200 1015 z "},"â":{"ha":833,"x_min":75,"x_max":764,"o":"m 319 -17 q 194 8 250 -17 q 107 78 139 33 q 75 183 75 124 q 131 330 75 278 q 308 406 188 382 l 556 456 q 513 596 556 550 q 392 642 471 642 q 272 608 315 642 q 213 510 229 574 l 89 519 q 188 688 110 624 q 392 753 267 753 q 599 673 525 753 q 672 453 672 593 l 672 147 q 683 113 672 122 q 717 103 694 103 l 764 103 l 764 0 q 738 -2 756 -1 q 703 -3 719 -3 q 623 13 656 -3 q 574 62 590 28 q 556 150 557 96 l 578 150 q 531 65 568 103 q 439 5 494 26 q 319 -17 383 -17 m 331 86 q 456 112 406 86 q 531 184 506 138 q 556 292 556 231 l 556 356 l 331 311 q 226 269 256 297 q 197 194 197 240 q 233 115 197 143 q 331 86 268 86 m 199 831 l 328 1015 l 458 1015 l 588 831 l 490 831 l 382 969 l 404 969 l 296 831 l 199 831 z "},"ä":{"ha":833,"x_min":75,"x_max":764,"o":"m 319 -17 q 194 8 250 -17 q 107 78 139 33 q 75 183 75 124 q 131 330 75 278 q 308 406 188 382 l 556 456 q 513 596 556 550 q 392 642 471 642 q 272 608 315 642 q 213 510 229 574 l 89 519 q 188 688 110 624 q 392 753 267 753 q 599 673 525 753 q 672 453 672 593 l 672 147 q 683 113 672 122 q 717 103 694 103 l 764 103 l 764 0 q 738 -2 756 -1 q 703 -3 719 -3 q 623 13 656 -3 q 574 62 590 28 q 556 150 557 96 l 578 150 q 531 65 568 103 q 439 5 494 26 q 319 -17 383 -17 m 331 86 q 456 112 406 86 q 531 184 506 138 q 556 292 556 231 l 556 356 l 331 311 q 226 269 256 297 q 197 194 197 240 q 233 115 197 143 q 331 86 268 86 m 200 851 l 200 988 l 322 988 l 322 851 l 200 851 m 467 851 l 467 988 l 589 988 l 589 851 l 467 851 z "},"à":{"ha":833,"x_min":75,"x_max":764,"o":"m 319 -17 q 194 8 250 -17 q 107 78 139 33 q 75 183 75 124 q 131 330 75 278 q 308 406 188 382 l 556 456 q 513 596 556 550 q 392 642 471 642 q 272 608 315 642 q 213 510 229 574 l 89 519 q 188 688 110 624 q 392 753 267 753 q 599 673 525 753 q 672 453 672 593 l 672 147 q 683 113 672 122 q 717 103 694 103 l 764 103 l 764 0 q 738 -2 756 -1 q 703 -3 719 -3 q 623 13 656 -3 q 574 62 590 28 q 556 150 557 96 l 578 150 q 531 65 568 103 q 439 5 494 26 q 319 -17 383 -17 m 331 86 q 456 112 406 86 q 531 184 506 138 q 556 292 556 231 l 556 356 l 331 311 q 226 269 256 297 q 197 194 197 240 q 233 115 197 143 q 331 86 268 86 m 353 833 l 228 1011 l 358 1011 l 450 833 l 353 833 z "},"ā":{"ha":833,"x_min":75,"x_max":764,"o":"m 319 -17 q 194 8 250 -17 q 107 78 139 33 q 75 183 75 124 q 131 330 75 278 q 308 406 188 382 l 556 456 q 513 596 556 550 q 392 642 471 642 q 272 608 315 642 q 213 510 229 574 l 89 519 q 188 688 110 624 q 392 753 267 753 q 599 673 525 753 q 672 453 672 593 l 672 147 q 683 113 672 122 q 717 103 694 103 l 764 103 l 764 0 q 738 -2 756 -1 q 703 -3 719 -3 q 623 13 656 -3 q 574 62 590 28 q 556 150 557 96 l 578 150 q 531 65 568 103 q 439 5 494 26 q 319 -17 383 -17 m 331 86 q 456 112 406 86 q 531 184 506 138 q 556 292 556 231 l 556 356 l 331 311 q 226 269 256 297 q 197 194 197 240 q 233 115 197 143 q 331 86 268 86 m 207 868 l 207 968 l 579 968 l 579 868 l 207 868 z "},"ą":{"ha":833,"x_min":75,"x_max":811,"o":"m 319 -17 q 194 8 250 -17 q 107 78 139 33 q 75 183 75 124 q 131 330 75 278 q 308 406 188 382 l 556 456 q 513 596 556 550 q 392 642 471 642 q 272 608 315 642 q 213 510 229 574 l 89 519 q 188 688 110 624 q 392 753 267 753 q 599 673 525 753 q 672 453 672 593 l 672 147 q 683 113 672 122 q 717 103 694 103 l 764 103 l 764 0 q 738 -2 756 -1 q 703 -3 719 -3 q 623 13 656 -3 q 574 62 590 28 q 556 150 557 96 l 578 150 q 531 65 568 103 q 439 5 494 26 q 319 -17 383 -17 m 331 86 q 456 112 406 86 q 531 184 506 138 q 556 292 556 231 l 556 356 l 331 311 q 226 269 256 297 q 197 194 197 240 q 233 115 197 143 q 331 86 268 86 m 692 -292 q 600 -262 633 -292 q 567 -181 567 -232 q 581 -111 567 -144 q 624 -42 594 -78 l 668 14 l 764 0 l 715 -62 q 681 -118 689 -97 q 672 -156 672 -139 q 683 -187 672 -176 q 714 -197 694 -197 q 747 -192 729 -197 q 778 -178 765 -187 l 811 -256 q 763 -282 794 -272 q 692 -292 732 -292 z "},"å":{"ha":833,"x_min":75,"x_max":764,"o":"m 319 -17 q 194 8 250 -17 q 107 78 139 33 q 75 183 75 124 q 131 330 75 278 q 308 406 188 382 l 556 456 q 513 596 556 550 q 392 642 471 642 q 272 608 315 642 q 213 510 229 574 l 89 519 q 188 688 110 624 q 392 753 267 753 q 599 673 525 753 q 672 453 672 593 l 672 147 q 683 113 672 122 q 717 103 694 103 l 764 103 l 764 0 q 738 -2 756 -1 q 703 -3 719 -3 q 623 13 656 -3 q 574 62 590 28 q 556 150 557 96 l 578 150 q 531 65 568 103 q 439 5 494 26 q 319 -17 383 -17 m 331 86 q 456 112 406 86 q 531 184 506 138 q 556 292 556 231 l 556 356 l 331 311 q 226 269 256 297 q 197 194 197 240 q 233 115 197 143 q 331 86 268 86 m 394 800 q 303 837 340 800 q 267 928 267 874 q 303 1019 267 982 q 394 1056 340 1056 q 485 1019 449 1056 q 522 928 522 982 q 485 837 522 874 q 394 800 449 800 m 394 869 q 436 886 419 869 q 453 928 453 903 q 436 969 453 953 q 394 986 419 986 q 353 969 369 986 q 336 928 336 953 q 353 886 336 903 q 394 869 369 869 z "},"ã":{"ha":833,"x_min":75,"x_max":764,"o":"m 319 -17 q 194 8 250 -17 q 107 78 139 33 q 75 183 75 124 q 131 330 75 278 q 308 406 188 382 l 556 456 q 513 596 556 550 q 392 642 471 642 q 272 608 315 642 q 213 510 229 574 l 89 519 q 188 688 110 624 q 392 753 267 753 q 599 673 525 753 q 672 453 672 593 l 672 147 q 683 113 672 122 q 717 103 694 103 l 764 103 l 764 0 q 738 -2 756 -1 q 703 -3 719 -3 q 623 13 656 -3 q 574 62 590 28 q 556 150 557 96 l 578 150 q 531 65 568 103 q 439 5 494 26 q 319 -17 383 -17 m 331 86 q 456 112 406 86 q 531 184 506 138 q 556 292 556 231 l 556 356 l 331 311 q 226 269 256 297 q 197 194 197 240 q 233 115 197 143 q 331 86 268 86 m 478 847 q 428 859 451 847 q 381 889 404 871 q 343 917 357 908 q 308 925 329 925 q 267 906 283 925 q 247 838 250 888 l 175 838 q 215 959 178 918 q 308 1000 253 1000 q 366 988 342 1000 q 414 956 390 975 q 451 930 436 938 q 483 922 467 922 q 524 942 510 922 q 542 1014 538 963 l 614 1014 q 574 891 610 935 q 478 847 538 847 z "},"æ":{"ha":833,"x_min":25,"x_max":808,"o":"m 582 -17 q 407 83 468 -17 q 346 368 346 183 q 407 653 346 554 q 582 753 468 753 q 704 713 654 753 q 781 591 754 672 q 808 386 808 510 l 808 332 l 463 332 q 499 156 468 218 q 582 94 531 94 q 645 123 622 94 q 682 218 668 151 l 800 208 q 724 35 774 86 q 582 -17 675 -17 m 203 -17 q 113 6 153 -17 q 49 75 72 28 q 25 196 25 122 q 78 344 25 283 q 222 417 131 404 l 342 433 q 319 593 342 544 q 247 642 296 642 q 181 605 200 642 q 153 511 161 568 l 36 519 q 106 694 54 636 q 247 753 158 753 q 401 676 350 753 q 453 444 453 599 l 400 192 q 338 39 388 94 q 203 -17 288 -17 m 224 86 q 315 142 289 86 q 342 304 342 199 l 342 326 l 246 311 q 165 272 189 301 q 142 196 142 242 q 165 113 142 140 q 224 86 189 86 m 464 435 l 688 435 q 656 594 683 546 q 582 642 628 642 q 503 594 531 642 q 464 435 475 546 z "},"b":{"ha":833,"x_min":125,"x_max":778,"o":"m 463 -17 q 356 3 404 -17 q 272 59 307 22 q 219 146 238 96 l 238 167 l 231 0 l 125 0 l 125 986 l 242 986 l 242 578 l 229 607 q 274 675 242 642 q 356 731 307 708 q 463 753 404 753 q 631 706 560 753 q 740 572 701 658 q 778 368 778 486 q 740 164 778 250 q 631 31 701 78 q 463 -17 560 -17 m 456 94 q 602 168 549 94 q 656 368 656 242 q 602 569 656 496 q 458 642 549 642 q 342 609 390 642 q 267 515 293 576 q 242 368 242 454 q 267 223 242 285 q 341 128 293 161 q 456 94 389 94 z "},"c":{"ha":833,"x_min":97,"x_max":750,"o":"m 436 -17 q 257 31 333 -17 q 139 165 181 78 q 97 368 97 251 q 139 571 97 485 q 257 705 181 657 q 436 753 333 753 q 582 723 518 753 q 688 636 646 693 q 744 497 729 579 l 622 489 q 556 602 606 563 q 436 642 507 642 q 277 569 335 642 q 219 368 219 496 q 277 167 219 240 q 436 94 335 94 q 559 136 507 94 q 628 261 611 178 l 750 253 q 692 110 735 171 q 583 17 649 50 q 436 -17 518 -17 z "},"ć":{"ha":833,"x_min":97,"x_max":750,"o":"m 436 -17 q 257 31 333 -17 q 139 165 181 78 q 97 368 97 251 q 139 571 97 485 q 257 705 181 657 q 436 753 333 753 q 582 723 518 753 q 688 636 646 693 q 744 497 729 579 l 622 489 q 556 602 606 563 q 436 642 507 642 q 277 569 335 642 q 219 368 219 496 q 277 167 219 240 q 436 94 335 94 q 559 136 507 94 q 628 261 611 178 l 750 253 q 692 110 735 171 q 583 17 649 50 q 436 -17 518 -17 m 382 833 l 474 1011 l 604 1011 l 479 833 l 382 833 z "},"č":{"ha":833,"x_min":97,"x_max":750,"o":"m 436 -17 q 257 31 333 -17 q 139 165 181 78 q 97 368 97 251 q 139 571 97 485 q 257 705 181 657 q 436 753 333 753 q 582 723 518 753 q 688 636 646 693 q 744 497 729 579 l 622 489 q 556 602 606 563 q 436 642 507 642 q 277 569 335 642 q 219 368 219 496 q 277 167 219 240 q 436 94 335 94 q 559 136 507 94 q 628 261 611 178 l 750 253 q 692 110 735 171 q 583 17 649 50 q 436 -17 518 -17 m 240 1015 l 338 1015 l 446 876 l 424 876 l 532 1015 l 629 1015 l 500 831 l 369 831 l 240 1015 z "},"ç":{"ha":833,"x_min":97,"x_max":750,"o":"m 436 -17 q 257 31 333 -17 q 139 165 181 78 q 97 368 97 251 q 139 571 97 485 q 257 705 181 657 q 436 753 333 753 q 582 723 518 753 q 688 636 646 693 q 744 497 729 579 l 622 489 q 556 602 606 563 q 436 642 507 642 q 277 569 335 642 q 219 368 219 496 q 277 167 219 240 q 436 94 335 94 q 559 136 507 94 q 628 261 611 178 l 750 253 q 692 110 735 171 q 583 17 649 50 q 436 -17 518 -17 m 421 -306 q 314 -274 354 -306 q 258 -197 274 -243 l 329 -169 q 363 -214 342 -200 q 418 -228 383 -228 q 474 -213 454 -228 q 493 -172 493 -199 q 474 -128 493 -146 q 388 -111 454 -111 l 349 -69 l 401 14 l 490 14 l 443 -50 q 544 -87 511 -53 q 576 -175 576 -121 q 556 -243 576 -214 q 501 -289 536 -272 q 421 -306 467 -306 z "},"ĉ":{"ha":833,"x_min":97,"x_max":750,"o":"m 436 -17 q 257 31 333 -17 q 139 165 181 78 q 97 368 97 251 q 139 571 97 485 q 257 705 181 657 q 436 753 333 753 q 582 723 518 753 q 688 636 646 693 q 744 497 729 579 l 622 489 q 556 602 606 563 q 436 642 507 642 q 277 569 335 642 q 219 368 219 496 q 277 167 219 240 q 436 94 335 94 q 559 136 507 94 q 628 261 611 178 l 750 253 q 692 110 735 171 q 583 17 649 50 q 436 -17 518 -17 m 239 831 l 368 1015 l 499 1015 l 628 831 l 531 831 l 422 969 l 444 969 l 336 831 l 239 831 z "},"ċ":{"ha":833,"x_min":97,"x_max":750,"o":"m 436 -17 q 257 31 333 -17 q 139 165 181 78 q 97 368 97 251 q 139 571 97 485 q 257 705 181 657 q 436 753 333 753 q 582 723 518 753 q 688 636 646 693 q 744 497 729 579 l 622 489 q 556 602 606 563 q 436 642 507 642 q 277 569 335 642 q 219 368 219 496 q 277 167 219 240 q 436 94 335 94 q 559 136 507 94 q 628 261 611 178 l 750 253 q 692 110 735 171 q 583 17 649 50 q 436 -17 518 -17 m 372 851 l 372 988 l 494 988 l 494 851 l 372 851 z "},"d":{"ha":833,"x_min":56,"x_max":708,"o":"m 371 -17 q 203 31 274 -17 q 94 164 132 78 q 56 368 56 250 q 94 572 56 486 q 203 706 132 658 q 371 753 274 753 q 478 731 431 753 q 559 675 526 708 q 604 607 592 642 l 592 578 l 592 986 l 708 986 l 708 0 l 603 0 l 596 167 l 614 146 q 562 59 597 96 q 478 3 526 22 q 371 -17 429 -17 m 378 94 q 492 128 444 94 q 566 223 540 161 q 592 368 592 285 q 566 515 592 454 q 492 609 540 576 q 375 642 443 642 q 231 569 285 642 q 178 368 178 496 q 231 168 178 242 q 378 94 285 94 z "},"ď":{"ha":833,"x_min":28,"x_max":819,"o":"m 315 -17 q 104 88 181 -17 q 28 368 28 192 q 104 649 28 546 q 315 753 181 753 q 411 731 371 753 q 480 674 451 708 q 524 604 508 640 l 508 578 l 508 986 l 625 986 l 625 0 l 519 0 l 513 167 l 532 150 q 482 61 513 99 q 410 3 451 24 q 315 -17 369 -17 m 322 94 q 419 128 378 94 q 485 223 461 161 q 508 368 508 285 q 485 515 508 454 q 419 609 461 576 q 319 642 376 642 q 197 569 244 642 q 150 368 150 496 q 198 168 150 242 q 322 94 246 94 m 661 633 l 703 986 l 819 986 l 744 633 l 661 633 z "},"đ":{"ha":833,"x_min":56,"x_max":806,"o":"m 371 -17 q 203 31 274 -17 q 94 164 132 78 q 56 368 56 250 q 94 572 56 486 q 203 706 132 658 q 371 753 274 753 q 478 731 431 753 q 559 675 526 708 q 604 607 592 642 l 592 578 l 592 986 l 708 986 l 708 0 l 603 0 l 596 167 l 614 146 q 562 59 597 96 q 478 3 526 22 q 371 -17 429 -17 m 378 94 q 492 128 444 94 q 566 223 540 161 q 592 368 592 285 q 566 515 592 454 q 492 609 540 576 q 375 642 443 642 q 231 569 285 642 q 178 368 178 496 q 231 168 178 242 q 378 94 285 94 m 389 808 l 389 903 l 806 903 l 806 808 l 389 808 z "},"ð":{"ha":833,"x_min":83,"x_max":778,"o":"m 353 731 l 319 819 l 744 969 l 778 881 l 353 731 m 643 365 q 601 658 643 543 q 471 831 558 772 q 250 900 383 889 l 278 1003 q 501 935 410 989 q 649 796 593 882 q 731 598 706 710 q 756 354 756 486 l 643 365 m 419 -17 q 242 26 318 -17 q 125 150 167 69 q 83 340 83 231 q 125 531 83 451 q 242 654 167 611 q 419 697 318 697 q 558 665 496 697 q 664 580 619 632 q 732 468 708 528 q 756 354 756 408 q 714 154 756 238 q 597 27 672 71 q 419 -17 521 -17 m 419 94 q 577 159 521 94 q 633 354 633 224 q 577 524 633 461 q 419 586 521 586 q 262 522 318 586 q 206 340 206 458 q 262 158 206 222 q 419 94 318 94 z "},"e":{"ha":833,"x_min":92,"x_max":750,"o":"m 429 -17 q 249 31 325 -17 q 133 165 174 78 q 92 368 92 251 q 133 571 92 485 q 248 705 174 657 q 424 753 322 753 q 593 708 519 753 q 708 576 667 663 q 750 367 750 490 l 750 332 l 214 332 q 277 154 221 214 q 429 94 333 94 q 548 128 501 94 q 613 218 594 163 l 738 208 q 627 47 708 110 q 429 -17 546 -17 m 214 435 l 622 435 q 560 592 614 542 q 424 642 506 642 q 284 590 339 642 q 214 435 229 538 z "},"é":{"ha":833,"x_min":92,"x_max":750,"o":"m 429 -17 q 249 31 325 -17 q 133 165 174 78 q 92 368 92 251 q 133 571 92 485 q 248 705 174 657 q 424 753 322 753 q 593 708 519 753 q 708 576 667 663 q 750 367 750 490 l 750 332 l 214 332 q 277 154 221 214 q 429 94 333 94 q 548 128 501 94 q 613 218 594 163 l 738 208 q 627 47 708 110 q 429 -17 546 -17 m 214 435 l 622 435 q 560 592 614 542 q 424 642 506 642 q 284 590 339 642 q 214 435 229 538 m 372 831 l 464 1008 l 594 1008 l 469 831 l 372 831 z "},"ě":{"ha":833,"x_min":92,"x_max":750,"o":"m 429 -17 q 249 31 325 -17 q 133 165 174 78 q 92 368 92 251 q 133 571 92 485 q 248 705 174 657 q 424 753 322 753 q 593 708 519 753 q 708 576 667 663 q 750 367 750 490 l 750 332 l 214 332 q 277 154 221 214 q 429 94 333 94 q 548 128 501 94 q 613 218 594 163 l 738 208 q 627 47 708 110 q 429 -17 546 -17 m 214 435 l 622 435 q 560 592 614 542 q 424 642 506 642 q 284 590 339 642 q 214 435 229 538 m 231 1013 l 328 1013 l 436 874 l 414 874 l 522 1013 l 619 1013 l 490 828 l 360 828 l 231 1013 z "},"ê":{"ha":833,"x_min":92,"x_max":750,"o":"m 429 -17 q 249 31 325 -17 q 133 165 174 78 q 92 368 92 251 q 133 571 92 485 q 248 705 174 657 q 424 753 322 753 q 593 708 519 753 q 708 576 667 663 q 750 367 750 490 l 750 332 l 214 332 q 277 154 221 214 q 429 94 333 94 q 548 128 501 94 q 613 218 594 163 l 738 208 q 627 47 708 110 q 429 -17 546 -17 m 214 435 l 622 435 q 560 592 614 542 q 424 642 506 642 q 284 590 339 642 q 214 435 229 538 m 229 828 l 358 1013 l 489 1013 l 618 828 l 521 828 l 413 967 l 435 967 l 326 828 l 229 828 z "},"ë":{"ha":833,"x_min":92,"x_max":750,"o":"m 429 -17 q 249 31 325 -17 q 133 165 174 78 q 92 368 92 251 q 133 571 92 485 q 248 705 174 657 q 424 753 322 753 q 593 708 519 753 q 708 576 667 663 q 750 367 750 490 l 750 332 l 214 332 q 277 154 221 214 q 429 94 333 94 q 548 128 501 94 q 613 218 594 163 l 738 208 q 627 47 708 110 q 429 -17 546 -17 m 214 435 l 622 435 q 560 592 614 542 q 424 642 506 642 q 284 590 339 642 q 214 435 229 538 m 231 849 l 231 985 l 353 985 l 353 849 l 231 849 m 497 849 l 497 985 l 619 985 l 619 849 l 497 849 z "},"ė":{"ha":833,"x_min":92,"x_max":750,"o":"m 429 -17 q 249 31 325 -17 q 133 165 174 78 q 92 368 92 251 q 133 571 92 485 q 248 705 174 657 q 424 753 322 753 q 593 708 519 753 q 708 576 667 663 q 750 367 750 490 l 750 332 l 214 332 q 277 154 221 214 q 429 94 333 94 q 548 128 501 94 q 613 218 594 163 l 738 208 q 627 47 708 110 q 429 -17 546 -17 m 214 435 l 622 435 q 560 592 614 542 q 424 642 506 642 q 284 590 339 642 q 214 435 229 538 m 363 849 l 363 985 l 485 985 l 485 849 l 363 849 z "},"è":{"ha":833,"x_min":92,"x_max":750,"o":"m 429 -17 q 249 31 325 -17 q 133 165 174 78 q 92 368 92 251 q 133 571 92 485 q 248 705 174 657 q 424 753 322 753 q 593 708 519 753 q 708 576 667 663 q 750 367 750 490 l 750 332 l 214 332 q 277 154 221 214 q 429 94 333 94 q 548 128 501 94 q 613 218 594 163 l 738 208 q 627 47 708 110 q 429 -17 546 -17 m 214 435 l 622 435 q 560 592 614 542 q 424 642 506 642 q 284 590 339 642 q 214 435 229 538 m 383 831 l 258 1008 l 389 1008 l 481 831 l 383 831 z "},"ē":{"ha":833,"x_min":92,"x_max":750,"o":"m 429 -17 q 249 31 325 -17 q 133 165 174 78 q 92 368 92 251 q 133 571 92 485 q 248 705 174 657 q 424 753 322 753 q 593 708 519 753 q 708 576 667 663 q 750 367 750 490 l 750 332 l 214 332 q 277 154 221 214 q 429 94 333 94 q 548 128 501 94 q 613 218 594 163 l 738 208 q 627 47 708 110 q 429 -17 546 -17 m 214 435 l 622 435 q 560 592 614 542 q 424 642 506 642 q 284 590 339 642 q 214 435 229 538 m 238 865 l 238 965 l 610 965 l 610 865 l 238 865 z "},"ę":{"ha":833,"x_min":92,"x_max":750,"o":"m 429 -17 q 249 31 325 -17 q 133 165 174 78 q 92 368 92 251 q 133 571 92 485 q 248 705 174 657 q 424 753 322 753 q 593 708 519 753 q 708 576 667 663 q 750 367 750 490 l 750 332 l 214 332 q 277 154 221 214 q 429 94 333 94 q 548 128 501 94 q 613 218 594 163 l 738 208 q 627 47 708 110 q 429 -17 546 -17 m 214 435 l 622 435 q 560 592 614 542 q 424 642 506 642 q 284 590 339 642 q 214 435 229 538 m 536 -258 q 444 -228 478 -258 q 411 -147 411 -199 q 425 -78 411 -111 q 468 -8 439 -44 l 513 47 l 608 33 l 560 -29 q 525 -85 533 -64 q 517 -122 517 -106 q 528 -153 517 -143 q 558 -164 539 -164 q 592 -159 574 -164 q 622 -144 610 -154 l 656 -222 q 608 -249 639 -239 q 536 -258 576 -258 z "},"ẽ":{"ha":833,"x_min":92,"x_max":750,"o":"m 429 -17 q 249 31 325 -17 q 133 165 174 78 q 92 368 92 251 q 133 571 92 485 q 248 705 174 657 q 424 753 322 753 q 593 708 519 753 q 708 576 667 663 q 750 367 750 490 l 750 332 l 214 332 q 277 154 221 214 q 429 94 333 94 q 548 128 501 94 q 613 218 594 163 l 738 208 q 627 47 708 110 q 429 -17 546 -17 m 214 435 l 622 435 q 560 592 614 542 q 424 642 506 642 q 284 590 339 642 q 214 435 229 538 m 508 844 q 458 856 482 844 q 411 886 435 868 q 374 914 388 906 q 339 922 360 922 q 297 903 314 922 q 278 835 281 885 l 206 835 q 246 956 208 915 q 339 997 283 997 q 397 985 372 997 q 444 953 421 972 q 482 927 467 935 q 514 919 497 919 q 554 940 540 919 q 572 1011 568 960 l 644 1011 q 604 888 640 932 q 508 844 568 844 z "},"ə":{"ha":833,"x_min":83,"x_max":742,"o":"m 404 753 q 584 705 508 753 q 701 571 660 657 q 742 368 742 485 q 701 165 742 251 q 585 31 660 78 q 410 -17 511 -17 q 240 28 314 -17 q 125 160 167 74 q 83 369 83 246 l 83 404 l 619 404 q 557 583 614 524 q 404 642 500 642 q 286 608 332 642 q 221 518 240 575 l 96 528 q 206 690 125 626 q 404 753 288 753 m 619 301 l 211 301 q 274 145 219 196 q 410 94 329 94 q 551 147 496 94 q 619 301 606 200 z "},"f":{"ha":833,"x_min":97,"x_max":736,"o":"m 294 0 l 294 783 q 345 934 294 882 q 500 986 396 986 l 736 986 l 736 883 l 500 883 q 434 856 457 883 q 411 783 411 829 l 411 0 l 294 0 m 97 633 l 97 736 l 722 736 l 722 633 l 97 633 z "},"g":{"ha":833,"x_min":83,"x_max":736,"o":"m 413 -225 q 269 -199 333 -225 q 163 -124 206 -172 q 104 -11 119 -75 l 226 -3 q 285 -84 243 -54 q 413 -114 328 -114 q 566 -74 513 -114 q 619 47 619 -33 l 619 167 q 535 74 593 108 q 404 39 476 39 q 238 85 311 39 q 124 211 165 131 q 83 396 83 292 q 124 581 83 501 q 235 707 164 661 q 399 753 307 753 q 538 717 476 753 q 625 619 600 681 l 625 736 l 736 736 l 736 50 q 697 -98 736 -36 q 586 -192 658 -160 q 413 -225 514 -225 m 410 150 q 561 216 504 150 q 619 396 618 282 q 595 527 621 472 q 522 612 569 582 q 410 642 474 642 q 259 576 313 642 q 206 396 206 510 q 260 216 206 282 q 410 150 315 150 z "},"ğ":{"ha":833,"x_min":83,"x_max":736,"o":"m 413 -225 q 269 -199 333 -225 q 163 -124 206 -172 q 104 -11 119 -75 l 226 -3 q 285 -84 243 -54 q 413 -114 328 -114 q 566 -74 513 -114 q 619 47 619 -33 l 619 167 q 535 74 593 108 q 404 39 476 39 q 238 85 311 39 q 124 211 165 131 q 83 396 83 292 q 124 581 83 501 q 235 707 164 661 q 399 753 307 753 q 538 717 476 753 q 625 619 600 681 l 625 736 l 736 736 l 736 50 q 697 -98 736 -36 q 586 -192 658 -160 q 413 -225 514 -225 m 410 150 q 561 216 504 150 q 619 396 618 282 q 595 527 621 472 q 522 612 569 582 q 410 642 474 642 q 259 576 313 642 q 206 396 206 510 q 260 216 206 282 q 410 150 315 150 m 414 838 q 276 886 329 838 q 219 1015 224 935 l 300 1015 q 337 946 307 968 q 414 924 367 924 q 492 946 463 924 q 528 1015 522 968 l 608 1015 q 552 886 604 935 q 414 838 500 838 z "},"ǧ":{"ha":833,"x_min":83,"x_max":736,"o":"m 413 -225 q 269 -199 333 -225 q 163 -124 206 -172 q 104 -11 119 -75 l 226 -3 q 285 -84 243 -54 q 413 -114 328 -114 q 566 -74 513 -114 q 619 47 619 -33 l 619 167 q 535 74 593 108 q 404 39 476 39 q 238 85 311 39 q 124 211 165 131 q 83 396 83 292 q 124 581 83 501 q 235 707 164 661 q 399 753 307 753 q 538 717 476 753 q 625 619 600 681 l 625 736 l 736 736 l 736 50 q 697 -98 736 -36 q 586 -192 658 -160 q 413 -225 514 -225 m 410 150 q 561 216 504 150 q 619 396 618 282 q 595 527 621 472 q 522 612 569 582 q 410 642 474 642 q 259 576 313 642 q 206 396 206 510 q 260 216 206 282 q 410 150 315 150 m 219 1015 l 317 1015 l 425 876 l 403 876 l 511 1015 l 608 1015 l 479 831 l 349 831 l 219 1015 z "},"ĝ":{"ha":833,"x_min":83,"x_max":736,"o":"m 413 -225 q 269 -199 333 -225 q 163 -124 206 -172 q 104 -11 119 -75 l 226 -3 q 285 -84 243 -54 q 413 -114 328 -114 q 566 -74 513 -114 q 619 47 619 -33 l 619 167 q 535 74 593 108 q 404 39 476 39 q 238 85 311 39 q 124 211 165 131 q 83 396 83 292 q 124 581 83 501 q 235 707 164 661 q 399 753 307 753 q 538 717 476 753 q 625 619 600 681 l 625 736 l 736 736 l 736 50 q 697 -98 736 -36 q 586 -192 658 -160 q 413 -225 514 -225 m 410 150 q 561 216 504 150 q 619 396 618 282 q 595 527 621 472 q 522 612 569 582 q 410 642 474 642 q 259 576 313 642 q 206 396 206 510 q 260 216 206 282 q 410 150 315 150 m 218 831 l 347 1015 l 478 1015 l 607 831 l 510 831 l 401 969 l 424 969 l 315 831 l 218 831 z "},"ģ":{"ha":833,"x_min":83,"x_max":736,"o":"m 413 -225 q 269 -199 333 -225 q 163 -124 206 -172 q 104 -11 119 -75 l 226 -3 q 285 -84 243 -54 q 413 -114 328 -114 q 566 -74 513 -114 q 619 47 619 -33 l 619 167 q 535 74 593 108 q 404 39 476 39 q 238 85 311 39 q 124 211 165 131 q 83 396 83 292 q 124 581 83 501 q 235 707 164 661 q 399 753 307 753 q 538 717 476 753 q 625 619 600 681 l 625 736 l 736 736 l 736 50 q 697 -98 736 -36 q 586 -192 658 -160 q 413 -225 514 -225 m 410 150 q 561 216 504 150 q 619 396 618 282 q 595 527 621 472 q 522 612 569 582 q 410 642 474 642 q 259 576 313 642 q 206 396 206 510 q 260 216 206 282 q 410 150 315 150 m 515 1096 l 440 963 l 488 963 l 488 838 l 349 838 l 349 957 l 438 1096 l 515 1096 z "},"ġ":{"ha":833,"x_min":83,"x_max":736,"o":"m 413 -225 q 269 -199 333 -225 q 163 -124 206 -172 q 104 -11 119 -75 l 226 -3 q 285 -84 243 -54 q 413 -114 328 -114 q 566 -74 513 -114 q 619 47 619 -33 l 619 167 q 535 74 593 108 q 404 39 476 39 q 238 85 311 39 q 124 211 165 131 q 83 396 83 292 q 124 581 83 501 q 235 707 164 661 q 399 753 307 753 q 538 717 476 753 q 625 619 600 681 l 625 736 l 736 736 l 736 50 q 697 -98 736 -36 q 586 -192 658 -160 q 413 -225 514 -225 m 410 150 q 561 216 504 150 q 619 396 618 282 q 595 527 621 472 q 522 612 569 582 q 410 642 474 642 q 259 576 313 642 q 206 396 206 510 q 260 216 206 282 q 410 150 315 150 m 351 851 l 351 988 l 474 988 l 474 851 l 351 851 z "},"ḡ":{"ha":833,"x_min":83,"x_max":736,"o":"m 413 -225 q 269 -199 333 -225 q 163 -124 206 -172 q 104 -11 119 -75 l 226 -3 q 285 -84 243 -54 q 413 -114 328 -114 q 566 -74 513 -114 q 619 47 619 -33 l 619 167 q 535 74 593 108 q 404 39 476 39 q 238 85 311 39 q 124 211 165 131 q 83 396 83 292 q 124 581 83 501 q 235 707 164 661 q 399 753 307 753 q 538 717 476 753 q 625 619 600 681 l 625 736 l 736 736 l 736 50 q 697 -98 736 -36 q 586 -192 658 -160 q 413 -225 514 -225 m 410 150 q 561 216 504 150 q 619 396 618 282 q 595 527 621 472 q 522 612 569 582 q 410 642 474 642 q 259 576 313 642 q 206 396 206 510 q 260 216 206 282 q 410 150 315 150 m 226 868 l 226 968 l 599 968 l 599 868 l 226 868 z "},"ǥ":{"ha":833,"x_min":83,"x_max":806,"o":"m 410 342 l 410 439 l 806 439 l 806 342 l 410 342 m 413 -225 q 269 -199 333 -225 q 163 -124 206 -172 q 104 -11 119 -75 l 226 -3 q 285 -84 243 -54 q 413 -114 328 -114 q 566 -74 513 -114 q 619 47 619 -33 l 619 167 q 535 74 593 108 q 404 39 476 39 q 238 85 311 39 q 124 211 165 131 q 83 396 83 292 q 124 581 83 501 q 235 707 164 661 q 399 753 307 753 q 538 717 476 753 q 625 619 600 681 l 625 736 l 736 736 l 736 50 q 697 -98 736 -36 q 586 -192 658 -160 q 413 -225 514 -225 m 410 150 q 561 216 504 150 q 619 396 618 282 q 595 527 621 472 q 522 612 569 582 q 410 642 474 642 q 259 576 313 642 q 206 396 206 510 q 260 216 206 282 q 410 150 315 150 z "},"h":{"ha":833,"x_min":139,"x_max":722,"o":"m 139 0 l 139 986 l 256 986 l 256 574 l 242 576 q 289 676 256 638 q 371 734 322 715 q 476 753 419 753 q 610 717 556 753 q 694 619 665 682 q 722 474 722 556 l 722 0 l 606 0 l 606 440 q 567 599 606 547 q 451 650 529 650 q 309 596 363 650 q 256 439 256 542 l 256 0 l 139 0 z "},"ħ":{"ha":833,"x_min":50,"x_max":722,"o":"m 139 0 l 139 986 l 256 986 l 256 574 l 242 576 q 289 676 256 638 q 371 734 322 715 q 476 753 419 753 q 610 717 556 753 q 694 619 665 682 q 722 474 722 556 l 722 0 l 606 0 l 606 440 q 567 599 606 547 q 451 650 529 650 q 309 596 363 650 q 256 439 256 542 l 256 0 l 139 0 m 50 808 l 50 903 l 467 903 l 467 808 l 50 808 z "},"ĥ":{"ha":833,"x_min":3,"x_max":722,"o":"m 139 0 l 139 986 l 256 986 l 256 574 l 242 576 q 289 676 256 638 q 371 734 322 715 q 476 753 419 753 q 610 717 556 753 q 694 619 665 682 q 722 474 722 556 l 722 0 l 606 0 l 606 440 q 567 599 606 547 q 451 650 529 650 q 309 596 363 650 q 256 439 256 542 l 256 0 l 139 0 m 3 1081 l 132 1265 l 263 1265 l 392 1081 l 294 1081 l 186 1219 l 208 1219 l 100 1081 l 3 1081 z "},"i":{"ha":833,"x_min":111,"x_max":778,"o":"m 111 0 l 111 103 l 407 103 l 407 690 l 464 633 l 125 633 l 125 736 l 524 736 l 524 103 l 778 103 l 778 0 l 524 0 l 407 0 l 111 0 m 396 851 l 396 988 l 518 988 l 518 851 l 396 851 z "},"ı":{"ha":833,"x_min":111,"x_max":778,"o":"m 111 0 l 111 103 l 407 103 l 407 690 l 464 633 l 125 633 l 125 736 l 524 736 l 524 103 l 778 103 l 778 0 l 524 0 l 407 0 l 111 0 z "},"í":{"ha":833,"x_min":111,"x_max":778,"o":"m 111 0 l 111 103 l 407 103 l 407 690 l 464 633 l 125 633 l 125 736 l 524 736 l 524 103 l 778 103 l 778 0 l 524 0 l 407 0 l 111 0 m 406 833 l 497 1011 l 628 1011 l 503 833 l 406 833 z "},"î":{"ha":833,"x_min":111,"x_max":778,"o":"m 111 0 l 111 103 l 407 103 l 407 690 l 464 633 l 125 633 l 125 736 l 524 736 l 524 103 l 778 103 l 778 0 l 524 0 l 407 0 l 111 0 m 263 831 l 392 1015 l 522 1015 l 651 831 l 554 831 l 446 969 l 468 969 l 360 831 l 263 831 z "},"ï":{"ha":833,"x_min":111,"x_max":778,"o":"m 111 0 l 111 103 l 407 103 l 407 690 l 464 633 l 125 633 l 125 736 l 524 736 l 524 103 l 778 103 l 778 0 l 524 0 l 407 0 l 111 0 m 264 851 l 264 988 l 386 988 l 386 851 l 264 851 m 531 851 l 531 988 l 653 988 l 653 851 l 531 851 z "},"ì":{"ha":833,"x_min":111,"x_max":778,"o":"m 111 0 l 111 103 l 407 103 l 407 690 l 464 633 l 125 633 l 125 736 l 524 736 l 524 103 l 778 103 l 778 0 l 524 0 l 407 0 l 111 0 m 417 833 l 292 1011 l 422 1011 l 514 833 l 417 833 z "},"ī":{"ha":833,"x_min":111,"x_max":778,"o":"m 111 0 l 111 103 l 407 103 l 407 690 l 464 633 l 125 633 l 125 736 l 524 736 l 524 103 l 778 103 l 778 0 l 524 0 l 407 0 l 111 0 m 271 868 l 271 968 l 643 968 l 643 868 l 271 868 z "},"į":{"ha":833,"x_min":111,"x_max":825,"o":"m 111 0 l 111 103 l 407 103 l 407 690 l 464 633 l 125 633 l 125 736 l 524 736 l 524 103 l 778 103 l 778 0 l 524 0 l 407 0 l 111 0 m 396 851 l 396 988 l 518 988 l 518 851 l 396 851 m 706 -292 q 614 -262 647 -292 q 581 -181 581 -232 q 594 -111 581 -144 q 638 -42 608 -78 l 682 14 l 778 0 l 729 -62 q 694 -118 703 -97 q 686 -156 686 -139 q 697 -187 686 -176 q 728 -197 708 -197 q 761 -192 743 -197 q 792 -178 779 -187 l 825 -256 q 777 -282 808 -272 q 706 -292 746 -292 z "},"ĩ":{"ha":833,"x_min":111,"x_max":778,"o":"m 111 0 l 111 103 l 407 103 l 407 690 l 464 633 l 125 633 l 125 736 l 524 736 l 524 103 l 778 103 l 778 0 l 524 0 l 407 0 l 111 0 m 542 847 q 492 859 515 847 q 444 889 468 871 q 407 917 421 908 q 372 925 393 925 q 331 906 347 925 q 311 838 314 888 l 239 838 q 279 959 242 918 q 372 1000 317 1000 q 430 988 406 1000 q 478 956 454 975 q 515 930 500 938 q 547 922 531 922 q 588 942 574 922 q 606 1014 601 963 l 678 1014 q 638 891 674 935 q 542 847 601 847 z "},"j":{"ha":833,"x_min":153,"x_max":611,"o":"m 153 -208 l 153 -106 l 386 -106 q 467 -82 440 -106 q 494 8 494 -58 l 494 690 l 551 633 l 167 633 l 167 736 l 611 736 l 611 0 q 561 -155 611 -101 q 400 -208 511 -208 l 153 -208 m 488 851 l 488 988 l 610 988 l 610 851 l 488 851 z "},"ȷ":{"ha":833,"x_min":153,"x_max":611,"o":"m 153 -208 l 153 -106 l 386 -106 q 467 -82 440 -106 q 494 8 494 -58 l 494 690 l 551 633 l 167 633 l 167 736 l 611 736 l 611 0 q 561 -155 611 -101 q 400 -208 511 -208 l 153 -208 z "},"ĵ":{"ha":833,"x_min":153,"x_max":743,"o":"m 153 -208 l 153 -106 l 386 -106 q 467 -82 440 -106 q 494 8 494 -58 l 494 690 l 551 633 l 167 633 l 167 736 l 611 736 l 611 0 q 561 -155 611 -101 q 400 -208 511 -208 l 153 -208 m 354 831 l 483 1015 l 614 1015 l 743 831 l 646 831 l 538 969 l 560 969 l 451 831 l 354 831 z "},"k":{"ha":833,"x_min":125,"x_max":769,"o":"m 125 0 l 125 986 l 242 986 l 242 340 l 600 736 l 756 736 l 465 424 l 769 0 l 628 0 l 386 344 l 242 192 l 242 0 l 125 0 z "},"ǩ":{"ha":833,"x_min":-10,"x_max":769,"o":"m 125 0 l 125 986 l 242 986 l 242 340 l 600 736 l 756 736 l 465 424 l 769 0 l 628 0 l 386 344 l 242 192 l 242 0 l 125 0 m -10 1265 l 88 1265 l 196 1126 l 174 1126 l 282 1265 l 379 1265 l 250 1081 l 119 1081 l -10 1265 z "},"ķ":{"ha":833,"x_min":125,"x_max":769,"o":"m 125 0 l 125 986 l 242 986 l 242 340 l 600 736 l 756 736 l 465 424 l 769 0 l 628 0 l 386 344 l 242 192 l 242 0 l 125 0 m 332 -333 l 407 -200 l 360 -200 l 360 -75 l 499 -75 l 499 -194 l 410 -333 l 332 -333 z "},"l":{"ha":833,"x_min":83,"x_max":750,"o":"m 379 42 l 379 789 q 354 858 379 833 q 285 883 329 883 l 111 883 l 111 986 l 290 986 q 444 934 392 986 q 496 781 496 882 l 496 42 l 379 42 m 83 0 l 83 103 l 750 103 l 750 0 l 83 0 z "},"ĺ":{"ha":833,"x_min":83,"x_max":750,"o":"m 379 42 l 379 789 q 354 858 379 833 q 285 883 329 883 l 111 883 l 111 986 l 290 986 q 444 934 392 986 q 496 781 496 882 l 496 42 l 379 42 m 83 0 l 83 103 l 750 103 l 750 0 l 83 0 m 336 1083 l 428 1261 l 558 1261 l 433 1083 l 336 1083 z "},"ľ":{"ha":833,"x_min":83,"x_max":750,"o":"m 379 42 l 379 789 q 354 858 379 833 q 285 883 329 883 l 111 883 l 111 986 l 290 986 q 444 934 392 986 q 496 781 496 882 l 496 42 l 379 42 m 83 0 l 83 103 l 750 103 l 750 0 l 83 0 m 583 633 l 625 986 l 742 986 l 667 633 l 583 633 z "},"ļ":{"ha":833,"x_min":83,"x_max":750,"o":"m 379 42 l 379 789 q 354 858 379 833 q 285 883 329 883 l 111 883 l 111 986 l 290 986 q 444 934 392 986 q 496 781 496 882 l 496 42 l 379 42 m 83 0 l 83 103 l 750 103 l 750 0 l 83 0 m 339 -333 l 414 -200 l 367 -200 l 367 -75 l 506 -75 l 506 -194 l 417 -333 l 339 -333 z "},"ł":{"ha":833,"x_min":83,"x_max":750,"o":"m 379 42 l 379 789 q 354 858 379 833 q 285 883 329 883 l 111 883 l 111 986 l 290 986 q 444 934 392 986 q 496 781 496 882 l 496 42 l 379 42 m 83 0 l 83 103 l 750 103 l 750 0 l 83 0 m 236 422 l 236 514 l 653 681 l 653 589 l 236 422 z "},"m":{"ha":833,"x_min":56,"x_max":778,"o":"m 56 0 l 56 736 l 163 736 l 167 572 l 153 575 q 206 705 165 657 q 311 753 247 753 q 412 706 376 753 q 456 567 447 658 l 442 567 q 498 703 454 653 q 608 753 542 753 q 738 692 697 753 q 778 489 778 631 l 778 0 l 661 0 l 661 472 q 640 610 661 571 q 575 650 619 650 q 524 631 546 650 q 488 572 501 613 q 475 469 475 532 l 475 0 l 358 0 l 358 472 q 338 608 358 567 q 272 650 318 650 q 221 631 243 650 q 185 572 199 613 q 172 469 172 532 l 172 0 l 56 0 z "},"n":{"ha":833,"x_min":117,"x_max":717,"o":"m 117 0 l 117 736 l 224 736 l 228 549 l 214 561 q 265 669 228 626 q 353 732 301 711 q 461 753 404 753 q 602 715 546 753 q 688 615 658 678 q 717 474 717 551 l 717 0 l 600 0 l 600 440 q 560 597 600 543 q 436 650 519 650 q 333 626 379 650 q 260 555 288 601 q 233 440 233 508 l 233 0 l 117 0 z "},"ń":{"ha":833,"x_min":117,"x_max":717,"o":"m 117 0 l 117 736 l 224 736 l 228 549 l 214 561 q 265 669 228 626 q 353 732 301 711 q 461 753 404 753 q 602 715 546 753 q 688 615 658 678 q 717 474 717 551 l 717 0 l 600 0 l 600 440 q 560 597 600 543 q 436 650 519 650 q 333 626 379 650 q 260 555 288 601 q 233 440 233 508 l 233 0 l 117 0 m 364 833 l 456 1011 l 586 1011 l 461 833 l 364 833 z "},"ň":{"ha":833,"x_min":117,"x_max":717,"o":"m 117 0 l 117 736 l 224 736 l 228 549 l 214 561 q 265 669 228 626 q 353 732 301 711 q 461 753 404 753 q 602 715 546 753 q 688 615 658 678 q 717 474 717 551 l 717 0 l 600 0 l 600 440 q 560 597 600 543 q 436 650 519 650 q 333 626 379 650 q 260 555 288 601 q 233 440 233 508 l 233 0 l 117 0 m 222 1015 l 319 1015 l 428 876 l 406 876 l 514 1015 l 611 1015 l 482 831 l 351 831 l 222 1015 z "},"ņ":{"ha":833,"x_min":117,"x_max":717,"o":"m 117 0 l 117 736 l 224 736 l 228 549 l 214 561 q 265 669 228 626 q 353 732 301 711 q 461 753 404 753 q 602 715 546 753 q 688 615 658 678 q 717 474 717 551 l 717 0 l 600 0 l 600 440 q 560 597 600 543 q 436 650 519 650 q 333 626 379 650 q 260 555 288 601 q 233 440 233 508 l 233 0 l 117 0 m 319 -333 l 394 -200 l 347 -200 l 347 -75 l 486 -75 l 486 -194 l 397 -333 l 319 -333 z "},"ñ":{"ha":833,"x_min":117,"x_max":717,"o":"m 117 0 l 117 736 l 224 736 l 228 549 l 214 561 q 265 669 228 626 q 353 732 301 711 q 461 753 404 753 q 602 715 546 753 q 688 615 658 678 q 717 474 717 551 l 717 0 l 600 0 l 600 440 q 560 597 600 543 q 436 650 519 650 q 333 626 379 650 q 260 555 288 601 q 233 440 233 508 l 233 0 l 117 0 m 500 847 q 450 859 474 847 q 403 889 426 871 q 365 917 379 908 q 331 925 351 925 q 289 906 306 925 q 269 838 272 888 l 197 838 q 238 959 200 918 q 331 1000 275 1000 q 388 988 364 1000 q 436 956 413 975 q 474 930 458 938 q 506 922 489 922 q 546 942 532 922 q 564 1014 560 963 l 636 1014 q 596 891 632 935 q 500 847 560 847 z "},"ŋ":{"ha":833,"x_min":117,"x_max":717,"o":"m 396 -208 l 396 -106 l 511 -106 q 576 -80 553 -106 q 600 -11 600 -54 l 600 126 l 717 126 l 717 -10 q 661 -154 717 -100 q 508 -208 606 -208 l 396 -208 m 117 0 l 117 736 l 224 736 l 228 549 l 214 561 q 265 669 228 626 q 353 732 301 711 q 461 753 404 753 q 602 715 546 753 q 688 615 658 678 q 717 474 717 551 l 717 0 l 600 0 l 600 440 q 560 597 600 543 q 436 650 519 650 q 333 626 379 650 q 260 555 288 601 q 233 440 233 508 l 233 0 l 117 0 z "},"o":{"ha":833,"x_min":81,"x_max":753,"o":"m 417 -17 q 240 31 315 -17 q 122 165 164 78 q 81 368 81 251 q 122 572 81 486 q 240 706 164 658 q 417 753 315 753 q 594 706 518 753 q 711 572 669 658 q 753 368 753 486 q 711 165 753 251 q 594 31 669 78 q 417 -17 518 -17 m 417 94 q 574 167 518 94 q 631 368 631 240 q 574 569 631 496 q 417 642 518 642 q 259 569 315 642 q 203 368 203 496 q 259 167 203 240 q 417 94 315 94 z "},"ó":{"ha":833,"x_min":81,"x_max":753,"o":"m 417 -17 q 240 31 315 -17 q 122 165 164 78 q 81 368 81 251 q 122 572 81 486 q 240 706 164 658 q 417 753 315 753 q 594 706 518 753 q 711 572 669 658 q 753 368 753 486 q 711 165 753 251 q 594 31 669 78 q 417 -17 518 -17 m 417 94 q 574 167 518 94 q 631 368 631 240 q 574 569 631 496 q 417 642 518 642 q 259 569 315 642 q 203 368 203 496 q 259 167 203 240 q 417 94 315 94 m 364 833 l 456 1011 l 586 1011 l 461 833 l 364 833 z "},"ô":{"ha":833,"x_min":81,"x_max":753,"o":"m 417 -17 q 240 31 315 -17 q 122 165 164 78 q 81 368 81 251 q 122 572 81 486 q 240 706 164 658 q 417 753 315 753 q 594 706 518 753 q 711 572 669 658 q 753 368 753 486 q 711 165 753 251 q 594 31 669 78 q 417 -17 518 -17 m 417 94 q 574 167 518 94 q 631 368 631 240 q 574 569 631 496 q 417 642 518 642 q 259 569 315 642 q 203 368 203 496 q 259 167 203 240 q 417 94 315 94 m 221 831 l 350 1015 l 481 1015 l 610 831 l 513 831 l 404 969 l 426 969 l 318 831 l 221 831 z "},"ö":{"ha":833,"x_min":81,"x_max":753,"o":"m 417 -17 q 240 31 315 -17 q 122 165 164 78 q 81 368 81 251 q 122 572 81 486 q 240 706 164 658 q 417 753 315 753 q 594 706 518 753 q 711 572 669 658 q 753 368 753 486 q 711 165 753 251 q 594 31 669 78 q 417 -17 518 -17 m 417 94 q 574 167 518 94 q 631 368 631 240 q 574 569 631 496 q 417 642 518 642 q 259 569 315 642 q 203 368 203 496 q 259 167 203 240 q 417 94 315 94 m 222 851 l 222 988 l 344 988 l 344 851 l 222 851 m 489 851 l 489 988 l 611 988 l 611 851 l 489 851 z "},"ò":{"ha":833,"x_min":81,"x_max":753,"o":"m 417 -17 q 240 31 315 -17 q 122 165 164 78 q 81 368 81 251 q 122 572 81 486 q 240 706 164 658 q 417 753 315 753 q 594 706 518 753 q 711 572 669 658 q 753 368 753 486 q 711 165 753 251 q 594 31 669 78 q 417 -17 518 -17 m 417 94 q 574 167 518 94 q 631 368 631 240 q 574 569 631 496 q 417 642 518 642 q 259 569 315 642 q 203 368 203 496 q 259 167 203 240 q 417 94 315 94 m 375 833 l 250 1011 l 381 1011 l 472 833 l 375 833 z "},"ő":{"ha":833,"x_min":81,"x_max":753,"o":"m 417 -17 q 240 31 315 -17 q 122 165 164 78 q 81 368 81 251 q 122 572 81 486 q 240 706 164 658 q 417 753 315 753 q 594 706 518 753 q 711 572 669 658 q 753 368 753 486 q 711 165 753 251 q 594 31 669 78 q 417 -17 518 -17 m 417 94 q 574 167 518 94 q 631 368 631 240 q 574 569 631 496 q 417 642 518 642 q 259 569 315 642 q 203 368 203 496 q 259 167 203 240 q 417 94 315 94 m 264 831 l 356 1008 l 486 1008 l 361 831 l 264 831 m 458 831 l 550 1008 l 681 1008 l 556 831 l 458 831 z "},"ō":{"ha":833,"x_min":81,"x_max":753,"o":"m 417 -17 q 240 31 315 -17 q 122 165 164 78 q 81 368 81 251 q 122 572 81 486 q 240 706 164 658 q 417 753 315 753 q 594 706 518 753 q 711 572 669 658 q 753 368 753 486 q 711 165 753 251 q 594 31 669 78 q 417 -17 518 -17 m 417 94 q 574 167 518 94 q 631 368 631 240 q 574 569 631 496 q 417 642 518 642 q 259 569 315 642 q 203 368 203 496 q 259 167 203 240 q 417 94 315 94 m 229 868 l 229 968 l 601 968 l 601 868 l 229 868 z "},"ø":{"ha":833,"x_min":81,"x_max":753,"o":"m 417 -17 q 240 31 315 -17 q 122 165 164 78 q 81 368 81 251 q 122 572 81 486 q 240 706 164 658 q 417 753 315 753 q 594 706 518 753 q 711 572 669 658 q 753 368 753 486 q 711 165 753 251 q 594 31 669 78 q 417 -17 518 -17 m 417 94 q 574 167 518 94 q 631 368 631 240 q 574 569 631 496 q 417 642 518 642 q 259 569 315 642 q 203 368 203 496 q 259 167 203 240 q 417 94 315 94 m 111 -19 l 622 756 l 722 756 l 211 -19 l 111 -19 z "},"õ":{"ha":833,"x_min":81,"x_max":753,"o":"m 417 -17 q 240 31 315 -17 q 122 165 164 78 q 81 368 81 251 q 122 572 81 486 q 240 706 164 658 q 417 753 315 753 q 594 706 518 753 q 711 572 669 658 q 753 368 753 486 q 711 165 753 251 q 594 31 669 78 q 417 -17 518 -17 m 417 94 q 574 167 518 94 q 631 368 631 240 q 574 569 631 496 q 417 642 518 642 q 259 569 315 642 q 203 368 203 496 q 259 167 203 240 q 417 94 315 94 m 500 847 q 450 859 474 847 q 403 889 426 871 q 365 917 379 908 q 331 925 351 925 q 289 906 306 925 q 269 838 272 888 l 197 838 q 238 959 200 918 q 331 1000 275 1000 q 388 988 364 1000 q 436 956 413 975 q 474 930 458 938 q 506 922 489 922 q 546 942 532 922 q 564 1014 560 963 l 636 1014 q 596 891 632 935 q 500 847 560 847 z "},"œ":{"ha":833,"x_min":14,"x_max":821,"o":"m 594 -17 q 419 88 481 -17 q 357 368 357 193 q 419 649 357 546 q 594 753 481 753 q 719 710 668 753 q 795 586 769 668 q 821 385 821 504 l 821 332 l 475 332 q 512 156 481 218 q 594 94 543 94 q 658 123 635 94 q 694 218 681 151 l 813 208 q 737 35 786 86 q 594 -17 688 -17 m 243 -17 q 76 88 138 -17 q 14 368 14 192 q 76 649 14 546 q 243 753 138 753 q 365 706 314 753 q 444 574 417 660 q 472 368 472 488 q 444 169 472 257 q 365 33 417 82 q 243 -17 314 -17 m 243 94 q 303 127 278 94 q 341 222 328 160 q 354 368 354 283 q 341 515 354 454 q 303 609 328 576 q 243 642 278 642 q 185 608 210 642 q 147 514 160 575 q 133 368 133 453 q 147 222 133 283 q 185 128 160 161 q 243 94 210 94 m 476 435 l 700 435 q 665 590 693 539 q 588 642 636 642 q 513 590 540 642 q 476 435 485 539 z "},"p":{"ha":833,"x_min":111,"x_max":764,"o":"m 111 -208 l 111 736 l 219 736 l 222 569 l 206 578 q 298 708 233 664 q 447 753 363 753 q 627 699 557 753 q 731 557 697 644 q 764 368 764 469 q 731 179 764 267 q 627 38 697 92 q 447 -17 557 -17 q 341 3 390 -17 q 258 57 292 22 q 211 139 224 92 l 228 158 l 228 -208 l 111 -208 m 436 94 q 587 167 532 94 q 642 368 642 239 q 587 569 642 497 q 436 642 532 642 q 326 611 372 642 q 253 519 279 581 q 228 368 228 458 q 253 217 228 278 q 325 125 278 156 q 436 94 372 94 z "},"þ":{"ha":833,"x_min":111,"x_max":764,"o":"m 111 -208 l 111 986 l 231 986 l 231 582 l 215 606 q 267 683 233 650 q 347 735 300 717 q 454 753 394 753 q 629 699 561 753 q 731 557 697 644 q 764 368 764 469 q 731 179 764 267 q 629 38 697 92 q 454 -17 561 -17 q 347 1 394 -17 q 267 50 300 18 q 214 126 235 82 l 231 151 l 231 -208 l 111 -208 m 431 94 q 553 133 507 94 q 621 235 600 172 q 642 368 642 299 q 621 505 642 442 q 553 608 600 568 q 431 647 507 647 q 308 607 356 647 q 240 503 261 567 q 218 368 218 440 q 240 237 218 300 q 308 134 261 174 q 431 94 356 94 z "},"q":{"ha":833,"x_min":69,"x_max":722,"o":"m 722 -208 l 606 -208 l 606 158 l 622 139 q 576 57 610 92 q 492 3 542 22 q 386 -17 443 -17 q 206 38 276 -17 q 103 179 136 92 q 69 368 69 267 q 103 557 69 469 q 206 699 136 644 q 386 753 276 753 q 537 708 472 753 q 628 578 601 664 l 611 569 l 614 736 l 722 736 l 722 -208 m 397 94 q 509 125 463 94 q 581 217 556 156 q 606 368 606 278 q 580 519 606 458 q 508 611 554 581 q 397 642 461 642 q 247 569 301 642 q 192 368 192 497 q 247 167 192 239 q 397 94 301 94 z "},"r":{"ha":833,"x_min":125,"x_max":750,"o":"m 125 0 l 125 103 l 374 103 l 317 47 l 317 690 l 374 633 l 125 633 l 125 736 l 414 736 l 425 539 l 414 547 q 472 690 425 643 q 599 736 519 736 l 750 736 l 750 631 l 600 631 q 509 609 546 631 q 453 547 472 588 q 433 444 433 506 l 433 47 l 378 103 l 667 103 l 667 0 l 125 0 z "},"ŕ":{"ha":833,"x_min":125,"x_max":750,"o":"m 125 0 l 125 103 l 374 103 l 317 47 l 317 690 l 374 633 l 125 633 l 125 736 l 414 736 l 425 539 l 414 547 q 472 690 425 643 q 599 736 519 736 l 750 736 l 750 631 l 600 631 q 509 609 546 631 q 453 547 472 588 q 433 444 433 506 l 433 47 l 378 103 l 667 103 l 667 0 l 125 0 m 418 833 l 510 1011 l 640 1011 l 515 833 l 418 833 z "},"ř":{"ha":833,"x_min":125,"x_max":750,"o":"m 125 0 l 125 103 l 374 103 l 317 47 l 317 690 l 374 633 l 125 633 l 125 736 l 414 736 l 425 539 l 414 547 q 472 690 425 643 q 599 736 519 736 l 750 736 l 750 631 l 600 631 q 509 609 546 631 q 453 547 472 588 q 433 444 433 506 l 433 47 l 378 103 l 667 103 l 667 0 l 125 0 m 276 1015 l 374 1015 l 482 876 l 460 876 l 568 1015 l 665 1015 l 536 831 l 406 831 l 276 1015 z "},"ŗ":{"ha":833,"x_min":125,"x_max":750,"o":"m 125 0 l 125 103 l 374 103 l 317 47 l 317 690 l 374 633 l 125 633 l 125 736 l 414 736 l 425 539 l 414 547 q 472 690 425 643 q 599 736 519 736 l 750 736 l 750 631 l 600 631 q 509 609 546 631 q 453 547 472 588 q 433 444 433 506 l 433 47 l 378 103 l 667 103 l 667 0 l 125 0 m 276 -333 l 351 -200 l 304 -200 l 304 -75 l 443 -75 l 443 -194 l 354 -333 l 276 -333 z "},"s":{"ha":833,"x_min":111,"x_max":722,"o":"m 431 -17 q 265 17 335 -17 q 156 106 196 50 q 111 232 117 163 l 233 240 q 294 133 244 172 q 431 94 343 94 q 558 118 513 94 q 603 192 603 142 q 588 244 603 224 q 531 280 572 265 q 408 308 489 294 q 241 356 301 328 q 156 428 181 385 q 131 531 131 471 q 163 644 131 594 q 257 724 194 694 q 410 753 319 753 q 563 720 501 753 q 661 634 625 688 q 708 517 697 581 l 586 508 q 555 577 578 547 q 495 624 532 607 q 408 642 458 642 q 289 610 328 642 q 250 531 250 578 q 268 471 250 493 q 326 435 286 449 q 433 411 367 422 q 610 365 547 393 q 697 294 672 336 q 722 192 722 253 q 684 80 722 126 q 580 8 646 33 q 431 -17 514 -17 z "},"ś":{"ha":833,"x_min":111,"x_max":722,"o":"m 431 -17 q 265 17 335 -17 q 156 106 196 50 q 111 232 117 163 l 233 240 q 294 133 244 172 q 431 94 343 94 q 558 118 513 94 q 603 192 603 142 q 588 244 603 224 q 531 280 572 265 q 408 308 489 294 q 241 356 301 328 q 156 428 181 385 q 131 531 131 471 q 163 644 131 594 q 257 724 194 694 q 410 753 319 753 q 563 720 501 753 q 661 634 625 688 q 708 517 697 581 l 586 508 q 555 577 578 547 q 495 624 532 607 q 408 642 458 642 q 289 610 328 642 q 250 531 250 578 q 268 471 250 493 q 326 435 286 449 q 433 411 367 422 q 610 365 547 393 q 697 294 672 336 q 722 192 722 253 q 684 80 722 126 q 580 8 646 33 q 431 -17 514 -17 m 367 833 l 458 1011 l 589 1011 l 464 833 l 367 833 z "},"š":{"ha":833,"x_min":111,"x_max":722,"o":"m 431 -17 q 265 17 335 -17 q 156 106 196 50 q 111 232 117 163 l 233 240 q 294 133 244 172 q 431 94 343 94 q 558 118 513 94 q 603 192 603 142 q 588 244 603 224 q 531 280 572 265 q 408 308 489 294 q 241 356 301 328 q 156 428 181 385 q 131 531 131 471 q 163 644 131 594 q 257 724 194 694 q 410 753 319 753 q 563 720 501 753 q 661 634 625 688 q 708 517 697 581 l 586 508 q 555 577 578 547 q 495 624 532 607 q 408 642 458 642 q 289 610 328 642 q 250 531 250 578 q 268 471 250 493 q 326 435 286 449 q 433 411 367 422 q 610 365 547 393 q 697 294 672 336 q 722 192 722 253 q 684 80 722 126 q 580 8 646 33 q 431 -17 514 -17 m 225 1015 l 322 1015 l 431 876 l 408 876 l 517 1015 l 614 1015 l 485 831 l 354 831 l 225 1015 z "},"ş":{"ha":833,"x_min":111,"x_max":722,"o":"m 431 -17 q 265 17 335 -17 q 156 106 196 50 q 111 232 117 163 l 233 240 q 294 133 244 172 q 431 94 343 94 q 558 118 513 94 q 603 192 603 142 q 588 244 603 224 q 531 280 572 265 q 408 308 489 294 q 241 356 301 328 q 156 428 181 385 q 131 531 131 471 q 163 644 131 594 q 257 724 194 694 q 410 753 319 753 q 563 720 501 753 q 661 634 625 688 q 708 517 697 581 l 586 508 q 555 577 578 547 q 495 624 532 607 q 408 642 458 642 q 289 610 328 642 q 250 531 250 578 q 268 471 250 493 q 326 435 286 449 q 433 411 367 422 q 610 365 547 393 q 697 294 672 336 q 722 192 722 253 q 684 80 722 126 q 580 8 646 33 q 431 -17 514 -17 m 406 -306 q 299 -274 339 -306 q 243 -197 258 -243 l 314 -169 q 347 -214 326 -200 q 403 -228 368 -228 q 458 -213 439 -228 q 478 -172 478 -199 q 458 -128 478 -146 q 372 -111 439 -111 l 333 -69 l 386 14 l 475 14 l 428 -50 q 528 -87 496 -53 q 561 -175 561 -121 q 541 -243 561 -214 q 486 -289 521 -272 q 406 -306 451 -306 z "},"ŝ":{"ha":833,"x_min":111,"x_max":722,"o":"m 431 -17 q 265 17 335 -17 q 156 106 196 50 q 111 232 117 163 l 233 240 q 294 133 244 172 q 431 94 343 94 q 558 118 513 94 q 603 192 603 142 q 588 244 603 224 q 531 280 572 265 q 408 308 489 294 q 241 356 301 328 q 156 428 181 385 q 131 531 131 471 q 163 644 131 594 q 257 724 194 694 q 410 753 319 753 q 563 720 501 753 q 661 634 625 688 q 708 517 697 581 l 586 508 q 555 577 578 547 q 495 624 532 607 q 408 642 458 642 q 289 610 328 642 q 250 531 250 578 q 268 471 250 493 q 326 435 286 449 q 433 411 367 422 q 610 365 547 393 q 697 294 672 336 q 722 192 722 253 q 684 80 722 126 q 580 8 646 33 q 431 -17 514 -17 m 224 831 l 353 1015 l 483 1015 l 613 831 l 515 831 l 407 969 l 429 969 l 321 831 l 224 831 z "},"ș":{"ha":833,"x_min":111,"x_max":722,"o":"m 431 -17 q 265 17 335 -17 q 156 106 196 50 q 111 232 117 163 l 233 240 q 294 133 244 172 q 431 94 343 94 q 558 118 513 94 q 603 192 603 142 q 588 244 603 224 q 531 280 572 265 q 408 308 489 294 q 241 356 301 328 q 156 428 181 385 q 131 531 131 471 q 163 644 131 594 q 257 724 194 694 q 410 753 319 753 q 563 720 501 753 q 661 634 625 688 q 708 517 697 581 l 586 508 q 555 577 578 547 q 495 624 532 607 q 408 642 458 642 q 289 610 328 642 q 250 531 250 578 q 268 471 250 493 q 326 435 286 449 q 433 411 367 422 q 610 365 547 393 q 697 294 672 336 q 722 192 722 253 q 684 80 722 126 q 580 8 646 33 q 431 -17 514 -17 m 322 -333 l 397 -200 l 350 -200 l 350 -75 l 489 -75 l 489 -194 l 400 -333 l 322 -333 z "},"ß":{"ha":833,"x_min":111,"x_max":761,"o":"m 111 0 l 111 697 q 149 858 111 790 q 253 963 186 926 q 411 1000 321 1000 q 624 929 547 1000 q 700 744 700 858 q 640 590 700 650 q 482 522 581 529 l 481 546 q 627 507 564 542 q 726 414 690 472 q 761 281 761 356 q 669 75 761 150 q 411 0 578 0 l 322 0 l 322 111 l 411 111 q 580 154 521 111 q 639 286 639 197 q 612 385 639 344 q 531 448 585 426 q 397 469 478 469 l 336 469 l 336 579 l 397 579 q 532 624 483 579 q 581 742 581 668 q 539 848 581 807 q 411 889 497 889 q 278 838 328 889 q 228 697 228 788 l 228 0 l 111 0 z "},"t":{"ha":833,"x_min":69,"x_max":722,"o":"m 525 0 q 365 50 418 0 q 313 203 313 100 l 313 908 l 429 908 l 429 203 q 453 127 429 151 q 525 103 476 103 l 722 103 l 722 0 l 525 0 m 69 633 l 69 736 l 722 736 l 722 633 l 69 633 z "},"ŧ":{"ha":833,"x_min":69,"x_max":722,"o":"m 525 0 q 365 50 418 0 q 313 203 313 100 l 313 908 l 429 908 l 429 203 q 453 127 429 151 q 525 103 476 103 l 722 103 l 722 0 l 525 0 m 69 633 l 69 736 l 722 736 l 722 633 l 69 633 m 150 356 l 150 450 l 650 450 l 650 356 l 150 356 z "},"ť":{"ha":833,"x_min":69,"x_max":722,"o":"m 526 796 l 568 1149 l 685 1149 l 610 796 l 526 796 m 525 0 q 365 50 418 0 q 313 203 313 100 l 313 908 l 429 908 l 429 203 q 453 127 429 151 q 525 103 476 103 l 722 103 l 722 0 l 525 0 m 69 633 l 69 736 l 722 736 l 722 633 l 69 633 z "},"ţ":{"ha":833,"x_min":69,"x_max":722,"o":"m 525 0 q 365 50 418 0 q 313 203 313 100 l 313 908 l 429 908 l 429 203 q 453 127 429 151 q 525 103 476 103 l 722 103 l 722 0 l 525 0 m 69 633 l 69 736 l 722 736 l 722 633 l 69 633 m 486 -306 q 379 -274 419 -306 q 324 -197 339 -243 l 394 -169 q 428 -214 407 -200 q 483 -228 449 -228 q 539 -213 519 -228 q 558 -172 558 -199 q 539 -128 558 -146 q 453 -111 519 -111 l 414 -69 l 467 14 l 556 14 l 508 -50 q 609 -87 576 -53 q 642 -175 642 -121 q 622 -243 642 -214 q 567 -289 601 -272 q 486 -306 532 -306 z "},"ț":{"ha":833,"x_min":69,"x_max":722,"o":"m 525 0 q 365 50 418 0 q 313 203 313 100 l 313 908 l 429 908 l 429 203 q 453 127 429 151 q 525 103 476 103 l 722 103 l 722 0 l 525 0 m 69 633 l 69 736 l 722 736 l 722 633 l 69 633 m 403 -333 l 478 -200 l 431 -200 l 431 -75 l 569 -75 l 569 -194 l 481 -333 l 403 -333 z "},"u":{"ha":833,"x_min":125,"x_max":700,"o":"m 365 -17 q 190 58 256 -17 q 125 263 125 132 l 125 736 l 242 736 l 242 294 q 280 137 242 188 q 397 86 318 86 q 533 142 483 86 q 583 297 583 199 l 583 736 l 700 736 l 700 0 l 589 0 l 589 182 l 607 172 q 522 33 585 82 q 365 -17 460 -17 z "},"ú":{"ha":833,"x_min":125,"x_max":700,"o":"m 365 -17 q 190 58 256 -17 q 125 263 125 132 l 125 736 l 242 736 l 242 294 q 280 137 242 188 q 397 86 318 86 q 533 142 483 86 q 583 297 583 199 l 583 736 l 700 736 l 700 0 l 589 0 l 589 182 l 607 172 q 522 33 585 82 q 365 -17 460 -17 m 354 833 l 446 1011 l 576 1011 l 451 833 l 354 833 z "},"ŭ":{"ha":833,"x_min":125,"x_max":700,"o":"m 365 -17 q 190 58 256 -17 q 125 263 125 132 l 125 736 l 242 736 l 242 294 q 280 137 242 188 q 397 86 318 86 q 533 142 483 86 q 583 297 583 199 l 583 736 l 700 736 l 700 0 l 589 0 l 589 182 l 607 172 q 522 33 585 82 q 365 -17 460 -17 m 407 838 q 269 886 322 838 q 213 1015 217 935 l 293 1015 q 330 946 300 968 q 407 924 360 924 q 485 946 456 924 q 521 1015 515 968 l 601 1015 q 545 886 597 935 q 407 838 493 838 z "},"û":{"ha":833,"x_min":125,"x_max":700,"o":"m 365 -17 q 190 58 256 -17 q 125 263 125 132 l 125 736 l 242 736 l 242 294 q 280 137 242 188 q 397 86 318 86 q 533 142 483 86 q 583 297 583 199 l 583 736 l 700 736 l 700 0 l 589 0 l 589 182 l 607 172 q 522 33 585 82 q 365 -17 460 -17 m 211 831 l 340 1015 l 471 1015 l 600 831 l 503 831 l 394 969 l 417 969 l 308 831 l 211 831 z "},"ü":{"ha":833,"x_min":125,"x_max":700,"o":"m 365 -17 q 190 58 256 -17 q 125 263 125 132 l 125 736 l 242 736 l 242 294 q 280 137 242 188 q 397 86 318 86 q 533 142 483 86 q 583 297 583 199 l 583 736 l 700 736 l 700 0 l 589 0 l 589 182 l 607 172 q 522 33 585 82 q 365 -17 460 -17 m 213 851 l 213 988 l 335 988 l 335 851 l 213 851 m 479 851 l 479 988 l 601 988 l 601 851 l 479 851 z "},"ù":{"ha":833,"x_min":125,"x_max":700,"o":"m 365 -17 q 190 58 256 -17 q 125 263 125 132 l 125 736 l 242 736 l 242 294 q 280 137 242 188 q 397 86 318 86 q 533 142 483 86 q 583 297 583 199 l 583 736 l 700 736 l 700 0 l 589 0 l 589 182 l 607 172 q 522 33 585 82 q 365 -17 460 -17 m 365 833 l 240 1011 l 371 1011 l 463 833 l 365 833 z "},"ű":{"ha":833,"x_min":125,"x_max":700,"o":"m 365 -17 q 190 58 256 -17 q 125 263 125 132 l 125 736 l 242 736 l 242 294 q 280 137 242 188 q 397 86 318 86 q 533 142 483 86 q 583 297 583 199 l 583 736 l 700 736 l 700 0 l 589 0 l 589 182 l 607 172 q 522 33 585 82 q 365 -17 460 -17 m 254 831 l 346 1008 l 476 1008 l 351 831 l 254 831 m 449 831 l 540 1008 l 671 1008 l 546 831 l 449 831 z "},"ū":{"ha":833,"x_min":125,"x_max":700,"o":"m 365 -17 q 190 58 256 -17 q 125 263 125 132 l 125 736 l 242 736 l 242 294 q 280 137 242 188 q 397 86 318 86 q 533 142 483 86 q 583 297 583 199 l 583 736 l 700 736 l 700 0 l 589 0 l 589 182 l 607 172 q 522 33 585 82 q 365 -17 460 -17 m 219 868 l 219 968 l 592 968 l 592 868 l 219 868 z "},"ų":{"ha":833,"x_min":125,"x_max":747,"o":"m 365 -17 q 190 58 256 -17 q 125 263 125 132 l 125 736 l 242 736 l 242 294 q 280 137 242 188 q 397 86 318 86 q 533 142 483 86 q 583 297 583 199 l 583 736 l 700 736 l 700 0 l 589 0 l 589 182 l 607 172 q 522 33 585 82 q 365 -17 460 -17 m 628 -292 q 536 -262 569 -292 q 503 -181 503 -232 q 517 -111 503 -144 q 560 -42 531 -78 l 604 14 l 700 0 l 651 -62 q 617 -118 625 -97 q 608 -156 608 -139 q 619 -187 608 -176 q 650 -197 631 -197 q 683 -192 665 -197 q 714 -178 701 -187 l 747 -256 q 699 -282 731 -272 q 628 -292 668 -292 z "},"ů":{"ha":833,"x_min":125,"x_max":700,"o":"m 365 -17 q 190 58 256 -17 q 125 263 125 132 l 125 736 l 242 736 l 242 294 q 280 137 242 188 q 397 86 318 86 q 533 142 483 86 q 583 297 583 199 l 583 736 l 700 736 l 700 0 l 589 0 l 589 182 l 607 172 q 522 33 585 82 q 365 -17 460 -17 m 407 800 q 316 837 353 800 q 279 928 279 874 q 316 1019 279 982 q 407 1056 353 1056 q 498 1019 461 1056 q 535 928 535 982 q 498 837 535 874 q 407 800 461 800 m 407 869 q 449 886 432 869 q 465 928 465 903 q 449 969 465 953 q 407 986 432 986 q 365 969 382 986 q 349 928 349 953 q 365 886 349 903 q 407 869 382 869 z "},"ũ":{"ha":833,"x_min":125,"x_max":700,"o":"m 365 -17 q 190 58 256 -17 q 125 263 125 132 l 125 736 l 242 736 l 242 294 q 280 137 242 188 q 397 86 318 86 q 533 142 483 86 q 583 297 583 199 l 583 736 l 700 736 l 700 0 l 589 0 l 589 182 l 607 172 q 522 33 585 82 q 365 -17 460 -17 m 490 847 q 440 859 464 847 q 393 889 417 871 q 356 917 369 908 q 321 925 342 925 q 279 906 296 925 q 260 838 263 888 l 188 838 q 228 959 190 918 q 321 1000 265 1000 q 378 988 354 1000 q 426 956 403 975 q 464 930 449 938 q 496 922 479 922 q 536 942 522 922 q 554 1014 550 963 l 626 1014 q 586 891 622 935 q 490 847 550 847 z "},"v":{"ha":833,"x_min":69,"x_max":764,"o":"m 343 0 l 69 736 l 197 736 l 417 119 l 636 736 l 764 736 l 490 0 l 343 0 z "},"w":{"ha":833,"x_min":28,"x_max":806,"o":"m 174 0 l 28 736 l 156 736 l 251 122 l 360 633 l 474 633 l 582 122 l 678 736 l 806 736 l 661 0 l 514 0 l 417 464 l 319 0 l 174 0 z "},"ẃ":{"ha":833,"x_min":28,"x_max":806,"o":"m 174 0 l 28 736 l 156 736 l 251 122 l 360 633 l 474 633 l 582 122 l 678 736 l 806 736 l 661 0 l 514 0 l 417 464 l 319 0 l 174 0 m 364 833 l 456 1011 l 586 1011 l 461 833 l 364 833 z "},"ŵ":{"ha":833,"x_min":28,"x_max":806,"o":"m 174 0 l 28 736 l 156 736 l 251 122 l 360 633 l 474 633 l 582 122 l 678 736 l 806 736 l 661 0 l 514 0 l 417 464 l 319 0 l 174 0 m 221 831 l 350 1015 l 481 1015 l 610 831 l 513 831 l 404 969 l 426 969 l 318 831 l 221 831 z "},"ẅ":{"ha":833,"x_min":28,"x_max":806,"o":"m 174 0 l 28 736 l 156 736 l 251 122 l 360 633 l 474 633 l 582 122 l 678 736 l 806 736 l 661 0 l 514 0 l 417 464 l 319 0 l 174 0 m 222 851 l 222 988 l 344 988 l 344 851 l 222 851 m 489 851 l 489 988 l 611 988 l 611 851 l 489 851 z "},"ẁ":{"ha":833,"x_min":28,"x_max":806,"o":"m 174 0 l 28 736 l 156 736 l 251 122 l 360 633 l 474 633 l 582 122 l 678 736 l 806 736 l 661 0 l 514 0 l 417 464 l 319 0 l 174 0 m 375 833 l 250 1011 l 381 1011 l 472 833 l 375 833 z "},"x":{"ha":833,"x_min":75,"x_max":758,"o":"m 75 0 l 346 378 l 89 736 l 225 736 l 418 458 l 607 736 l 746 736 l 490 375 l 758 0 l 622 0 l 418 297 l 214 0 l 75 0 z "},"y":{"ha":833,"x_min":75,"x_max":764,"o":"m 192 -208 l 192 -106 l 276 -106 q 334 -94 315 -106 q 363 -56 353 -82 l 389 14 l 349 14 l 75 736 l 203 736 l 426 122 l 636 736 l 764 736 l 465 -93 q 403 -181 444 -153 q 288 -208 361 -208 l 192 -208 z "},"ý":{"ha":833,"x_min":75,"x_max":764,"o":"m 192 -208 l 192 -106 l 276 -106 q 334 -94 315 -106 q 363 -56 353 -82 l 389 14 l 349 14 l 75 736 l 203 736 l 426 122 l 636 736 l 764 736 l 465 -93 q 403 -181 444 -153 q 288 -208 361 -208 l 192 -208 m 368 833 l 460 1011 l 590 1011 l 465 833 l 368 833 z "},"ŷ":{"ha":833,"x_min":75,"x_max":764,"o":"m 192 -208 l 192 -106 l 276 -106 q 334 -94 315 -106 q 363 -56 353 -82 l 389 14 l 349 14 l 75 736 l 203 736 l 426 122 l 636 736 l 764 736 l 465 -93 q 403 -181 444 -153 q 288 -208 361 -208 l 192 -208 m 225 831 l 354 1015 l 485 1015 l 614 831 l 517 831 l 408 969 l 431 969 l 322 831 l 225 831 z "},"ÿ":{"ha":833,"x_min":75,"x_max":764,"o":"m 192 -208 l 192 -106 l 276 -106 q 334 -94 315 -106 q 363 -56 353 -82 l 389 14 l 349 14 l 75 736 l 203 736 l 426 122 l 636 736 l 764 736 l 465 -93 q 403 -181 444 -153 q 288 -208 361 -208 l 192 -208 m 226 851 l 226 988 l 349 988 l 349 851 l 226 851 m 493 851 l 493 988 l 615 988 l 615 851 l 493 851 z "},"ỳ":{"ha":833,"x_min":75,"x_max":764,"o":"m 192 -208 l 192 -106 l 276 -106 q 334 -94 315 -106 q 363 -56 353 -82 l 389 14 l 349 14 l 75 736 l 203 736 l 426 122 l 636 736 l 764 736 l 465 -93 q 403 -181 444 -153 q 288 -208 361 -208 l 192 -208 m 379 833 l 254 1011 l 385 1011 l 476 833 l 379 833 z "},"ỹ":{"ha":833,"x_min":75,"x_max":764,"o":"m 192 -208 l 192 -106 l 276 -106 q 334 -94 315 -106 q 363 -56 353 -82 l 389 14 l 349 14 l 75 736 l 203 736 l 426 122 l 636 736 l 764 736 l 465 -93 q 403 -181 444 -153 q 288 -208 361 -208 l 192 -208 m 504 847 q 454 859 478 847 q 407 889 431 871 q 369 917 383 908 q 335 925 356 925 q 293 906 310 925 q 274 838 276 888 l 201 838 q 242 959 204 918 q 335 1000 279 1000 q 392 988 368 1000 q 440 956 417 975 q 478 930 463 938 q 510 922 493 922 q 550 942 536 922 q 568 1014 564 963 l 640 1014 q 600 891 636 935 q 504 847 564 847 z "},"z":{"ha":833,"x_min":114,"x_max":719,"o":"m 114 0 l 114 117 l 581 633 l 128 633 l 128 736 l 708 736 l 708 619 l 242 103 l 719 103 l 719 0 l 114 0 z "},"ź":{"ha":833,"x_min":114,"x_max":719,"o":"m 114 0 l 114 117 l 581 633 l 128 633 l 128 736 l 708 736 l 708 619 l 242 103 l 719 103 l 719 0 l 114 0 m 365 833 l 457 1011 l 588 1011 l 463 833 l 365 833 z "},"ž":{"ha":833,"x_min":114,"x_max":719,"o":"m 114 0 l 114 117 l 581 633 l 128 633 l 128 736 l 708 736 l 708 619 l 242 103 l 719 103 l 719 0 l 114 0 m 224 1015 l 321 1015 l 429 876 l 407 876 l 515 1015 l 613 1015 l 483 831 l 353 831 l 224 1015 z "},"ż":{"ha":833,"x_min":114,"x_max":719,"o":"m 114 0 l 114 117 l 581 633 l 128 633 l 128 736 l 708 736 l 708 619 l 242 103 l 719 103 l 719 0 l 114 0 m 356 851 l 356 988 l 478 988 l 478 851 l 356 851 z "},"ꞌ":{"ha":833,"x_min":356,"x_max":478,"o":"m 375 525 l 356 797 l 356 986 l 478 986 l 478 797 l 458 525 l 375 525 z "},"ª":{"ha":833,"x_min":181,"x_max":642,"o":"m 342 522 q 225 555 269 522 q 181 647 181 588 q 219 745 181 710 q 331 794 258 781 l 485 825 q 462 896 485 872 q 399 919 439 919 q 338 901 360 919 q 308 850 315 883 l 189 856 q 256 969 201 929 q 399 1008 311 1008 q 550 959 499 1008 q 601 817 601 910 l 601 643 q 608 617 601 625 q 626 610 614 610 l 642 610 l 642 526 q 626 524 638 525 q 599 522 614 522 q 547 532 571 522 q 510 565 524 542 q 497 632 497 589 l 507 628 q 454 553 497 585 q 342 522 411 522 m 361 604 q 450 634 415 604 q 485 715 485 664 l 485 747 l 369 722 q 317 697 333 714 q 300 657 300 681 q 315 618 300 632 q 361 604 331 604 z "},"º":{"ha":833,"x_min":181,"x_max":653,"o":"m 417 522 q 244 588 308 522 q 181 765 181 654 q 244 942 181 876 q 417 1008 308 1008 q 588 942 524 1008 q 653 765 653 875 q 588 588 653 654 q 417 522 524 522 m 417 613 q 505 653 474 613 q 536 765 536 693 q 505 877 536 836 q 417 918 474 918 q 328 876 358 918 q 297 765 297 835 q 328 653 297 694 q 417 613 358 613 z "},"А":{"ha":833,"x_min":36,"x_max":797,"o":"m 36 0 l 336 986 l 497 986 l 797 0 l 669 0 l 417 878 l 164 0 l 36 0 m 188 281 l 229 397 l 604 397 l 646 281 l 188 281 z "},"Б":{"ha":833,"x_min":111,"x_max":750,"o":"m 111 0 l 111 986 l 231 986 l 231 603 l 411 603 q 590 567 514 603 q 708 463 667 531 q 750 301 750 396 q 708 140 750 207 q 590 36 667 72 q 411 0 514 0 l 111 0 m 231 117 l 397 117 q 569 165 514 117 q 625 301 625 213 q 569 439 625 392 q 397 486 514 486 l 231 486 l 231 117 m 111 869 l 111 986 l 726 986 l 726 869 l 111 869 z "},"В":{"ha":833,"x_min":125,"x_max":772,"o":"m 125 0 l 125 986 l 403 986 q 648 914 565 986 q 731 717 731 842 q 701 607 731 656 q 619 531 672 558 q 497 503 567 503 l 497 511 q 645 482 583 511 q 740 400 707 453 q 772 275 772 347 q 683 74 772 147 q 438 0 594 0 l 125 0 m 244 117 l 439 117 q 597 158 546 117 q 647 275 647 200 q 594 399 647 354 q 439 443 542 443 l 244 443 l 244 117 m 244 560 l 408 560 q 558 600 511 560 q 606 714 606 640 q 558 829 606 789 q 408 869 511 869 l 244 869 l 244 560 z "},"Г":{"ha":833,"x_min":139,"x_max":767,"o":"m 139 0 l 139 986 l 767 986 l 767 869 l 258 869 l 258 0 l 139 0 z "},"Ѓ":{"ha":833,"x_min":139,"x_max":767,"o":"m 139 0 l 139 986 l 767 986 l 767 869 l 258 869 l 258 0 l 139 0 m 400 1083 l 492 1261 l 622 1261 l 497 1083 l 400 1083 z "},"Ґ":{"ha":833,"x_min":139,"x_max":781,"o":"m 661 869 l 661 1201 l 781 1201 l 781 869 l 661 869 m 139 0 l 139 986 l 767 986 l 767 869 l 258 869 l 258 0 l 139 0 z "},"Ғ":{"ha":833,"x_min":26,"x_max":767,"o":"m 26 397 l 26 514 l 590 514 l 590 397 l 26 397 m 139 0 l 139 986 l 767 986 l 767 869 l 258 869 l 258 0 l 139 0 z "},"Д":{"ha":833,"x_min":17,"x_max":806,"o":"m 17 -208 l 17 117 l 74 117 q 154 161 126 117 q 192 300 182 206 l 264 986 l 683 986 l 683 117 l 806 117 l 806 -208 l 686 -208 l 686 0 l 136 0 l 136 -208 l 17 -208 m 256 117 l 564 117 l 564 869 l 374 869 l 311 286 q 292 189 306 231 q 256 117 278 147 z "},"Е":{"ha":833,"x_min":125,"x_max":736,"o":"m 125 0 l 125 986 l 725 986 l 725 869 l 244 869 l 244 551 l 708 551 l 708 438 l 244 438 l 244 117 l 736 117 l 736 0 l 125 0 z "},"Ѐ":{"ha":833,"x_min":125,"x_max":736,"o":"m 125 0 l 125 986 l 725 986 l 725 869 l 244 869 l 244 551 l 708 551 l 708 438 l 244 438 l 244 117 l 736 117 l 736 0 l 125 0 m 400 1085 l 275 1263 l 406 1263 l 497 1085 l 400 1085 z "},"Ё":{"ha":833,"x_min":125,"x_max":736,"o":"m 125 0 l 125 986 l 725 986 l 725 869 l 244 869 l 244 551 l 708 551 l 708 438 l 244 438 l 244 117 l 736 117 l 736 0 l 125 0 m 247 1103 l 247 1239 l 369 1239 l 369 1103 l 247 1103 m 514 1103 l 514 1239 l 636 1239 l 636 1103 l 514 1103 z "},"Ж":{"ha":833,"x_min":10,"x_max":824,"o":"m 694 0 l 463 493 l 681 986 l 810 986 l 592 493 l 824 0 l 694 0 m 10 0 l 242 493 l 24 986 l 153 986 l 371 493 l 139 0 l 10 0 m 357 0 l 357 986 l 476 986 l 476 0 l 357 0 z "},"З":{"ha":833,"x_min":46,"x_max":785,"o":"m 417 -22 q 233 13 315 -22 q 100 111 150 49 q 46 254 50 174 l 169 263 q 246 140 176 186 q 417 94 315 94 q 544 117 489 94 q 630 182 599 140 q 661 281 661 224 q 626 388 661 347 q 540 449 592 429 q 436 467 488 468 l 333 465 l 333 583 l 436 582 q 520 597 476 582 q 595 650 564 613 q 626 751 626 688 q 568 854 626 817 q 417 892 510 892 q 274 857 332 892 q 207 763 217 822 l 82 771 q 138 894 92 840 q 257 978 185 947 q 417 1008 329 1008 q 588 976 513 1008 q 708 885 664 943 q 751 751 751 828 q 725 642 751 689 q 647 565 699 596 q 519 521 596 535 l 521 544 q 665 492 606 529 q 754 398 724 454 q 785 271 785 342 q 737 119 785 185 q 606 15 689 53 q 417 -22 522 -22 z "},"И":{"ha":833,"x_min":97,"x_max":736,"o":"m 736 0 l 617 0 l 617 907 l 638 901 l 267 0 l 97 0 l 97 986 l 217 986 l 217 81 l 196 85 l 567 986 l 736 986 l 736 0 z "},"Й":{"ha":833,"x_min":97,"x_max":736,"o":"m 736 0 l 617 0 l 617 907 l 638 901 l 267 0 l 97 0 l 97 986 l 217 986 l 217 81 l 196 85 l 567 986 l 736 986 l 736 0 m 417 1088 q 279 1136 332 1088 q 222 1265 226 1185 l 303 1265 q 340 1196 310 1218 q 417 1174 369 1174 q 495 1196 465 1174 q 531 1265 525 1218 l 611 1265 q 555 1136 607 1185 q 417 1088 503 1088 z "},"Ѝ":{"ha":833,"x_min":97,"x_max":736,"o":"m 736 0 l 617 0 l 617 907 l 638 901 l 267 0 l 97 0 l 97 986 l 217 986 l 217 81 l 196 85 l 567 986 l 736 986 l 736 0 m 375 1083 l 250 1261 l 381 1261 l 472 1083 l 375 1083 z "},"К":{"ha":833,"x_min":81,"x_max":785,"o":"m 628 0 l 190 493 l 614 986 l 771 986 l 344 493 l 785 0 l 628 0 m 81 0 l 81 986 l 200 986 l 200 0 l 81 0 z "},"Ќ":{"ha":833,"x_min":81,"x_max":785,"o":"m 628 0 l 190 493 l 614 986 l 771 986 l 344 493 l 785 0 l 628 0 m 81 0 l 81 986 l 200 986 l 200 0 l 81 0 m 356 1083 l 447 1261 l 578 1261 l 453 1083 l 356 1083 z "},"Л":{"ha":833,"x_min":28,"x_max":760,"o":"m 28 0 l 28 117 l 108 117 q 166 144 146 117 q 190 218 186 172 l 254 986 l 760 986 l 760 0 l 640 0 l 640 869 l 367 869 l 311 204 q 261 56 304 111 q 126 0 218 0 l 28 0 z "},"М":{"ha":833,"x_min":69,"x_max":764,"o":"m 364 111 l 178 875 l 189 875 l 189 0 l 69 0 l 69 986 l 250 986 l 444 175 l 389 175 l 583 986 l 764 986 l 764 0 l 644 0 l 644 875 l 656 875 l 469 111 l 364 111 z "},"Н":{"ha":833,"x_min":83,"x_max":750,"o":"m 83 0 l 83 986 l 203 986 l 203 507 l 142 554 l 692 554 l 631 507 l 631 986 l 750 986 l 750 0 l 631 0 l 631 485 l 692 438 l 142 438 l 203 485 l 203 0 l 83 0 z "},"О":{"ha":833,"x_min":53,"x_max":781,"o":"m 417 -22 q 219 38 300 -22 q 95 213 138 97 q 53 492 53 328 q 95 774 53 658 q 219 949 138 889 q 417 1008 300 1008 q 615 949 533 1008 q 738 774 696 889 q 781 492 781 658 q 738 213 781 328 q 615 38 696 97 q 417 -22 533 -22 m 417 94 q 547 140 493 94 q 628 274 600 185 q 656 492 656 363 q 628 710 656 621 q 547 846 600 800 q 417 892 493 892 q 287 846 340 892 q 206 710 233 800 q 178 492 178 621 q 206 274 178 363 q 287 140 233 185 q 417 94 340 94 z "},"П":{"ha":833,"x_min":97,"x_max":736,"o":"m 97 0 l 97 986 l 736 986 l 736 0 l 617 0 l 617 869 l 217 869 l 217 0 l 97 0 z "},"Р":{"ha":833,"x_min":125,"x_max":764,"o":"m 125 0 l 125 986 l 425 986 q 604 950 528 986 q 722 847 681 914 q 764 685 764 779 q 722 523 764 590 q 604 419 681 456 q 425 383 528 383 l 244 383 l 244 0 l 125 0 m 244 500 l 411 500 q 583 548 528 500 q 639 685 639 596 q 583 822 639 775 q 411 869 528 869 l 244 869 l 244 500 z "},"С":{"ha":833,"x_min":53,"x_max":772,"o":"m 419 -22 q 219 40 301 -22 q 95 218 138 103 q 53 492 53 333 q 95 767 53 651 q 219 945 138 882 q 419 1008 301 1008 q 642 923 550 1008 q 764 685 733 838 l 636 676 q 555 838 613 783 q 419 892 497 892 q 287 845 340 892 q 206 709 233 799 q 178 492 178 619 q 206 276 178 365 q 287 141 233 188 q 419 94 340 94 q 565 154 506 94 q 646 332 625 214 l 772 325 q 653 70 746 163 q 419 -22 560 -22 z "},"Т":{"ha":833,"x_min":56,"x_max":778,"o":"m 357 0 l 357 869 l 56 869 l 56 986 l 778 986 l 778 869 l 476 869 l 476 0 l 357 0 z "},"У":{"ha":833,"x_min":72,"x_max":769,"o":"m 196 0 l 196 117 l 281 117 q 326 128 308 117 q 353 168 343 140 l 388 264 l 340 264 l 72 986 l 204 986 l 425 375 l 639 986 l 769 986 l 456 115 q 394 28 435 56 q 292 0 354 0 l 196 0 z "},"Ў":{"ha":833,"x_min":72,"x_max":769,"o":"m 196 0 l 196 117 l 281 117 q 326 128 308 117 q 353 168 343 140 l 388 264 l 340 264 l 72 986 l 204 986 l 425 375 l 639 986 l 769 986 l 456 115 q 394 28 435 56 q 292 0 354 0 l 196 0 m 422 1088 q 285 1136 338 1088 q 228 1265 232 1185 l 308 1265 q 345 1196 315 1218 q 422 1174 375 1174 q 501 1196 471 1174 q 536 1265 531 1218 l 617 1265 q 560 1136 613 1185 q 422 1088 508 1088 z "},"Ф":{"ha":833,"x_min":35,"x_max":799,"o":"m 415 101 q 213 149 299 101 q 81 285 128 197 q 35 493 35 374 q 81 701 35 614 q 213 837 128 789 q 415 885 299 885 q 619 837 533 885 q 752 701 706 789 q 799 493 799 614 q 752 285 799 374 q 619 149 706 197 q 415 101 533 101 m 417 218 q 605 292 536 218 q 674 493 674 367 q 605 694 674 621 q 417 768 536 768 q 229 694 299 768 q 160 493 160 621 q 229 292 160 367 q 417 218 299 218 m 356 0 l 356 986 l 475 986 l 475 0 l 356 0 z "},"Х":{"ha":833,"x_min":69,"x_max":764,"o":"m 69 0 l 342 496 l 75 986 l 214 986 l 418 590 l 622 986 l 758 986 l 492 494 l 764 0 l 625 0 l 415 401 l 206 0 l 69 0 z "},"Ц":{"ha":833,"x_min":83,"x_max":813,"o":"m 693 -208 l 693 0 l 474 0 l 474 117 l 813 117 l 813 -208 l 693 -208 m 83 986 l 203 986 l 203 117 l 603 117 l 603 986 l 722 986 l 722 0 l 83 0 l 83 986 z "},"Ч":{"ha":833,"x_min":69,"x_max":736,"o":"m 617 0 l 617 510 l 636 550 q 597 439 636 489 q 495 360 558 389 q 356 331 432 331 q 206 369 271 331 q 106 481 142 408 q 69 650 69 553 l 69 986 l 189 986 l 189 650 q 236 502 189 557 q 356 447 283 447 q 490 474 431 447 q 583 546 549 500 q 617 651 617 592 l 617 986 l 736 986 l 736 0 l 617 0 z "},"Ш":{"ha":833,"x_min":76,"x_max":757,"o":"m 638 0 l 638 986 l 757 986 l 757 0 l 638 0 m 76 0 l 76 117 l 757 117 l 757 0 l 76 0 m 76 0 l 76 986 l 196 986 l 196 0 l 76 0 m 357 0 l 357 986 l 476 986 l 476 0 l 357 0 z "},"Щ":{"ha":833,"x_min":49,"x_max":813,"o":"m 693 -208 l 693 0 l 578 0 l 578 117 l 813 117 l 813 -208 l 693 -208 m 610 0 l 610 986 l 729 986 l 729 0 l 610 0 m 49 0 l 49 117 l 729 117 l 729 0 l 49 0 m 49 0 l 49 986 l 168 986 l 168 0 l 49 0 m 329 0 l 329 986 l 449 986 l 449 0 l 329 0 z "},"Џ":{"ha":833,"x_min":97,"x_max":736,"o":"m 357 -208 l 357 44 l 476 44 l 476 -208 l 357 -208 m 97 986 l 217 986 l 217 117 l 617 117 l 617 986 l 736 986 l 736 0 l 97 0 l 97 986 z "},"Ь":{"ha":833,"x_min":125,"x_max":764,"o":"m 125 986 l 244 986 l 244 603 l 425 603 q 604 567 528 603 q 722 463 681 531 q 764 301 764 396 q 722 140 764 207 q 604 36 681 72 q 425 0 528 0 l 125 0 l 125 986 m 244 486 l 244 117 l 411 117 q 583 165 528 117 q 639 301 639 213 q 583 439 639 392 q 411 486 528 486 l 244 486 z "},"Ы":{"ha":833,"x_min":49,"x_max":785,"o":"m 49 0 l 49 986 l 169 986 l 169 603 l 236 603 q 493 522 401 603 q 585 299 585 442 q 493 79 585 158 q 236 0 401 0 l 49 0 m 169 117 l 236 117 q 404 163 349 117 q 460 299 460 208 q 404 439 460 392 q 236 486 349 486 l 169 486 l 169 117 m 665 0 l 665 986 l 785 986 l 785 0 l 665 0 z "},"Ъ":{"ha":833,"x_min":42,"x_max":788,"o":"m 42 869 l 42 986 l 269 986 l 269 869 l 42 869 m 149 986 l 268 986 l 268 603 l 449 603 q 628 567 551 603 q 746 463 704 531 q 788 301 788 396 q 746 140 788 207 q 628 36 704 72 q 449 0 551 0 l 149 0 l 149 986 m 268 486 l 268 117 l 435 117 q 607 165 551 117 q 663 301 663 213 q 607 439 663 392 q 435 486 551 486 l 268 486 z "},"Љ":{"ha":833,"x_min":7,"x_max":826,"o":"m 7 0 l 7 117 l 46 117 q 105 144 83 117 q 128 218 126 172 l 164 986 l 507 986 l 508 603 l 547 603 q 753 522 681 603 q 826 299 826 442 q 753 79 826 158 q 547 0 681 0 l 388 0 l 388 869 l 276 869 l 249 204 q 226 97 246 143 q 165 25 206 50 q 64 0 125 0 l 7 0 m 508 117 l 535 117 q 653 163 617 117 q 689 299 689 208 q 653 439 689 392 q 535 486 617 486 l 508 486 l 508 117 z "},"Њ":{"ha":833,"x_min":28,"x_max":806,"o":"m 311 0 l 311 986 l 432 986 l 432 603 l 485 603 q 728 522 650 603 q 806 299 806 442 q 728 79 806 158 q 485 0 650 0 l 311 0 m 28 0 l 28 986 l 147 986 l 147 0 l 28 0 m 108 486 l 108 603 l 394 603 l 394 486 l 108 486 m 432 117 l 472 117 q 626 163 585 117 q 668 299 668 208 q 626 439 668 392 q 472 486 585 486 l 432 486 l 432 117 z "},"Ѕ":{"ha":833,"x_min":61,"x_max":772,"o":"m 432 -22 q 247 21 328 -22 q 118 140 167 64 q 61 315 69 215 l 186 324 q 228 199 196 250 q 313 121 261 147 q 435 94 365 94 q 551 112 504 94 q 623 163 599 129 q 647 244 647 197 q 626 327 647 292 q 545 393 604 363 q 371 456 486 424 q 205 519 268 485 q 113 604 142 554 q 85 728 85 654 q 124 874 85 811 q 238 973 164 938 q 413 1008 311 1008 q 586 967 514 1008 q 701 856 658 926 q 754 694 743 785 l 629 686 q 594 792 621 746 q 522 865 568 839 q 410 892 476 892 q 264 848 318 892 q 210 733 210 804 q 230 658 210 688 q 301 605 250 628 q 446 556 353 582 q 638 481 567 522 q 741 381 710 439 q 772 242 772 324 q 729 104 772 164 q 610 11 686 44 q 432 -22 533 -22 z "},"Є":{"ha":833,"x_min":53,"x_max":771,"o":"m 417 -22 q 219 38 300 -22 q 95 213 138 97 q 53 492 53 328 q 95 774 53 658 q 219 949 138 889 q 417 1008 300 1008 q 654 914 564 1008 q 771 642 744 819 l 643 642 q 565 827 622 763 q 417 892 507 892 q 287 845 340 892 q 206 709 233 799 q 178 492 178 619 q 206 276 178 365 q 287 141 233 188 q 417 94 340 94 q 565 159 507 94 q 644 344 622 224 l 771 344 q 654 73 744 168 q 417 -22 564 -22 m 479 433 l 92 433 l 92 550 l 479 550 l 479 433 z "},"Э":{"ha":833,"x_min":63,"x_max":781,"o":"m 417 -22 q 179 73 269 -22 q 63 344 89 168 l 189 344 q 269 159 211 224 q 417 94 328 94 q 547 141 493 94 q 628 276 600 188 q 656 492 656 365 q 628 709 656 619 q 547 845 600 799 q 417 892 493 892 q 269 827 328 892 q 190 642 211 763 l 63 642 q 180 914 90 819 q 417 1008 269 1008 q 615 949 533 1008 q 738 774 696 889 q 781 492 781 658 q 738 213 781 328 q 615 38 696 97 q 417 -22 533 -22 m 354 433 l 354 550 l 742 550 l 742 433 l 354 433 z "},"І":{"ha":833,"x_min":111,"x_max":722,"o":"m 111 0 l 111 117 l 357 117 l 357 869 l 111 869 l 111 986 l 722 986 l 722 869 l 476 869 l 476 117 l 722 117 l 722 0 l 111 0 z "},"Ї":{"ha":833,"x_min":111,"x_max":722,"o":"m 111 0 l 111 117 l 357 117 l 357 869 l 111 869 l 111 986 l 722 986 l 722 869 l 476 869 l 476 117 l 722 117 l 722 0 l 111 0 m 222 1101 l 222 1238 l 344 1238 l 344 1101 l 222 1101 m 489 1101 l 489 1238 l 611 1238 l 611 1101 l 489 1101 z "},"Ј":{"ha":833,"x_min":56,"x_max":708,"o":"m 382 -22 q 213 19 285 -22 q 99 138 140 61 q 56 319 58 215 l 172 331 q 228 153 176 211 q 382 94 279 94 q 537 153 485 94 q 589 331 589 213 l 589 986 l 708 986 l 708 331 q 621 72 708 167 q 382 -22 533 -22 z "},"Ћ":{"ha":833,"x_min":7,"x_max":792,"o":"m 167 0 l 167 869 l 7 869 l 7 986 l 489 986 l 489 869 l 286 869 l 286 468 l 274 490 q 319 575 286 538 q 401 634 353 613 q 506 656 450 656 q 655 617 590 656 q 756 506 719 578 q 792 336 792 435 l 792 0 l 672 0 l 672 336 q 622 483 672 426 q 492 539 571 539 q 385 513 432 539 q 313 440 339 486 q 286 335 286 394 l 286 0 l 167 0 z "},"Ю":{"ha":833,"x_min":28,"x_max":806,"o":"m 536 -22 q 333 101 397 -22 q 268 492 268 224 q 333 885 268 761 q 536 1008 397 1008 q 741 885 676 1008 q 806 492 806 761 q 741 101 806 224 q 536 -22 676 -22 m 28 0 l 28 986 l 147 986 l 147 0 l 28 0 m 108 435 l 108 551 l 371 551 l 371 435 l 108 435 m 536 94 q 647 185 614 94 q 681 492 681 276 q 647 800 681 708 q 536 892 614 892 q 427 800 460 892 q 394 492 394 708 q 427 185 394 276 q 536 94 460 94 z "},"Я":{"ha":833,"x_min":61,"x_max":736,"o":"m 736 0 l 617 0 l 617 397 l 413 397 l 193 0 l 61 0 l 300 421 q 144 519 199 454 q 89 688 89 585 q 129 849 89 782 q 244 951 169 915 q 422 986 319 986 l 736 986 l 736 0 m 617 514 l 617 869 l 422 869 q 264 823 314 869 q 214 690 214 776 q 263 560 214 606 q 422 514 313 514 l 617 514 z "},"Ђ":{"ha":833,"x_min":7,"x_max":819,"o":"m 167 0 l 167 869 l 7 869 l 7 986 l 489 986 l 489 869 l 286 869 l 286 469 l 274 489 q 319 576 288 539 q 396 635 350 614 q 496 656 442 656 q 663 615 590 656 q 778 501 736 574 q 819 332 819 428 q 771 156 819 231 q 633 40 722 81 q 422 0 544 0 l 422 117 q 622 175 550 117 q 694 332 694 233 q 640 483 694 428 q 496 539 586 539 q 387 513 435 539 q 313 440 339 486 q 286 335 286 394 l 286 0 l 167 0 z "},"Ѣ":{"ha":833,"x_min":21,"x_max":797,"o":"m 21 736 l 21 853 l 506 853 l 506 736 l 21 736 m 158 986 l 278 986 l 278 603 l 458 603 q 638 567 561 603 q 756 463 714 531 q 797 301 797 396 q 756 140 797 207 q 638 36 714 72 q 458 0 561 0 l 158 0 l 158 986 m 278 486 l 278 117 l 444 117 q 617 165 561 117 q 672 301 672 213 q 617 439 672 392 q 444 486 561 486 l 278 486 z "},"Ѫ":{"ha":833,"x_min":1,"x_max":832,"o":"m 1 0 l 146 401 q 212 507 172 474 q 297 540 251 540 l 535 540 q 621 507 582 540 q 686 401 660 474 l 832 0 l 704 0 l 582 344 q 548 407 565 390 q 506 424 531 424 l 328 424 q 283 407 301 424 q 250 344 265 390 l 129 0 l 1 0 m 357 0 l 357 540 l 476 540 l 476 0 l 357 0 m 361 426 l 89 869 l 228 869 l 500 426 l 361 426 m 333 426 l 606 869 l 744 869 l 472 426 l 333 426 m 89 869 l 89 986 l 744 986 l 744 869 l 89 869 z "},"Ѳ":{"ha":833,"x_min":53,"x_max":781,"o":"m 132 464 l 132 589 q 160 595 146 593 q 189 599 175 597 q 289 596 233 604 q 389 569 344 588 q 490 532 451 546 q 554 512 529 518 q 599 505 579 506 q 642 507 618 504 q 717 525 683 511 l 717 401 q 685 393 701 396 q 654 388 669 390 q 598 388 625 385 q 526 404 571 390 q 399 449 482 418 q 297 476 350 468 q 203 481 243 485 q 167 475 185 479 q 132 464 149 471 m 417 -22 q 219 38 300 -22 q 95 213 138 97 q 53 492 53 328 q 95 774 53 658 q 219 949 138 889 q 417 1008 300 1008 q 615 949 533 1008 q 738 774 696 889 q 781 492 781 658 q 738 213 781 328 q 615 38 696 97 q 417 -22 533 -22 m 417 94 q 547 140 493 94 q 628 274 600 185 q 656 492 656 363 q 628 710 656 621 q 547 846 600 800 q 417 892 493 892 q 287 846 340 892 q 206 710 233 800 q 178 492 178 621 q 206 274 178 363 q 287 140 233 185 q 417 94 340 94 z "},"Ѵ":{"ha":833,"x_min":19,"x_max":826,"o":"m 324 0 l 19 986 l 146 986 l 424 74 l 358 74 l 579 807 q 653 938 604 889 q 763 986 703 986 l 826 986 l 826 869 l 807 869 q 735 842 763 869 q 686 742 708 815 l 458 0 l 324 0 z "},"Җ":{"ha":833,"x_min":10,"x_max":819,"o":"m 700 -208 l 700 97 l 819 97 l 819 -208 l 700 -208 m 667 0 l 444 493 l 653 986 l 778 986 l 568 493 l 790 0 l 667 0 m 10 0 l 232 493 l 22 986 l 147 986 l 356 493 l 133 0 l 10 0 m 343 0 l 343 986 l 457 986 l 457 0 l 343 0 z "},"Қ":{"ha":833,"x_min":67,"x_max":799,"o":"m 679 -208 l 679 18 l 679 97 l 799 97 l 799 -208 l 679 -208 m 614 0 l 176 493 l 600 986 l 757 986 l 331 493 l 771 0 l 614 0 m 67 0 l 67 986 l 186 986 l 186 0 l 67 0 z "},"Ң":{"ha":833,"x_min":63,"x_max":813,"o":"m 693 -208 l 693 97 l 813 97 l 813 -208 l 693 -208 m 63 0 l 63 986 l 182 986 l 182 507 l 121 554 l 671 554 l 610 507 l 610 986 l 729 986 l 729 0 l 610 0 l 610 485 l 671 438 l 121 438 l 182 485 l 182 0 l 63 0 z "},"Ү":{"ha":833,"x_min":56,"x_max":778,"o":"m 358 0 l 358 403 l 56 986 l 192 986 l 417 525 l 642 986 l 778 986 l 478 403 l 478 0 l 358 0 z "},"Ұ":{"ha":833,"x_min":54,"x_max":776,"o":"m 121 318 l 121 435 l 710 435 l 710 318 l 121 318 m 357 0 l 357 403 l 54 986 l 190 986 l 415 525 l 640 986 l 776 986 l 476 403 l 476 0 l 357 0 z "},"Ҳ":{"ha":833,"x_min":69,"x_max":806,"o":"m 686 -208 l 686 97 l 806 97 l 806 -208 l 686 -208 m 69 0 l 342 496 l 75 986 l 214 986 l 418 590 l 622 986 l 758 986 l 492 494 l 764 0 l 625 0 l 415 401 l 206 0 l 69 0 z "},"Ҷ":{"ha":833,"x_min":49,"x_max":813,"o":"m 693 -208 l 693 97 l 813 97 l 813 -208 l 693 -208 m 596 0 l 596 510 l 615 550 q 576 439 615 489 q 474 360 538 389 q 335 331 411 331 q 185 369 250 331 q 85 481 121 408 q 49 650 49 553 l 49 986 l 168 986 l 168 650 q 215 502 168 557 q 335 447 263 447 q 469 474 410 447 q 562 546 528 500 q 596 651 596 592 l 596 986 l 715 986 l 715 0 l 596 0 z "},"Һ":{"ha":833,"x_min":97,"x_max":764,"o":"m 217 986 l 217 476 l 197 436 q 236 547 197 497 q 339 626 275 597 q 478 656 403 656 q 627 617 563 656 q 728 506 692 578 q 764 336 764 435 l 764 0 l 644 0 l 644 336 q 597 485 644 431 q 478 539 550 539 q 344 513 404 539 q 251 440 285 486 q 217 335 217 394 l 217 0 l 97 0 l 97 986 l 217 986 z "},"Ӏ":{"ha":833,"x_min":111,"x_max":722,"o":"m 111 0 l 111 117 l 357 117 l 357 869 l 111 869 l 111 986 l 722 986 l 722 869 l 476 869 l 476 117 l 722 117 l 722 0 l 111 0 z "},"Ә":{"ha":833,"x_min":53,"x_max":794,"o":"m 428 -22 q 226 41 310 -22 q 97 217 142 104 q 53 476 53 329 l 53 542 l 668 542 q 638 726 668 647 q 553 848 608 804 q 419 892 497 892 q 281 834 335 892 q 203 681 226 776 l 72 692 q 149 863 100 792 q 264 971 197 933 q 414 1008 331 1008 q 619 949 535 1008 q 749 774 704 889 q 794 493 794 658 q 748 219 794 335 q 619 40 701 103 q 428 -22 536 -22 m 428 94 q 555 134 501 94 q 638 248 608 174 q 667 425 667 322 l 182 425 q 212 248 182 322 q 297 134 242 174 q 428 94 351 94 z "},"Ӣ":{"ha":833,"x_min":97,"x_max":736,"o":"m 736 0 l 617 0 l 617 907 l 638 901 l 267 0 l 97 0 l 97 986 l 217 986 l 217 81 l 196 85 l 567 986 l 736 986 l 736 0 m 229 1118 l 229 1218 l 601 1218 l 601 1118 l 229 1118 z "},"Ө":{"ha":833,"x_min":53,"x_max":781,"o":"m 74 435 l 74 551 l 732 551 l 732 435 l 74 435 m 417 -22 q 219 38 300 -22 q 95 213 138 97 q 53 492 53 328 q 95 774 53 658 q 219 949 138 889 q 417 1008 300 1008 q 615 949 533 1008 q 738 774 696 889 q 781 492 781 658 q 738 213 781 328 q 615 38 696 97 q 417 -22 533 -22 m 417 94 q 547 140 493 94 q 628 274 600 185 q 656 492 656 363 q 628 710 656 621 q 547 846 600 800 q 417 892 493 892 q 287 846 340 892 q 206 710 233 800 q 178 492 178 621 q 206 274 178 363 q 287 140 233 185 q 417 94 340 94 z "},"Ӯ":{"ha":833,"x_min":72,"x_max":769,"o":"m 196 0 l 196 117 l 281 117 q 326 128 308 117 q 353 168 343 140 l 388 264 l 340 264 l 72 986 l 204 986 l 425 375 l 639 986 l 769 986 l 456 115 q 394 28 435 56 q 292 0 354 0 l 196 0 m 235 1118 l 235 1218 l 607 1218 l 607 1118 l 235 1118 z "},"а":{"ha":833,"x_min":75,"x_max":764,"o":"m 319 -17 q 194 8 250 -17 q 107 78 139 33 q 75 183 75 124 q 131 330 75 278 q 308 406 188 382 l 556 456 q 513 596 556 550 q 392 642 471 642 q 272 608 315 642 q 213 510 229 574 l 89 519 q 188 688 110 624 q 392 753 267 753 q 599 673 525 753 q 672 453 672 593 l 672 147 q 683 113 672 122 q 717 103 694 103 l 764 103 l 764 0 q 738 -2 756 -1 q 703 -3 719 -3 q 623 13 656 -3 q 574 62 590 28 q 556 150 557 96 l 578 150 q 531 65 568 103 q 439 5 494 26 q 319 -17 383 -17 m 331 86 q 456 112 406 86 q 531 184 506 138 q 556 292 556 231 l 556 356 l 331 311 q 226 269 256 297 q 197 194 197 240 q 233 115 197 143 q 331 86 268 86 z "},"б":{"ha":833,"x_min":81,"x_max":751,"o":"m 417 -22 q 296 3 353 -22 q 186 85 239 28 q 107 229 133 138 q 81 435 81 321 q 106 658 81 569 q 183 805 131 747 q 321 901 236 863 q 394 944 368 924 q 432 990 421 964 q 443 1056 443 1017 l 563 1057 q 528 919 563 976 q 410 817 494 861 q 328 772 367 794 q 260 716 290 750 q 215 625 231 682 q 201 475 199 568 l 178 478 q 238 583 201 540 q 324 649 274 626 q 438 672 375 672 q 600 628 529 672 q 711 507 671 585 q 751 328 751 429 q 708 142 751 221 q 588 20 664 63 q 417 -22 513 -22 m 417 89 q 527 119 479 89 q 602 204 575 150 q 629 328 629 258 q 603 449 629 397 q 531 531 576 501 q 424 561 485 561 q 313 531 361 561 q 237 449 264 501 q 208 328 210 397 q 233 204 207 258 q 307 119 260 150 q 417 89 354 89 z "},"в":{"ha":833,"x_min":125,"x_max":739,"o":"m 125 0 l 125 736 l 431 736 q 633 681 558 736 q 708 532 708 626 q 654 419 708 461 q 506 378 600 378 l 506 383 q 676 336 613 383 q 739 208 739 289 q 667 56 739 113 q 471 0 594 0 l 125 0 m 242 103 l 471 103 q 575 132 536 103 q 614 208 614 161 q 575 292 614 261 q 471 322 536 322 l 242 322 l 242 103 m 242 425 l 431 425 q 542 454 500 425 q 583 532 583 483 q 542 606 583 579 q 431 633 500 633 l 242 633 l 242 425 z "},"г":{"ha":833,"x_min":207,"x_max":722,"o":"m 207 0 l 207 736 l 722 736 l 722 633 l 267 633 l 324 681 l 324 0 l 207 0 z "},"ѓ":{"ha":833,"x_min":207,"x_max":722,"o":"m 207 0 l 207 736 l 722 736 l 722 633 l 267 633 l 324 681 l 324 0 l 207 0 m 413 833 l 504 1011 l 635 1011 l 510 833 l 413 833 z "},"ґ":{"ha":833,"x_min":207,"x_max":722,"o":"m 603 633 l 603 951 l 722 951 l 722 633 l 603 633 m 207 0 l 207 736 l 722 736 l 722 633 l 267 633 l 324 681 l 324 0 l 207 0 z "},"ғ":{"ha":833,"x_min":57,"x_max":722,"o":"m 57 322 l 57 425 l 482 425 l 482 322 l 57 322 m 207 0 l 207 736 l 722 736 l 722 633 l 267 633 l 324 681 l 324 0 l 207 0 z "},"д":{"ha":833,"x_min":28,"x_max":806,"o":"m 28 32 l 28 103 l 93 103 q 162 135 138 103 q 196 236 186 168 l 263 736 l 686 736 l 686 0 l 569 0 l 569 633 l 368 633 l 310 225 q 244 78 296 125 q 93 32 192 32 l 28 32 m 28 -208 l 28 93 l 144 93 l 144 -208 l 28 -208 m 28 0 l 28 103 l 760 103 l 760 0 l 28 0 m 689 -208 l 689 103 l 806 103 l 806 -208 l 689 -208 z "},"е":{"ha":833,"x_min":92,"x_max":750,"o":"m 429 -17 q 249 31 325 -17 q 133 165 174 78 q 92 368 92 251 q 133 571 92 485 q 248 705 174 657 q 424 753 322 753 q 593 708 519 753 q 708 576 667 663 q 750 367 750 490 l 750 332 l 214 332 q 277 154 221 214 q 429 94 333 94 q 548 128 501 94 q 613 218 594 163 l 738 208 q 627 47 708 110 q 429 -17 546 -17 m 214 435 l 622 435 q 560 592 614 542 q 424 642 506 642 q 284 590 339 642 q 214 435 229 538 z "},"ѐ":{"ha":833,"x_min":92,"x_max":750,"o":"m 429 -17 q 249 31 325 -17 q 133 165 174 78 q 92 368 92 251 q 133 571 92 485 q 248 705 174 657 q 424 753 322 753 q 593 708 519 753 q 708 576 667 663 q 750 367 750 490 l 750 332 l 214 332 q 277 154 221 214 q 429 94 333 94 q 548 128 501 94 q 613 218 594 163 l 738 208 q 627 47 708 110 q 429 -17 546 -17 m 214 435 l 622 435 q 560 592 614 542 q 424 642 506 642 q 284 590 339 642 q 214 435 229 538 m 383 831 l 258 1008 l 389 1008 l 481 831 l 383 831 z "},"ё":{"ha":833,"x_min":92,"x_max":750,"o":"m 429 -17 q 249 31 325 -17 q 133 165 174 78 q 92 368 92 251 q 133 571 92 485 q 248 705 174 657 q 424 753 322 753 q 593 708 519 753 q 708 576 667 663 q 750 367 750 490 l 750 332 l 214 332 q 277 154 221 214 q 429 94 333 94 q 548 128 501 94 q 613 218 594 163 l 738 208 q 627 47 708 110 q 429 -17 546 -17 m 214 435 l 622 435 q 560 592 614 542 q 424 642 506 642 q 284 590 339 642 q 214 435 229 538 m 231 849 l 231 985 l 353 985 l 353 849 l 231 849 m 497 849 l 497 985 l 619 985 l 619 849 l 497 849 z "},"ж":{"ha":833,"x_min":15,"x_max":818,"o":"m 685 0 l 467 368 l 676 736 l 810 736 l 600 368 l 818 0 l 685 0 m 15 0 l 233 368 l 24 736 l 157 736 l 367 368 l 149 0 l 15 0 m 358 0 l 358 736 l 475 736 l 475 0 l 358 0 z "},"з":{"ha":833,"x_min":111,"x_max":715,"o":"m 414 -17 q 258 10 325 -17 q 153 88 190 38 q 111 206 115 138 l 233 211 q 286 126 238 158 q 414 94 335 94 q 544 125 496 94 q 593 207 593 156 q 548 302 593 268 q 428 335 503 336 l 351 333 l 351 444 l 428 443 q 530 470 492 442 q 568 546 568 499 q 526 616 568 590 q 414 642 485 642 q 310 618 350 642 q 264 554 269 594 l 138 561 q 223 701 149 650 q 414 753 297 753 q 616 697 542 753 q 690 546 690 642 q 640 444 690 486 q 501 386 589 401 l 503 404 q 658 333 601 388 q 715 200 715 278 q 634 42 715 100 q 414 -17 553 -17 z "},"и":{"ha":833,"x_min":131,"x_max":704,"o":"m 131 0 l 131 736 l 247 736 l 247 178 l 567 736 l 704 736 l 704 0 l 588 0 l 588 547 l 275 0 l 131 0 z "},"й":{"ha":833,"x_min":131,"x_max":704,"o":"m 131 0 l 131 736 l 247 736 l 247 178 l 567 736 l 704 736 l 704 0 l 588 0 l 588 547 l 275 0 l 131 0 m 418 838 q 281 886 333 838 q 224 1015 228 935 l 304 1015 q 341 946 311 968 q 418 924 371 924 q 497 946 467 924 q 532 1015 526 968 l 613 1015 q 556 886 608 935 q 418 838 504 838 z "},"ѝ":{"ha":833,"x_min":131,"x_max":704,"o":"m 131 0 l 131 736 l 247 736 l 247 178 l 567 736 l 704 736 l 704 0 l 588 0 l 588 547 l 275 0 l 131 0 m 376 833 l 251 1011 l 382 1011 l 474 833 l 376 833 z "},"к":{"ha":833,"x_min":126,"x_max":772,"o":"m 606 0 l 236 368 l 592 736 l 756 736 l 393 368 l 772 0 l 606 0 m 126 0 l 126 736 l 246 736 l 246 0 l 126 0 z "},"ќ":{"ha":833,"x_min":126,"x_max":772,"o":"m 606 0 l 236 368 l 592 736 l 756 736 l 393 368 l 772 0 l 606 0 m 126 0 l 126 736 l 246 736 l 246 0 l 126 0 m 365 833 l 457 1011 l 588 1011 l 463 833 l 365 833 z "},"л":{"ha":833,"x_min":35,"x_max":736,"o":"m 35 0 l 35 117 l 103 117 q 158 142 138 117 q 183 217 178 168 l 239 736 l 736 736 l 736 0 l 619 0 l 619 633 l 346 633 l 300 204 q 246 51 290 103 q 119 0 201 0 l 35 0 z "},"м":{"ha":833,"x_min":50,"x_max":783,"o":"m 50 0 l 64 736 l 218 736 l 425 143 l 631 736 l 783 736 l 783 0 l 667 0 l 667 479 l 497 0 l 351 0 l 178 486 l 167 0 l 50 0 z "},"н":{"ha":833,"x_min":126,"x_max":707,"o":"m 126 0 l 126 736 l 243 736 l 243 0 l 126 0 m 129 315 l 129 418 l 706 418 l 706 315 l 129 315 m 590 0 l 590 736 l 707 736 l 707 0 l 590 0 z "},"о":{"ha":833,"x_min":81,"x_max":753,"o":"m 417 -17 q 240 31 315 -17 q 122 165 164 78 q 81 368 81 251 q 122 572 81 486 q 240 706 164 658 q 417 753 315 753 q 594 706 518 753 q 711 572 669 658 q 753 368 753 486 q 711 165 753 251 q 594 31 669 78 q 417 -17 518 -17 m 417 94 q 574 167 518 94 q 631 368 631 240 q 574 569 631 496 q 417 642 518 642 q 259 569 315 642 q 203 368 203 496 q 259 167 203 240 q 417 94 315 94 z "},"п":{"ha":833,"x_min":125,"x_max":708,"o":"m 125 0 l 125 736 l 708 736 l 708 0 l 592 0 l 592 633 l 242 633 l 242 0 l 125 0 z "},"р":{"ha":833,"x_min":111,"x_max":764,"o":"m 111 -208 l 111 736 l 219 736 l 222 569 l 206 578 q 298 708 233 664 q 447 753 363 753 q 627 699 557 753 q 731 557 697 644 q 764 368 764 469 q 731 179 764 267 q 627 38 697 92 q 447 -17 557 -17 q 341 3 390 -17 q 258 57 292 22 q 211 139 224 92 l 228 158 l 228 -208 l 111 -208 m 436 94 q 587 167 532 94 q 642 368 642 239 q 587 569 642 497 q 436 642 532 642 q 326 611 372 642 q 253 519 279 581 q 228 368 228 458 q 253 217 228 278 q 325 125 278 156 q 436 94 372 94 z "},"с":{"ha":833,"x_min":97,"x_max":750,"o":"m 436 -17 q 257 31 333 -17 q 139 165 181 78 q 97 368 97 251 q 139 571 97 485 q 257 705 181 657 q 436 753 333 753 q 582 723 518 753 q 688 636 646 693 q 744 497 729 579 l 622 489 q 556 602 606 563 q 436 642 507 642 q 277 569 335 642 q 219 368 219 496 q 277 167 219 240 q 436 94 335 94 q 559 136 507 94 q 628 261 611 178 l 750 253 q 692 110 735 171 q 583 17 649 50 q 436 -17 518 -17 z "},"т":{"ha":833,"x_min":93,"x_max":742,"o":"m 358 0 l 358 633 l 93 633 l 93 736 l 742 736 l 742 633 l 476 633 l 476 0 l 358 0 z "},"у":{"ha":833,"x_min":75,"x_max":764,"o":"m 192 -208 l 192 -106 l 276 -106 q 334 -94 315 -106 q 363 -56 353 -82 l 389 14 l 349 14 l 75 736 l 203 736 l 426 122 l 636 736 l 764 736 l 465 -93 q 403 -181 444 -153 q 288 -208 361 -208 l 192 -208 z "},"ў":{"ha":833,"x_min":75,"x_max":764,"o":"m 192 -208 l 192 -106 l 276 -106 q 334 -94 315 -106 q 363 -56 353 -82 l 389 14 l 349 14 l 75 736 l 203 736 l 426 122 l 636 736 l 764 736 l 465 -93 q 403 -181 444 -153 q 288 -208 361 -208 l 192 -208 m 421 838 q 283 886 336 838 q 226 1015 231 935 l 307 1015 q 344 946 314 968 q 421 924 374 924 q 499 946 469 924 q 535 1015 529 968 l 615 1015 q 559 886 611 935 q 421 838 507 838 z "},"ф":{"ha":833,"x_min":32,"x_max":800,"o":"m 415 35 q 217 78 303 35 q 81 197 131 121 q 32 372 32 274 q 81 548 32 472 q 217 667 131 624 q 415 710 303 710 q 615 667 529 710 q 751 548 701 624 q 800 372 800 472 q 751 197 800 274 q 615 78 701 121 q 415 35 529 35 m 415 151 q 605 211 535 151 q 675 372 675 271 q 605 533 675 474 q 415 593 535 593 q 227 533 297 593 q 157 372 157 474 q 227 211 157 271 q 415 151 297 151 m 358 -208 l 358 986 l 476 986 l 476 -208 l 358 -208 z "},"х":{"ha":833,"x_min":75,"x_max":758,"o":"m 75 0 l 346 378 l 89 736 l 225 736 l 418 458 l 607 736 l 746 736 l 490 375 l 758 0 l 622 0 l 418 297 l 214 0 l 75 0 z "},"ц":{"ha":833,"x_min":125,"x_max":811,"o":"m 694 -208 l 694 0 l 563 0 l 563 103 l 811 103 l 811 -208 l 694 -208 m 125 736 l 242 736 l 242 103 l 592 103 l 592 736 l 708 736 l 708 0 l 125 0 l 125 736 z "},"ч":{"ha":833,"x_min":96,"x_max":708,"o":"m 592 0 l 592 399 l 608 439 q 577 328 608 378 q 493 249 546 278 q 375 219 440 219 q 172 306 247 219 q 96 539 96 392 l 96 736 l 213 736 l 213 539 q 257 387 213 443 q 375 331 301 331 q 490 356 442 331 q 565 429 539 382 q 592 540 592 476 l 592 736 l 708 736 l 708 0 l 592 0 z "},"ш":{"ha":833,"x_min":78,"x_max":754,"o":"m 78 0 l 78 736 l 194 736 l 194 0 l 78 0 m 78 0 l 78 103 l 754 103 l 754 0 l 78 0 m 357 0 l 357 736 l 475 736 l 475 0 l 357 0 m 638 0 l 638 736 l 754 736 l 754 0 l 638 0 z "},"щ":{"ha":833,"x_min":78,"x_max":819,"o":"m 703 -208 l 703 0 l 571 0 l 571 89 l 661 89 l 661 103 l 819 103 l 819 -208 l 703 -208 m 78 0 l 78 736 l 194 736 l 194 0 l 78 0 m 78 0 l 78 103 l 754 103 l 754 0 l 78 0 m 357 0 l 357 736 l 475 736 l 475 0 l 357 0 m 638 0 l 638 736 l 754 736 l 754 0 l 638 0 z "},"џ":{"ha":833,"x_min":125,"x_max":708,"o":"m 358 -208 l 358 40 l 475 40 l 475 -208 l 358 -208 m 125 736 l 242 736 l 242 103 l 592 103 l 592 736 l 708 736 l 708 0 l 125 0 l 125 736 z "},"ь":{"ha":833,"x_min":113,"x_max":746,"o":"m 113 0 l 113 736 l 229 736 l 229 465 l 424 465 q 663 405 579 465 q 746 232 746 344 q 663 60 746 121 q 424 0 579 0 l 113 0 m 229 104 l 424 104 q 574 136 524 104 q 624 232 624 168 q 574 330 624 297 q 424 363 524 363 l 229 363 l 229 104 z "},"ы":{"ha":833,"x_min":49,"x_max":785,"o":"m 49 0 l 49 736 l 165 736 l 165 465 l 275 465 q 514 405 431 465 q 597 232 597 344 q 514 60 597 121 q 275 0 431 0 l 49 0 m 165 104 l 275 104 q 425 136 375 104 q 475 232 475 168 q 425 330 475 297 q 275 363 375 363 l 165 363 l 165 104 m 668 0 l 668 736 l 785 736 l 785 0 l 668 0 z "},"ъ":{"ha":833,"x_min":14,"x_max":767,"o":"m 14 633 l 14 736 l 232 736 l 232 633 l 14 633 m 133 0 l 133 736 l 250 736 l 250 465 l 444 465 q 683 405 600 465 q 767 232 767 344 q 683 60 767 121 q 444 0 600 0 l 133 0 m 250 104 l 444 104 q 594 136 544 104 q 644 232 644 168 q 594 330 644 297 q 444 363 544 363 l 250 363 l 250 104 z "},"љ":{"ha":833,"x_min":7,"x_max":826,"o":"m 7 0 l 7 117 l 19 117 q 74 142 54 117 q 100 217 94 168 l 156 736 l 496 736 l 496 465 l 574 465 q 761 405 696 465 q 826 232 826 344 q 761 60 826 121 q 574 0 696 0 l 378 0 l 378 633 l 263 633 l 217 204 q 163 51 207 103 q 36 0 118 0 l 7 0 m 496 104 l 574 104 q 670 138 636 104 q 704 232 704 171 q 670 328 704 294 q 574 363 636 363 l 496 363 l 496 104 z "},"њ":{"ha":833,"x_min":28,"x_max":813,"o":"m 364 0 l 364 736 l 481 736 l 481 465 l 560 465 q 747 405 682 465 q 813 232 813 344 q 747 60 813 121 q 560 0 682 0 l 364 0 m 28 0 l 28 736 l 144 736 l 144 0 l 28 0 m 46 363 l 46 465 l 451 465 l 451 363 l 46 363 m 481 104 l 560 104 q 656 138 622 104 q 690 232 690 171 q 656 328 690 294 q 560 363 622 363 l 481 363 l 481 104 z "},"ѕ":{"ha":833,"x_min":111,"x_max":722,"o":"m 431 -17 q 265 17 335 -17 q 156 106 196 50 q 111 232 117 163 l 233 240 q 294 133 244 172 q 431 94 343 94 q 558 118 513 94 q 603 192 603 142 q 588 244 603 224 q 531 280 572 265 q 408 308 489 294 q 241 356 301 328 q 156 428 181 385 q 131 531 131 471 q 163 644 131 594 q 257 724 194 694 q 410 753 319 753 q 563 720 501 753 q 661 634 625 688 q 708 517 697 581 l 586 508 q 555 577 578 547 q 495 624 532 607 q 408 642 458 642 q 289 610 328 642 q 250 531 250 578 q 268 471 250 493 q 326 435 286 449 q 433 411 367 422 q 610 365 547 393 q 697 294 672 336 q 722 192 722 253 q 684 80 722 126 q 580 8 646 33 q 431 -17 514 -17 z "},"є":{"ha":833,"x_min":85,"x_max":747,"o":"m 422 -17 q 244 31 321 -17 q 126 165 168 78 q 85 368 85 251 q 126 572 85 486 q 244 706 168 658 q 422 753 321 753 q 574 719 507 753 q 685 625 640 686 q 747 479 729 564 l 622 479 q 550 599 601 557 q 422 642 499 642 q 264 569 321 642 q 207 368 207 496 q 264 167 207 240 q 422 94 321 94 q 549 136 497 94 q 621 253 600 178 l 746 253 q 683 108 728 168 q 572 16 639 49 q 422 -17 506 -17 m 456 317 l 128 317 l 128 419 l 456 419 l 456 317 z "},"э":{"ha":833,"x_min":86,"x_max":749,"o":"m 411 -17 q 261 16 328 -17 q 150 108 194 49 q 88 253 106 168 l 213 253 q 285 136 233 178 q 411 94 336 94 q 570 167 514 94 q 626 368 626 240 q 570 569 626 496 q 411 642 514 642 q 283 599 335 642 q 211 479 232 557 l 86 479 q 149 625 104 564 q 260 719 193 686 q 411 753 328 753 q 590 706 514 753 q 707 572 665 658 q 749 368 749 486 q 707 165 749 251 q 590 31 665 78 q 411 -17 514 -17 m 378 317 l 378 419 l 706 419 l 706 317 l 378 317 z "},"і":{"ha":833,"x_min":111,"x_max":778,"o":"m 111 0 l 111 103 l 407 103 l 407 690 l 464 633 l 125 633 l 125 736 l 524 736 l 524 103 l 778 103 l 778 0 l 524 0 l 407 0 l 111 0 m 396 851 l 396 988 l 518 988 l 518 851 l 396 851 z "},"ї":{"ha":833,"x_min":111,"x_max":778,"o":"m 111 0 l 111 103 l 407 103 l 407 690 l 464 633 l 125 633 l 125 736 l 524 736 l 524 103 l 778 103 l 778 0 l 524 0 l 407 0 l 111 0 m 264 851 l 264 988 l 386 988 l 386 851 l 264 851 m 531 851 l 531 988 l 653 988 l 653 851 l 531 851 z "},"ј":{"ha":833,"x_min":153,"x_max":611,"o":"m 153 -208 l 153 -106 l 386 -106 q 467 -82 440 -106 q 494 8 494 -58 l 494 690 l 551 633 l 167 633 l 167 736 l 611 736 l 611 0 q 561 -155 611 -101 q 400 -208 511 -208 l 153 -208 m 488 851 l 488 988 l 610 988 l 610 851 l 488 851 z "},"ћ":{"ha":833,"x_min":50,"x_max":722,"o":"m 139 0 l 139 986 l 256 986 l 256 574 l 242 576 q 289 676 256 638 q 371 734 322 715 q 476 753 419 753 q 610 717 556 753 q 694 619 665 682 q 722 474 722 556 l 722 0 l 606 0 l 606 440 q 567 599 606 547 q 451 650 529 650 q 309 596 363 650 q 256 439 256 542 l 256 0 l 139 0 m 50 808 l 50 903 l 467 903 l 467 808 l 50 808 z "},"ю":{"ha":833,"x_min":28,"x_max":792,"o":"m 508 -17 q 355 28 418 -17 q 259 158 292 72 q 226 368 226 244 q 259 578 226 492 q 355 708 292 664 q 508 753 418 753 q 663 708 600 753 q 759 578 726 664 q 792 368 792 492 q 759 158 792 244 q 663 28 726 72 q 508 -17 600 -17 m 28 0 l 28 736 l 144 736 l 144 0 l 28 0 m 50 317 l 50 419 l 269 419 l 269 317 l 50 317 m 508 94 q 628 166 586 94 q 669 368 669 238 q 628 571 669 500 q 508 642 586 642 q 390 571 432 642 q 349 368 349 500 q 390 166 349 238 q 508 94 432 94 z "},"я":{"ha":833,"x_min":113,"x_max":708,"o":"m 113 0 l 292 306 q 167 389 211 335 q 124 514 124 443 q 200 678 124 621 q 418 736 276 736 l 708 736 l 708 0 l 592 0 l 592 285 l 417 285 l 249 0 l 113 0 m 418 388 l 592 388 l 592 635 l 418 635 q 293 603 338 635 q 249 511 249 571 q 293 419 249 451 q 418 388 338 388 z "},"ђ":{"ha":833,"x_min":35,"x_max":717,"o":"m 132 0 l 132 986 l 249 986 l 249 574 l 232 594 q 284 685 249 650 q 367 736 319 719 q 468 753 415 753 q 600 719 544 753 q 686 622 656 685 q 717 474 717 560 l 717 0 l 600 0 l 600 432 q 561 590 600 538 q 443 642 522 642 q 302 588 356 642 q 249 432 249 535 l 249 0 l 132 0 m 460 -208 l 460 -106 l 517 -106 q 561 -93 543 -106 q 590 -58 579 -81 q 600 -4 600 -35 l 600 339 l 717 339 l 717 -4 q 670 -153 717 -97 q 531 -208 624 -208 l 460 -208 m 35 811 l 35 914 l 388 914 l 388 811 l 35 811 z "},"ѣ":{"ha":833,"x_min":14,"x_max":811,"o":"m 178 0 l 178 986 l 294 986 l 294 493 l 489 493 q 728 429 644 493 q 811 246 811 365 q 728 64 811 128 q 489 0 644 0 l 178 0 m 294 104 l 489 104 q 637 141 585 104 q 689 246 689 178 q 637 353 689 315 q 489 390 585 390 l 294 390 l 294 104 m 14 736 l 14 853 l 457 853 l 457 736 l 14 736 z "},"ѫ":{"ha":833,"x_min":19,"x_max":814,"o":"m 19 0 l 135 299 q 203 378 156 353 q 300 403 250 403 l 533 403 q 631 378 583 403 q 699 299 678 353 l 814 0 l 681 0 l 596 246 q 560 292 583 282 q 506 303 538 303 l 326 303 q 273 292 296 303 q 238 246 250 282 l 153 0 l 19 0 m 357 0 l 357 403 l 476 403 l 476 0 l 357 0 m 344 331 l 60 633 l 201 633 l 486 331 l 344 331 m 349 331 l 633 633 l 775 633 l 490 331 l 349 331 m 60 633 l 60 736 l 775 736 l 775 633 l 60 633 z "},"ѳ":{"ha":833,"x_min":81,"x_max":753,"o":"m 103 292 l 97 410 q 154 443 125 431 q 217 457 183 456 q 299 453 253 460 q 382 428 344 446 q 467 391 435 404 q 519 372 499 378 q 555 366 539 367 q 590 365 571 365 q 651 381 622 367 q 706 421 679 394 l 710 306 q 656 275 683 288 q 601 263 629 263 q 554 265 576 263 q 495 281 532 268 q 390 324 458 293 q 306 350 350 343 q 228 356 261 357 q 162 337 193 354 q 103 292 131 319 m 417 -17 q 240 31 315 -17 q 122 165 164 78 q 81 368 81 251 q 122 572 81 486 q 240 706 164 658 q 417 753 315 753 q 594 706 518 753 q 711 572 669 658 q 753 368 753 486 q 711 165 753 251 q 594 31 669 78 q 417 -17 518 -17 m 417 94 q 574 167 518 94 q 631 368 631 240 q 574 569 631 496 q 417 642 518 642 q 259 569 315 642 q 203 368 203 496 q 259 167 203 240 q 417 94 315 94 z "},"ѵ":{"ha":833,"x_min":51,"x_max":806,"o":"m 319 0 l 51 736 l 176 736 l 393 122 l 550 569 q 636 693 578 650 q 774 736 694 736 l 806 736 l 806 633 l 792 633 q 712 608 744 633 q 660 531 679 582 l 467 0 l 319 0 z "},"җ":{"ha":833,"x_min":15,"x_max":819,"o":"m 703 -208 l 703 19 l 703 103 l 819 103 l 819 -208 l 703 -208 m 685 0 l 467 368 l 676 736 l 810 736 l 600 368 l 818 0 l 685 0 m 15 0 l 233 368 l 24 736 l 157 736 l 367 368 l 149 0 l 15 0 m 358 0 l 358 736 l 475 736 l 475 0 l 358 0 z "},"қ":{"ha":833,"x_min":125,"x_max":778,"o":"m 661 -208 l 661 38 l 661 103 l 778 103 l 778 -208 l 661 -208 m 604 0 l 235 368 l 590 736 l 754 736 l 392 368 l 771 0 l 604 0 m 125 0 l 125 736 l 244 736 l 244 0 l 125 0 z "},"ң":{"ha":833,"x_min":126,"x_max":803,"o":"m 686 -208 l 686 103 l 803 103 l 803 -208 l 686 -208 m 126 0 l 126 736 l 243 736 l 243 0 l 126 0 m 129 315 l 129 418 l 706 418 l 706 315 l 129 315 m 590 0 l 590 736 l 707 736 l 707 0 l 590 0 z "},"ү":{"ha":833,"x_min":75,"x_max":758,"o":"m 358 0 l 75 736 l 200 736 l 417 140 l 633 736 l 758 736 l 475 0 l 358 0 m 358 -208 l 358 65 l 475 65 l 475 -208 l 358 -208 z "},"ұ":{"ha":833,"x_min":75,"x_max":758,"o":"m 194 -51 l 194 51 l 638 51 l 638 -51 l 194 -51 m 358 0 l 75 736 l 200 736 l 417 140 l 633 736 l 758 736 l 475 0 l 358 0 m 358 -208 l 358 65 l 475 65 l 475 -208 l 358 -208 z "},"ҳ":{"ha":833,"x_min":75,"x_max":790,"o":"m 674 -208 l 674 103 l 790 103 l 790 -208 l 674 -208 m 75 0 l 346 378 l 89 736 l 225 736 l 418 458 l 607 736 l 746 736 l 490 375 l 758 0 l 622 0 l 418 297 l 214 0 l 75 0 z "},"ҷ":{"ha":833,"x_min":96,"x_max":804,"o":"m 688 -208 l 688 103 l 804 103 l 804 -208 l 688 -208 m 592 0 l 592 399 l 608 439 q 577 328 608 378 q 493 249 546 278 q 375 219 440 219 q 172 306 247 219 q 96 539 96 392 l 96 736 l 213 736 l 213 539 q 257 387 213 443 q 375 331 301 331 q 490 356 442 331 q 565 429 539 382 q 592 540 592 476 l 592 736 l 708 736 l 708 0 l 592 0 z "},"һ":{"ha":833,"x_min":139,"x_max":722,"o":"m 139 0 l 139 986 l 256 986 l 256 574 l 242 576 q 289 676 256 638 q 371 734 322 715 q 476 753 419 753 q 610 717 556 753 q 694 619 665 682 q 722 474 722 556 l 722 0 l 606 0 l 606 440 q 567 599 606 547 q 451 650 529 650 q 309 596 363 650 q 256 439 256 542 l 256 0 l 139 0 z "},"ӏ":{"ha":833,"x_min":111,"x_max":722,"o":"m 111 0 l 111 117 l 357 117 l 357 869 l 111 869 l 111 986 l 722 986 l 722 869 l 476 869 l 476 117 l 722 117 l 722 0 l 111 0 z "},"ә":{"ha":833,"x_min":83,"x_max":742,"o":"m 404 753 q 584 705 508 753 q 701 571 660 657 q 742 368 742 485 q 701 165 742 251 q 585 31 660 78 q 410 -17 511 -17 q 240 28 314 -17 q 125 160 167 74 q 83 369 83 246 l 83 404 l 619 404 q 557 583 614 524 q 404 642 500 642 q 286 608 332 642 q 221 518 240 575 l 96 528 q 206 690 125 626 q 404 753 288 753 m 619 301 l 211 301 q 274 145 219 196 q 410 94 329 94 q 551 147 496 94 q 619 301 606 200 z "},"ӣ":{"ha":833,"x_min":131,"x_max":704,"o":"m 131 0 l 131 736 l 247 736 l 247 178 l 567 736 l 704 736 l 704 0 l 588 0 l 588 547 l 275 0 l 131 0 m 231 868 l 231 968 l 603 968 l 603 868 l 231 868 z "},"ө":{"ha":833,"x_min":81,"x_max":753,"o":"m 133 317 l 133 419 l 671 419 l 671 317 l 133 317 m 417 -17 q 240 31 315 -17 q 122 165 164 78 q 81 368 81 251 q 122 572 81 486 q 240 706 164 658 q 417 753 315 753 q 594 706 518 753 q 711 572 669 658 q 753 368 753 486 q 711 165 753 251 q 594 31 669 78 q 417 -17 518 -17 m 417 94 q 574 167 518 94 q 631 368 631 240 q 574 569 631 496 q 417 642 518 642 q 259 569 315 642 q 203 368 203 496 q 259 167 203 240 q 417 94 315 94 z "},"ӯ":{"ha":833,"x_min":75,"x_max":764,"o":"m 192 -208 l 192 -106 l 276 -106 q 334 -94 315 -106 q 363 -56 353 -82 l 389 14 l 349 14 l 75 736 l 203 736 l 426 122 l 636 736 l 764 736 l 465 -93 q 403 -181 444 -153 q 288 -208 361 -208 l 192 -208 m 233 868 l 233 968 l 606 968 l 606 868 l 233 868 z "},"Λ":{"ha":833,"x_min":36,"x_max":797,"o":"m 36 0 l 336 986 l 497 986 l 797 0 l 675 0 l 417 882 l 158 0 l 36 0 z "},"Ω":{"ha":833,"x_min":13,"x_max":821,"o":"m 15 0 l 15 117 l 199 117 q 102 216 144 154 q 36 353 60 278 q 13 506 13 429 q 64 767 13 654 q 207 944 115 881 q 417 1008 299 1008 q 627 944 536 1008 q 769 767 718 881 q 821 506 821 654 q 797 353 821 429 q 732 216 774 278 q 635 117 690 154 l 818 117 l 818 0 l 472 0 l 472 117 q 560 147 519 117 q 631 231 600 178 q 678 354 661 283 q 696 506 696 425 q 660 706 696 619 q 562 842 625 793 q 417 892 499 892 q 272 842 335 892 q 173 706 208 793 q 138 506 138 619 q 155 354 138 425 q 203 231 172 283 q 274 147 233 178 q 361 117 314 117 l 361 0 l 15 0 z "},"λ":{"ha":833,"x_min":82,"x_max":764,"o":"m 717 0 q 622 17 660 0 q 558 76 583 35 q 510 186 532 117 l 319 806 q 290 863 308 843 q 233 883 271 883 l 146 883 l 146 986 l 224 986 q 360 944 311 986 q 440 800 410 901 l 631 181 q 649 139 639 157 q 674 112 658 121 q 715 103 690 103 l 764 103 l 764 0 l 717 0 m 82 0 l 371 736 l 453 649 l 204 0 l 82 0 z "},"π":{"ha":833,"x_min":22,"x_max":808,"o":"m 763 0 q 600 56 650 0 q 550 203 550 111 l 550 696 l 667 696 l 667 203 q 691 129 667 156 q 761 103 715 103 l 806 103 l 806 0 l 763 0 m 171 0 l 171 692 l 288 692 l 288 0 l 171 0 m 22 633 l 22 736 l 808 736 l 808 633 l 22 633 z "},"ℇ":{"ha":833,"x_min":71,"x_max":781,"o":"m 426 -22 q 240 15 321 -22 q 115 119 160 53 q 71 271 71 185 q 100 398 71 342 q 186 492 129 454 q 328 544 243 529 l 329 521 q 204 565 254 535 q 129 642 154 594 q 104 751 104 689 q 145 885 104 828 q 258 976 186 943 q 426 1008 331 1008 q 549 991 488 1008 q 663 944 610 974 q 749 875 715 914 l 671 779 q 559 864 628 831 q 426 897 490 897 q 320 879 365 897 q 251 828 275 861 q 226 751 226 796 q 257 649 226 688 q 334 594 288 611 q 426 578 381 578 l 501 579 l 501 469 l 426 471 q 303 449 356 472 q 222 382 251 425 q 193 281 193 339 q 222 181 193 224 q 303 113 251 138 q 426 89 356 89 q 526 106 474 89 q 625 152 578 122 q 706 221 672 182 l 781 122 q 688 48 744 81 q 563 -3 631 15 q 426 -22 496 -22 z "},"⓿":{"ha":833,"x_min":19,"x_max":814,"o":"m 418 211 q 576 286 517 211 q 635 492 635 361 q 576 697 635 622 q 418 771 517 771 q 260 697 319 771 q 201 492 201 622 q 261 286 201 361 q 418 211 321 211 m 418 294 q 354 318 382 294 l 528 601 q 543 492 543 556 q 511 344 543 394 q 418 294 479 294 m 310 386 q 297 435 301 408 q 293 492 293 461 q 325 639 293 590 q 418 688 357 688 q 482 668 454 688 l 310 386 m 417 -22 q 206 40 294 -22 q 68 219 117 103 q 19 493 19 335 q 68 767 19 651 q 206 945 117 882 q 417 1008 294 1008 q 628 945 539 1008 q 765 767 717 882 q 814 493 814 651 q 765 219 814 335 q 628 40 717 103 q 417 -22 539 -22 z "},"❶":{"ha":833,"x_min":19,"x_max":814,"o":"m 397 222 l 489 222 l 489 761 l 421 761 q 390 674 421 706 q 297 643 358 643 l 264 643 l 264 574 l 397 575 l 397 222 m 417 -22 q 206 40 294 -22 q 68 219 117 103 q 19 493 19 335 q 68 767 19 651 q 206 945 117 882 q 417 1008 294 1008 q 628 945 539 1008 q 765 767 717 882 q 814 493 814 651 q 765 219 814 335 q 628 40 717 103 q 417 -22 539 -22 z "},"❷":{"ha":833,"x_min":19,"x_max":814,"o":"m 232 222 l 599 222 l 599 303 l 335 303 q 353 359 335 331 q 414 410 372 388 l 471 440 q 568 510 532 472 q 604 615 604 549 q 557 728 604 685 q 429 771 510 771 q 291 723 340 771 q 233 596 242 675 l 322 592 q 354 666 329 642 q 429 690 379 690 q 488 671 463 690 q 513 615 513 651 q 506 572 513 589 q 483 541 499 554 q 442 513 468 528 l 369 472 q 279 403 308 439 q 241 324 250 367 q 232 222 232 281 m 417 -22 q 206 40 294 -22 q 68 219 117 103 q 19 493 19 335 q 68 767 19 651 q 206 945 117 882 q 417 1008 294 1008 q 628 945 539 1008 q 765 767 717 882 q 814 493 814 651 q 765 219 814 335 q 628 40 717 103 q 417 -22 539 -22 z "},"❸":{"ha":833,"x_min":19,"x_max":814,"o":"m 418 211 q 558 255 501 211 q 614 375 614 299 q 589 457 614 421 q 494 510 564 493 q 563 550 539 524 q 588 624 588 576 q 543 730 588 689 q 411 771 499 771 q 285 729 331 771 q 231 626 239 688 l 319 621 q 345 669 322 649 q 411 689 368 689 q 476 668 456 689 q 497 615 497 647 q 474 563 497 581 q 411 544 450 544 l 376 544 l 376 465 l 411 465 q 497 441 471 465 q 524 376 524 417 q 497 315 524 338 q 418 292 469 292 q 338 313 363 292 q 311 367 314 333 l 222 363 q 268 254 226 297 q 418 211 310 211 m 417 -22 q 206 40 294 -22 q 68 219 117 103 q 19 493 19 335 q 68 767 19 651 q 206 945 117 882 q 417 1008 294 1008 q 628 945 539 1008 q 765 767 717 882 q 814 493 814 651 q 765 219 814 335 q 628 40 717 103 q 417 -22 539 -22 z "},"❹":{"ha":833,"x_min":19,"x_max":814,"o":"m 460 222 l 551 222 l 551 347 l 626 347 l 626 428 l 551 428 l 551 760 l 465 760 l 210 418 l 210 347 l 460 347 l 460 222 m 307 428 l 460 626 l 460 428 l 307 428 m 417 -22 q 206 40 294 -22 q 68 219 117 103 q 19 493 19 335 q 68 767 19 651 q 206 945 117 882 q 417 1008 294 1008 q 628 945 539 1008 q 765 767 717 882 q 814 493 814 651 q 765 219 814 335 q 628 40 717 103 q 417 -22 539 -22 z "},"❺":{"ha":833,"x_min":19,"x_max":814,"o":"m 411 211 q 555 260 501 211 q 608 396 608 308 q 567 526 608 474 q 439 579 525 579 q 377 569 406 579 q 332 540 349 560 l 350 679 l 572 679 l 572 760 l 269 760 l 236 447 l 321 447 q 362 487 338 472 q 425 501 386 501 q 497 471 474 501 q 519 396 519 440 q 491 318 519 344 q 414 292 463 292 q 348 308 372 292 q 315 357 324 324 l 226 353 q 283 248 233 285 q 411 211 332 211 m 417 -22 q 206 40 294 -22 q 68 219 117 103 q 19 493 19 335 q 68 767 19 651 q 206 945 117 882 q 417 1008 294 1008 q 628 945 539 1008 q 765 767 717 882 q 814 493 814 651 q 765 219 814 335 q 628 40 717 103 q 417 -22 539 -22 z "},"❻":{"ha":833,"x_min":19,"x_max":814,"o":"m 417 211 q 562 261 504 211 q 619 401 619 311 q 565 544 619 497 q 431 590 511 590 q 356 574 388 590 q 308 532 324 557 q 346 649 313 607 q 433 690 379 690 q 497 676 475 690 q 526 629 518 661 l 613 638 q 557 738 597 704 q 433 771 517 771 q 308 728 356 771 q 238 616 260 686 q 217 461 217 546 q 272 275 217 339 q 417 211 328 211 m 418 292 q 337 322 367 292 q 308 404 307 353 q 324 461 310 438 q 363 497 338 485 q 419 510 388 510 q 503 482 475 510 q 531 404 531 454 q 501 322 531 353 q 418 292 472 292 m 417 -22 q 206 40 294 -22 q 68 219 117 103 q 19 493 19 335 q 68 767 19 651 q 206 945 117 882 q 417 1008 294 1008 q 628 945 539 1008 q 765 767 717 882 q 814 493 814 651 q 765 219 814 335 q 628 40 717 103 q 417 -22 539 -22 z "},"❼":{"ha":833,"x_min":19,"x_max":814,"o":"m 335 222 l 424 222 q 445 401 424 318 q 506 557 467 483 q 599 700 544 631 l 599 761 l 238 761 l 238 681 l 494 681 q 408 540 443 614 q 353 386 372 465 q 335 222 335 307 m 417 -22 q 206 40 294 -22 q 68 219 117 103 q 19 493 19 335 q 68 767 19 651 q 206 945 117 882 q 417 1008 294 1008 q 628 945 539 1008 q 765 767 717 882 q 814 493 814 651 q 765 219 814 335 q 628 40 717 103 q 417 -22 539 -22 z "},"❽":{"ha":833,"x_min":19,"x_max":814,"o":"m 418 211 q 568 252 517 211 q 619 367 619 293 q 590 453 619 415 q 511 513 560 492 q 571 553 549 526 q 593 631 593 581 q 549 733 593 696 q 418 771 504 771 q 288 733 333 771 q 243 631 243 696 q 265 553 243 581 q 325 513 288 526 q 246 454 275 493 q 217 367 217 415 q 269 252 217 293 q 418 211 321 211 m 418 292 q 338 312 367 292 q 308 372 308 332 q 338 440 308 413 q 418 467 367 467 q 499 440 471 467 q 528 372 528 413 q 499 312 528 332 q 418 292 471 292 m 418 550 q 356 569 378 550 q 335 625 335 588 q 356 673 335 656 q 418 690 378 690 q 480 673 458 690 q 501 625 501 656 q 480 569 501 588 q 418 550 458 550 m 417 -22 q 206 40 294 -22 q 68 219 117 103 q 19 493 19 335 q 68 767 19 651 q 206 945 117 882 q 417 1008 294 1008 q 628 945 539 1008 q 765 767 717 882 q 814 493 814 651 q 765 219 814 335 q 628 40 717 103 q 417 -22 539 -22 z "},"❾":{"ha":833,"x_min":19,"x_max":814,"o":"m 403 211 q 528 253 481 211 q 598 366 576 296 q 619 521 619 436 q 565 707 619 643 q 419 771 510 771 q 274 721 332 771 q 217 581 217 671 q 271 438 217 485 q 406 392 325 392 q 482 408 450 392 q 528 450 514 425 q 490 333 524 375 q 403 292 457 292 q 340 307 361 292 q 310 353 318 322 l 224 344 q 279 244 239 278 q 403 211 319 211 m 417 472 q 333 500 361 472 q 306 578 306 528 q 335 660 306 629 q 418 690 364 690 q 500 660 471 690 q 528 578 529 629 q 513 521 528 544 q 474 485 499 497 q 417 472 450 472 m 417 -22 q 206 40 294 -22 q 68 219 117 103 q 19 493 19 335 q 68 767 19 651 q 206 945 117 882 q 417 1008 294 1008 q 628 945 539 1008 q 765 767 717 882 q 814 493 814 651 q 765 219 814 335 q 628 40 717 103 q 417 -22 539 -22 z "},"⓪":{"ha":833,"x_min":17,"x_max":817,"o":"m 417 -22 q 203 38 293 -22 q 65 213 114 97 q 17 493 17 328 q 65 774 17 658 q 203 949 114 889 q 417 1008 293 1008 q 630 949 540 1008 q 768 774 719 889 q 817 493 817 658 q 768 213 817 328 q 630 38 719 97 q 417 -22 540 -22 m 417 72 q 578 121 510 72 q 685 264 647 169 q 722 493 722 358 q 685 723 722 629 q 578 865 647 817 q 417 914 510 914 q 255 865 324 914 q 149 723 186 817 q 111 493 111 629 q 149 264 111 358 q 255 121 186 169 q 417 72 324 72 m 418 211 q 261 286 321 211 q 201 492 201 361 q 260 697 201 622 q 418 771 319 771 q 576 697 517 771 q 635 492 635 622 q 576 286 635 361 q 418 211 517 211 m 418 294 q 511 344 479 294 q 543 492 543 394 q 510 637 543 586 q 418 688 478 688 q 325 639 357 688 q 293 492 293 590 q 328 349 293 403 q 418 294 363 294 m 339 293 l 296 364 l 497 693 l 540 624 l 339 293 z "},"①":{"ha":833,"x_min":17,"x_max":817,"o":"m 417 -22 q 203 38 293 -22 q 65 213 114 97 q 17 493 17 328 q 65 774 17 658 q 203 949 114 889 q 417 1008 293 1008 q 630 949 540 1008 q 768 774 719 889 q 817 493 817 658 q 768 213 817 328 q 630 38 719 97 q 417 -22 540 -22 m 417 72 q 578 121 510 72 q 685 264 647 169 q 722 493 722 358 q 685 723 722 629 q 578 865 647 817 q 417 914 510 914 q 255 865 324 914 q 149 723 186 817 q 111 493 111 629 q 149 264 111 358 q 255 121 186 169 q 417 72 324 72 m 326 222 l 326 575 l 193 574 l 193 643 l 226 643 q 319 674 288 643 q 350 761 350 706 l 418 761 l 418 222 l 326 222 z "},"②":{"ha":833,"x_min":17,"x_max":817,"o":"m 417 -22 q 203 38 293 -22 q 65 213 114 97 q 17 493 17 328 q 65 774 17 658 q 203 949 114 889 q 417 1008 293 1008 q 630 949 540 1008 q 768 774 719 889 q 817 493 817 658 q 768 213 817 328 q 630 38 719 97 q 417 -22 540 -22 m 417 72 q 578 121 510 72 q 685 264 647 169 q 722 493 722 358 q 685 723 722 629 q 578 865 647 817 q 417 914 510 914 q 255 865 324 914 q 149 723 186 817 q 111 493 111 629 q 149 264 111 358 q 255 121 186 169 q 417 72 324 72 m 232 222 q 241 324 232 281 q 279 403 250 367 q 369 472 308 439 l 442 513 q 483 541 468 528 q 506 572 499 554 q 513 615 513 589 q 488 671 513 651 q 429 690 463 690 q 354 666 379 690 q 322 592 329 642 l 233 596 q 291 723 242 675 q 429 771 340 771 q 557 728 510 771 q 604 615 604 685 q 568 510 604 549 q 471 440 532 472 l 414 410 q 353 359 372 388 q 335 303 335 331 l 599 303 l 599 222 l 232 222 z "},"③":{"ha":833,"x_min":17,"x_max":817,"o":"m 417 -22 q 203 38 293 -22 q 65 213 114 97 q 17 493 17 328 q 65 774 17 658 q 203 949 114 889 q 417 1008 293 1008 q 630 949 540 1008 q 768 774 719 889 q 817 493 817 658 q 768 213 817 328 q 630 38 719 97 q 417 -22 540 -22 m 417 72 q 578 121 510 72 q 685 264 647 169 q 722 493 722 358 q 685 723 722 629 q 578 865 647 817 q 417 914 510 914 q 255 865 324 914 q 149 723 186 817 q 111 493 111 629 q 149 264 111 358 q 255 121 186 169 q 417 72 324 72 m 418 211 q 268 254 310 211 q 222 363 226 297 l 311 367 q 338 313 314 333 q 418 292 363 292 q 497 315 469 292 q 524 376 524 338 q 497 441 524 417 q 411 465 471 465 l 376 465 l 376 544 l 411 544 q 474 563 450 544 q 497 615 497 581 q 476 668 497 647 q 411 689 456 689 q 345 669 368 689 q 319 621 322 649 l 231 626 q 285 729 239 688 q 411 771 331 771 q 543 730 499 771 q 588 624 588 689 q 563 550 588 576 q 494 510 539 524 q 589 457 564 493 q 614 375 614 421 q 558 255 614 299 q 418 211 501 211 z "},"④":{"ha":833,"x_min":17,"x_max":817,"o":"m 417 -22 q 203 38 293 -22 q 65 213 114 97 q 17 493 17 328 q 65 774 17 658 q 203 949 114 889 q 417 1008 293 1008 q 630 949 540 1008 q 768 774 719 889 q 817 493 817 658 q 768 213 817 328 q 630 38 719 97 q 417 -22 540 -22 m 417 72 q 578 121 510 72 q 685 264 647 169 q 722 493 722 358 q 685 723 722 629 q 578 865 647 817 q 417 914 510 914 q 255 865 324 914 q 149 723 186 817 q 111 493 111 629 q 149 264 111 358 q 255 121 186 169 q 417 72 324 72 m 432 222 l 432 347 l 182 347 l 182 418 l 438 760 l 524 760 l 524 428 l 599 428 l 599 347 l 524 347 l 524 222 l 432 222 m 279 428 l 432 428 l 432 626 l 279 428 z "},"⑤":{"ha":833,"x_min":17,"x_max":817,"o":"m 417 -22 q 203 38 293 -22 q 65 213 114 97 q 17 493 17 328 q 65 774 17 658 q 203 949 114 889 q 417 1008 293 1008 q 630 949 540 1008 q 768 774 719 889 q 817 493 817 658 q 768 213 817 328 q 630 38 719 97 q 417 -22 540 -22 m 417 72 q 578 121 510 72 q 685 264 647 169 q 722 493 722 358 q 685 723 722 629 q 578 865 647 817 q 417 914 510 914 q 255 865 324 914 q 149 723 186 817 q 111 493 111 629 q 149 264 111 358 q 255 121 186 169 q 417 72 324 72 m 411 211 q 283 248 332 211 q 226 353 233 285 l 315 357 q 348 308 324 324 q 414 292 372 292 q 491 318 463 292 q 519 396 519 344 q 497 471 519 440 q 425 501 474 501 q 362 487 386 501 q 321 447 338 472 l 236 447 l 269 760 l 572 760 l 572 679 l 350 679 l 332 540 q 377 569 349 560 q 439 579 406 579 q 567 526 525 579 q 608 396 608 474 q 555 260 608 308 q 411 211 501 211 z "},"⑥":{"ha":833,"x_min":17,"x_max":817,"o":"m 417 -22 q 203 38 293 -22 q 65 213 114 97 q 17 493 17 328 q 65 774 17 658 q 203 949 114 889 q 417 1008 293 1008 q 630 949 540 1008 q 768 774 719 889 q 817 493 817 658 q 768 213 817 328 q 630 38 719 97 q 417 -22 540 -22 m 417 72 q 578 121 510 72 q 685 264 647 169 q 722 493 722 358 q 685 723 722 629 q 578 865 647 817 q 417 914 510 914 q 255 865 324 914 q 149 723 186 817 q 111 493 111 629 q 149 264 111 358 q 255 121 186 169 q 417 72 324 72 m 417 211 q 272 275 328 211 q 217 461 217 339 q 238 616 217 546 q 308 728 260 686 q 433 771 356 771 q 557 738 517 771 q 613 638 597 704 l 526 629 q 497 676 518 661 q 433 690 475 690 q 346 649 379 690 q 308 532 313 607 q 356 574 324 557 q 431 590 388 590 q 565 544 511 590 q 619 401 619 497 q 562 261 619 311 q 417 211 504 211 m 418 292 q 501 322 472 292 q 531 404 531 353 q 503 482 531 454 q 419 510 475 510 q 363 497 388 510 q 324 461 338 485 q 308 404 310 438 q 337 322 307 353 q 418 292 367 292 z "},"⑦":{"ha":833,"x_min":17,"x_max":817,"o":"m 417 -22 q 203 38 293 -22 q 65 213 114 97 q 17 493 17 328 q 65 774 17 658 q 203 949 114 889 q 417 1008 293 1008 q 630 949 540 1008 q 768 774 719 889 q 817 493 817 658 q 768 213 817 328 q 630 38 719 97 q 417 -22 540 -22 m 417 72 q 578 121 510 72 q 685 264 647 169 q 722 493 722 358 q 685 723 722 629 q 578 865 647 817 q 417 914 510 914 q 255 865 324 914 q 149 723 186 817 q 111 493 111 629 q 149 264 111 358 q 255 121 186 169 q 417 72 324 72 m 335 222 q 353 386 335 307 q 408 540 372 465 q 494 681 443 614 l 238 681 l 238 761 l 599 761 l 599 700 q 506 557 544 631 q 445 401 467 483 q 424 222 424 318 l 335 222 z "},"⑧":{"ha":833,"x_min":17,"x_max":817,"o":"m 417 -22 q 203 38 293 -22 q 65 213 114 97 q 17 493 17 328 q 65 774 17 658 q 203 949 114 889 q 417 1008 293 1008 q 630 949 540 1008 q 768 774 719 889 q 817 493 817 658 q 768 213 817 328 q 630 38 719 97 q 417 -22 540 -22 m 417 72 q 578 121 510 72 q 685 264 647 169 q 722 493 722 358 q 685 723 722 629 q 578 865 647 817 q 417 914 510 914 q 255 865 324 914 q 149 723 186 817 q 111 493 111 629 q 149 264 111 358 q 255 121 186 169 q 417 72 324 72 m 418 211 q 269 252 321 211 q 217 367 217 293 q 246 454 217 415 q 325 513 275 493 q 265 553 288 526 q 243 631 243 581 q 288 733 243 696 q 418 771 333 771 q 549 733 504 771 q 593 631 593 696 q 571 553 593 581 q 511 513 549 526 q 590 453 560 492 q 619 367 619 415 q 568 252 619 293 q 418 211 517 211 m 418 292 q 499 312 471 292 q 528 372 528 332 q 499 440 528 413 q 418 467 471 467 q 338 440 367 467 q 308 372 308 413 q 338 312 308 332 q 418 292 367 292 m 418 550 q 480 569 458 550 q 501 625 501 588 q 480 673 501 656 q 418 690 458 690 q 356 673 378 690 q 335 625 335 656 q 356 569 335 588 q 418 550 378 550 z "},"⑨":{"ha":833,"x_min":17,"x_max":817,"o":"m 417 -22 q 203 38 293 -22 q 65 213 114 97 q 17 493 17 328 q 65 774 17 658 q 203 949 114 889 q 417 1008 293 1008 q 630 949 540 1008 q 768 774 719 889 q 817 493 817 658 q 768 213 817 328 q 630 38 719 97 q 417 -22 540 -22 m 417 72 q 578 121 510 72 q 685 264 647 169 q 722 493 722 358 q 685 723 722 629 q 578 865 647 817 q 417 914 510 914 q 255 865 324 914 q 149 723 186 817 q 111 493 111 629 q 149 264 111 358 q 255 121 186 169 q 417 72 324 72 m 419 771 q 565 707 510 771 q 619 521 619 643 q 598 366 619 436 q 528 253 576 296 q 403 211 481 211 q 279 244 319 211 q 224 344 239 278 l 310 353 q 340 307 318 322 q 403 292 361 292 q 490 333 457 292 q 528 450 524 375 q 482 408 514 425 q 406 392 450 392 q 271 438 325 392 q 217 581 217 485 q 274 721 217 671 q 419 771 332 771 m 418 690 q 335 660 364 690 q 306 578 306 629 q 333 500 306 528 q 417 472 361 472 q 474 485 450 472 q 513 521 499 497 q 528 578 528 544 q 500 660 529 629 q 418 690 471 690 z "},"⁄":{"ha":833,"x_min":56,"x_max":778,"o":"m 476 631 l 669 986 l 778 986 l 585 631 l 476 631 m 56 0 l 249 354 l 357 354 l 164 0 l 56 0 z "},"½":{"ha":833,"x_min":17,"x_max":778,"o":"m 150 449 l 150 801 l 17 800 l 17 869 l 50 869 q 142 901 111 869 q 174 988 174 932 l 242 988 l 242 449 l 150 449 m 476 631 l 669 986 l 778 986 l 585 631 l 476 631 m 56 0 l 249 354 l 357 354 l 164 0 l 56 0 m 394 0 q 403 101 394 58 q 442 181 413 144 q 532 250 471 217 l 604 290 q 646 319 631 306 q 668 349 661 332 q 675 393 675 367 q 650 449 675 429 q 592 468 625 468 q 517 444 542 468 q 485 369 492 419 l 396 374 q 453 501 404 453 q 592 549 503 549 q 719 506 672 549 q 767 393 767 463 q 731 288 767 326 q 633 218 694 250 l 576 188 q 516 137 535 165 q 497 81 497 108 l 761 81 l 761 0 l 394 0 z "},"⅓":{"ha":833,"x_min":17,"x_max":778,"o":"m 150 449 l 150 801 l 17 800 l 17 869 l 50 869 q 142 901 111 869 q 174 988 174 932 l 242 988 l 242 449 l 150 449 m 476 631 l 669 986 l 778 986 l 585 631 l 476 631 m 56 0 l 249 354 l 357 354 l 164 0 l 56 0 m 571 -11 q 421 32 463 -11 q 375 140 379 75 l 464 144 q 491 90 467 111 q 571 69 515 69 q 649 92 622 69 q 676 154 676 115 q 650 219 676 194 q 564 243 624 243 l 529 243 l 529 322 l 564 322 q 626 340 603 322 q 650 393 650 358 q 629 446 650 425 q 564 467 608 467 q 498 447 521 467 q 472 399 475 426 l 383 404 q 438 507 392 465 q 564 549 483 549 q 696 508 651 549 q 740 401 740 467 q 716 328 740 354 q 647 288 692 301 q 742 235 717 271 q 767 153 767 199 q 710 33 767 76 q 571 -11 654 -11 z "},"⅔":{"ha":833,"x_min":25,"x_max":808,"o":"m 25 449 q 34 550 25 507 q 72 629 43 593 q 163 699 101 665 l 235 739 q 276 767 261 754 q 299 798 292 781 q 306 842 306 815 q 281 897 306 878 q 222 917 256 917 q 147 892 172 917 q 115 818 122 868 l 26 822 q 84 949 35 901 q 222 997 133 997 q 350 954 303 997 q 397 842 397 911 q 361 737 397 775 q 264 667 325 699 l 207 636 q 147 585 165 614 q 128 529 128 557 l 392 529 l 392 449 l 25 449 m 471 631 l 664 986 l 772 986 l 579 631 l 471 631 m 50 0 l 243 354 l 351 354 l 158 0 l 50 0 m 613 -11 q 463 32 504 -11 q 417 140 421 75 l 506 144 q 533 90 508 111 q 613 69 557 69 q 691 92 664 69 q 718 154 718 115 q 692 219 718 194 q 606 243 665 243 l 571 243 l 571 322 l 606 322 q 668 340 644 322 q 692 393 692 358 q 671 446 692 425 q 606 467 650 467 q 540 447 563 467 q 514 399 517 426 l 425 404 q 479 507 433 465 q 606 549 525 549 q 738 508 693 549 q 782 401 782 467 q 758 328 782 354 q 689 288 733 301 q 783 235 758 271 q 808 153 808 199 q 752 33 808 76 q 613 -11 696 -11 z "},"¼":{"ha":833,"x_min":17,"x_max":778,"o":"m 150 449 l 150 801 l 17 800 l 17 869 l 50 869 q 142 901 111 869 q 174 988 174 932 l 242 988 l 242 449 l 150 449 m 476 631 l 669 986 l 778 986 l 585 631 l 476 631 m 56 0 l 249 354 l 357 354 l 164 0 l 56 0 m 569 0 l 569 125 l 319 125 l 319 196 l 575 538 l 661 538 l 661 206 l 736 206 l 736 125 l 661 125 l 661 0 l 569 0 m 417 206 l 569 206 l 569 404 l 417 206 z "},"¾":{"ha":833,"x_min":33,"x_max":797,"o":"m 229 438 q 79 481 121 438 q 33 589 38 524 l 122 593 q 149 539 125 560 q 229 518 174 518 q 308 541 281 518 q 335 603 335 564 q 308 667 335 643 q 222 692 282 692 l 188 692 l 188 771 l 222 771 q 285 789 261 771 q 308 842 308 807 q 288 894 308 874 q 222 915 267 915 q 156 895 179 915 q 131 847 133 875 l 42 853 q 96 956 50 914 q 222 997 142 997 q 354 956 310 997 q 399 850 399 915 q 374 776 399 803 q 306 736 350 750 q 400 683 375 719 q 425 601 425 647 q 369 481 425 525 q 229 438 313 438 m 496 631 l 689 986 l 797 986 l 604 631 l 496 631 m 75 0 l 268 354 l 376 354 l 183 0 l 75 0 m 606 0 l 606 125 l 356 125 l 356 196 l 611 538 l 697 538 l 697 206 l 772 206 l 772 125 l 697 125 l 697 0 l 606 0 m 453 206 l 606 206 l 606 404 l 453 206 z "},"⅕":{"ha":833,"x_min":3,"x_max":778,"o":"m 136 449 l 136 801 l 3 800 l 3 869 l 36 869 q 128 901 97 869 q 160 988 160 932 l 228 988 l 228 449 l 136 449 m 476 631 l 669 986 l 778 986 l 585 631 l 476 631 m 56 0 l 249 354 l 357 354 l 164 0 l 56 0 m 578 -11 q 449 26 499 -11 q 393 131 400 63 l 482 135 q 515 85 490 101 q 581 69 539 69 q 658 96 629 69 q 686 174 686 122 q 663 249 686 218 q 592 279 640 279 q 528 265 553 279 q 488 225 504 250 l 403 225 l 436 538 l 739 538 l 739 457 l 517 457 l 499 318 q 544 347 515 338 q 606 357 572 357 q 733 304 692 357 q 775 174 775 251 q 722 38 775 86 q 578 -11 668 -11 z "},"⅛":{"ha":833,"x_min":-11,"x_max":792,"o":"m 122 449 l 122 801 l -11 800 l -11 869 l 22 869 q 115 901 83 869 q 146 988 146 932 l 214 988 l 214 449 l 122 449 m 463 631 l 656 986 l 764 986 l 571 631 l 463 631 m 42 0 l 235 354 l 343 354 l 150 0 l 42 0 m 590 -11 q 441 30 493 -11 q 389 144 389 71 q 418 232 389 193 q 497 290 447 271 q 438 331 460 304 q 415 408 415 358 q 460 511 415 474 q 590 549 506 549 q 721 511 676 549 q 765 408 765 474 q 743 331 765 358 q 683 290 721 304 q 762 231 732 269 q 792 144 792 193 q 740 30 792 71 q 590 -11 689 -11 m 590 69 q 672 90 643 69 q 700 150 700 110 q 672 217 700 190 q 590 244 643 244 q 510 217 539 244 q 481 150 481 190 q 510 90 481 110 q 590 69 539 69 m 590 328 q 652 347 631 328 q 674 403 674 365 q 652 451 674 433 q 590 468 631 468 q 528 451 550 468 q 507 403 507 433 q 528 347 507 365 q 590 328 550 328 z "},"⅜":{"ha":833,"x_min":28,"x_max":806,"o":"m 213 438 q 84 474 133 438 q 28 579 35 511 l 117 583 q 149 534 125 550 q 215 518 174 518 q 292 544 264 518 q 321 622 321 571 q 298 697 321 667 q 226 728 275 728 q 163 713 188 728 q 122 674 139 699 l 38 674 l 71 986 l 374 986 l 374 906 l 151 906 l 133 767 q 178 796 150 786 q 240 806 207 806 q 368 753 326 806 q 410 622 410 700 q 356 486 410 535 q 213 438 303 438 m 476 631 l 669 986 l 778 986 l 585 631 l 476 631 m 56 0 l 249 354 l 357 354 l 164 0 l 56 0 m 604 -11 q 455 30 507 -11 q 403 144 403 71 q 432 232 403 193 q 511 290 461 271 q 451 331 474 304 q 429 408 429 358 q 474 511 429 474 q 604 549 519 549 q 735 511 690 549 q 779 408 779 474 q 757 331 779 358 q 697 290 735 304 q 776 231 746 269 q 806 144 806 193 q 754 30 806 71 q 604 -11 703 -11 m 604 69 q 685 90 657 69 q 714 150 714 110 q 685 217 714 190 q 604 244 657 244 q 524 217 553 244 q 494 150 494 190 q 524 90 494 110 q 604 69 553 69 m 604 328 q 666 347 644 328 q 688 403 688 365 q 666 451 688 433 q 604 468 644 468 q 542 451 564 468 q 521 403 521 433 q 542 347 521 365 q 604 328 564 328 z "},"⅝":{"ha":833,"x_min":28,"x_max":806,"o":"m 224 438 q 74 481 115 438 q 28 589 32 524 l 117 593 q 144 539 119 560 q 224 518 168 518 q 302 541 275 518 q 329 603 329 564 q 303 667 329 643 q 217 692 276 692 l 182 692 l 182 771 l 217 771 q 279 789 256 771 q 303 842 303 807 q 282 894 303 874 q 217 915 261 915 q 151 895 174 915 q 125 847 128 875 l 36 853 q 90 956 44 914 q 217 997 136 997 q 349 956 304 997 q 393 850 393 915 q 369 776 393 803 q 300 736 344 750 q 394 683 369 719 q 419 601 419 647 q 363 481 419 525 q 224 438 307 438 m 469 631 l 663 986 l 771 986 l 578 631 l 469 631 m 49 0 l 242 354 l 350 354 l 157 0 l 49 0 m 604 -11 q 455 30 507 -11 q 403 144 403 71 q 432 232 403 193 q 511 290 461 271 q 451 331 474 304 q 429 408 429 358 q 474 511 429 474 q 604 549 519 549 q 735 511 690 549 q 779 408 779 474 q 757 331 779 358 q 697 290 735 304 q 776 231 746 269 q 806 144 806 193 q 754 30 806 71 q 604 -11 703 -11 m 604 69 q 685 90 657 69 q 714 150 714 110 q 685 217 714 190 q 604 244 657 244 q 524 217 553 244 q 494 150 494 190 q 524 90 494 110 q 604 69 553 69 m 604 328 q 666 347 644 328 q 688 403 688 365 q 666 451 688 433 q 604 468 644 468 q 542 451 564 468 q 521 403 521 433 q 542 347 521 365 q 604 328 564 328 z "},"⅞":{"ha":833,"x_min":29,"x_max":806,"o":"m 135 447 q 153 611 135 532 q 208 765 172 690 q 294 906 243 839 l 38 906 l 38 986 l 399 986 l 399 925 q 306 782 344 856 q 245 626 267 708 q 224 447 224 543 l 135 447 m 450 631 l 643 986 l 751 986 l 558 631 l 450 631 m 29 0 l 222 354 l 331 354 l 138 0 l 29 0 m 604 -11 q 455 30 507 -11 q 403 144 403 71 q 432 232 403 193 q 511 290 461 271 q 451 331 474 304 q 429 408 429 358 q 474 511 429 474 q 604 549 519 549 q 735 511 690 549 q 779 408 779 474 q 757 331 779 358 q 697 290 735 304 q 776 231 746 269 q 806 144 806 193 q 754 30 806 71 q 604 -11 703 -11 m 604 69 q 685 90 657 69 q 714 150 714 110 q 685 217 714 190 q 604 244 657 244 q 524 217 553 244 q 494 150 494 190 q 524 90 494 110 q 604 69 553 69 m 604 328 q 666 347 644 328 q 688 403 688 365 q 666 451 688 433 q 604 468 644 468 q 542 451 564 468 q 521 403 521 433 q 542 347 521 365 q 604 328 564 328 z "},"₀":{"ha":833,"x_min":200,"x_max":633,"o":"m 417 -150 q 260 -75 319 -150 q 200 131 200 0 q 259 335 200 261 q 417 410 318 410 q 574 335 515 410 q 633 131 633 261 q 574 -75 633 0 q 417 -150 515 -150 m 417 -67 q 510 -17 478 -67 q 542 131 542 33 q 509 276 542 225 q 417 326 476 326 q 324 278 356 326 q 292 131 292 229 q 326 -12 292 42 q 417 -67 361 -67 m 338 -68 l 294 3 l 496 332 l 539 263 l 338 -68 z "},"₁":{"ha":833,"x_min":235,"x_max":460,"o":"m 368 -139 l 368 214 l 235 213 l 235 282 l 268 282 q 360 313 329 282 q 392 400 392 344 l 460 400 l 460 -139 l 368 -139 z "},"₂":{"ha":833,"x_min":231,"x_max":603,"o":"m 231 -139 q 240 -37 231 -81 q 278 42 249 6 q 368 111 307 78 l 440 151 q 482 180 467 167 q 504 210 497 193 q 511 254 511 228 q 486 310 511 290 q 428 329 461 329 q 353 305 378 329 q 321 231 328 281 l 232 235 q 290 362 240 314 q 428 410 339 410 q 556 367 508 410 q 603 254 603 324 q 567 149 603 188 q 469 79 531 111 l 413 49 q 352 -2 371 26 q 333 -58 333 -31 l 597 -58 l 597 -139 l 231 -139 z "},"₃":{"ha":833,"x_min":221,"x_max":613,"o":"m 417 -150 q 267 -107 308 -150 q 221 1 225 -64 l 310 6 q 337 -49 313 -28 q 417 -69 361 -69 q 495 -47 468 -69 q 522 15 522 -24 q 496 80 522 56 q 410 104 469 104 l 375 104 l 375 183 l 410 183 q 472 201 449 183 q 496 254 496 219 q 475 307 496 286 q 410 328 454 328 q 344 308 367 328 q 318 260 321 288 l 229 265 q 283 368 238 326 q 410 410 329 410 q 542 369 497 410 q 586 263 586 328 q 562 189 586 215 q 493 149 538 163 q 588 96 563 132 q 613 14 613 60 q 556 -106 613 -62 q 417 -150 500 -150 z "},"₄":{"ha":833,"x_min":181,"x_max":597,"o":"m 431 -139 l 431 -14 l 181 -14 l 181 57 l 436 399 l 522 399 l 522 67 l 597 67 l 597 -14 l 522 -14 l 522 -139 l 431 -139 m 278 67 l 431 67 l 431 265 l 278 67 z "},"₅":{"ha":833,"x_min":226,"x_max":608,"o":"m 411 -150 q 283 -113 332 -150 q 226 -8 233 -76 l 315 -4 q 348 -53 324 -37 q 414 -69 372 -69 q 491 -43 463 -69 q 519 35 519 -17 q 497 110 519 79 q 425 140 474 140 q 362 126 386 140 q 321 86 338 111 l 236 86 l 269 399 l 572 399 l 572 318 l 350 318 l 332 179 q 377 208 349 199 q 439 218 406 218 q 567 165 525 218 q 608 35 608 113 q 555 -101 608 -53 q 411 -150 501 -150 z "},"₆":{"ha":833,"x_min":215,"x_max":618,"o":"m 415 -150 q 271 -86 326 -150 q 215 100 215 -22 q 237 255 215 185 q 306 367 258 325 q 432 410 354 410 q 556 376 515 410 q 611 276 596 343 l 525 268 q 495 315 517 300 q 432 329 474 329 q 344 288 378 329 q 307 171 311 246 q 354 213 322 196 q 429 229 386 229 q 564 183 510 229 q 618 40 618 136 q 560 -100 618 -50 q 415 -150 503 -150 m 417 -69 q 500 -39 471 -69 q 529 43 529 -8 q 501 121 529 93 q 418 149 474 149 q 361 136 386 149 q 322 100 336 124 q 307 43 308 76 q 335 -39 306 -8 q 417 -69 365 -69 z "},"₇":{"ha":833,"x_min":236,"x_max":597,"o":"m 333 -139 q 352 25 333 -54 q 406 178 371 104 q 493 319 442 253 l 236 319 l 236 400 l 597 400 l 597 339 q 504 196 543 269 q 444 40 465 122 q 422 -139 422 -43 l 333 -139 z "},"₈":{"ha":833,"x_min":215,"x_max":618,"o":"m 417 -150 q 267 -109 319 -150 q 215 6 215 -68 q 244 93 215 54 q 324 151 274 132 q 264 192 286 165 q 242 269 242 219 q 287 372 242 335 q 417 410 332 410 q 547 372 503 410 q 592 269 592 335 q 569 192 592 219 q 510 151 547 165 q 588 92 558 131 q 618 6 618 54 q 567 -109 618 -68 q 417 -150 515 -150 m 417 -69 q 498 -49 469 -69 q 526 11 526 -29 q 498 78 526 51 q 417 106 469 106 q 336 78 365 106 q 307 11 307 51 q 336 -49 307 -29 q 417 -69 365 -69 m 417 189 q 478 208 457 189 q 500 264 500 226 q 478 312 500 294 q 417 329 457 329 q 355 312 376 329 q 333 264 333 294 q 355 208 333 226 q 417 189 376 189 z "},"₉":{"ha":833,"x_min":215,"x_max":618,"o":"m 418 410 q 563 346 508 410 q 618 160 618 282 q 597 5 618 75 q 527 -108 575 -65 q 401 -150 479 -150 q 278 -117 318 -150 q 222 -17 238 -83 l 308 -8 q 338 -54 317 -39 q 401 -69 360 -69 q 489 -28 456 -69 q 526 89 522 14 q 481 47 513 64 q 404 31 449 31 q 269 77 324 31 q 215 219 215 124 q 273 360 215 310 q 418 410 331 410 m 417 329 q 333 299 363 329 q 304 217 304 268 q 332 139 304 167 q 415 111 360 111 q 473 124 449 111 q 512 160 497 136 q 526 217 526 183 q 499 299 528 268 q 417 329 469 329 z "},"⁰":{"ha":833,"x_min":200,"x_max":633,"o":"m 417 438 q 260 513 319 438 q 200 718 200 588 q 259 923 200 849 q 417 997 318 997 q 574 923 515 997 q 633 718 633 849 q 574 513 633 588 q 417 438 515 438 m 417 521 q 510 571 478 521 q 542 718 542 621 q 509 863 542 813 q 417 914 476 914 q 324 865 356 914 q 292 718 292 817 q 326 575 292 629 q 417 521 361 521 m 338 519 l 294 590 l 496 919 l 539 850 l 338 519 z "},"¹":{"ha":833,"x_min":235,"x_max":460,"o":"m 368 449 l 368 801 l 235 800 l 235 869 l 268 869 q 360 901 329 869 q 392 988 392 932 l 460 988 l 460 449 l 368 449 z "},"²":{"ha":833,"x_min":231,"x_max":603,"o":"m 231 449 q 240 550 231 507 q 278 629 249 593 q 368 699 307 665 l 440 739 q 482 767 467 754 q 504 798 497 781 q 511 842 511 815 q 486 897 511 878 q 428 917 461 917 q 353 892 378 917 q 321 818 328 868 l 232 822 q 290 949 240 901 q 428 997 339 997 q 556 954 508 997 q 603 842 603 911 q 567 737 603 775 q 469 667 531 699 l 413 636 q 352 585 371 614 q 333 529 333 557 l 597 529 l 597 449 l 231 449 z "},"³":{"ha":833,"x_min":221,"x_max":613,"o":"m 417 438 q 267 481 308 438 q 221 589 225 524 l 310 593 q 337 539 313 560 q 417 518 361 518 q 495 541 468 518 q 522 603 522 564 q 496 667 522 643 q 410 692 469 692 l 375 692 l 375 771 l 410 771 q 472 789 449 771 q 496 842 496 807 q 475 894 496 874 q 410 915 454 915 q 344 895 367 915 q 318 847 321 875 l 229 853 q 283 956 238 914 q 410 997 329 997 q 542 956 497 997 q 586 850 586 915 q 562 776 586 803 q 493 736 538 750 q 588 683 563 719 q 613 601 613 647 q 556 481 613 525 q 417 438 500 438 z "},"⁴":{"ha":833,"x_min":181,"x_max":597,"o":"m 431 449 l 431 574 l 181 574 l 181 644 l 436 986 l 522 986 l 522 654 l 597 654 l 597 574 l 522 574 l 522 449 l 431 449 m 278 654 l 431 654 l 431 853 l 278 654 z "},"⁵":{"ha":833,"x_min":226,"x_max":608,"o":"m 411 438 q 283 474 332 438 q 226 579 233 511 l 315 583 q 348 534 324 550 q 414 518 372 518 q 491 544 463 518 q 519 622 519 571 q 497 697 519 667 q 425 728 474 728 q 362 713 386 728 q 321 674 338 699 l 236 674 l 269 986 l 572 986 l 572 906 l 350 906 l 332 767 q 377 796 349 786 q 439 806 406 806 q 567 753 525 806 q 608 622 608 700 q 555 486 608 535 q 411 438 501 438 z "},"⁶":{"ha":833,"x_min":215,"x_max":618,"o":"m 415 438 q 271 501 326 438 q 215 688 215 565 q 237 842 215 772 q 306 955 258 913 q 432 997 354 997 q 556 964 515 997 q 611 864 596 931 l 525 856 q 495 902 517 888 q 432 917 474 917 q 344 875 378 917 q 307 758 311 833 q 354 800 322 783 q 429 817 386 817 q 564 770 510 817 q 618 628 618 724 q 560 488 618 538 q 415 438 503 438 m 417 518 q 500 549 471 518 q 529 631 529 579 q 501 708 529 681 q 418 736 474 736 q 361 724 386 736 q 322 688 336 711 q 307 631 308 664 q 335 549 306 579 q 417 518 365 518 z "},"⁷":{"ha":833,"x_min":236,"x_max":597,"o":"m 333 447 q 352 611 333 532 q 406 765 371 690 q 493 906 442 839 l 236 906 l 236 986 l 597 986 l 597 925 q 504 782 543 856 q 444 626 465 708 q 422 447 422 543 l 333 447 z "},"⁸":{"ha":833,"x_min":215,"x_max":618,"o":"m 417 438 q 267 478 319 438 q 215 593 215 519 q 244 681 215 642 q 324 739 274 719 q 264 780 286 753 q 242 857 242 807 q 287 960 242 922 q 417 997 332 997 q 547 960 503 997 q 592 857 592 922 q 569 780 592 807 q 510 739 547 753 q 588 680 558 718 q 618 593 618 642 q 567 478 618 519 q 417 438 515 438 m 417 518 q 498 538 469 518 q 526 599 526 558 q 498 666 526 639 q 417 693 469 693 q 336 666 365 693 q 307 599 307 639 q 336 538 307 558 q 417 518 365 518 m 417 776 q 478 795 457 776 q 500 851 500 814 q 478 899 500 882 q 417 917 457 917 q 355 899 376 917 q 333 851 333 882 q 355 795 333 814 q 417 776 376 776 z "},"⁹":{"ha":833,"x_min":215,"x_max":618,"o":"m 418 997 q 563 933 508 997 q 618 747 618 869 q 597 592 618 663 q 527 480 575 522 q 401 438 479 438 q 278 471 318 438 q 222 571 238 504 l 308 579 q 338 533 317 549 q 401 518 360 518 q 489 560 456 518 q 526 676 522 601 q 481 635 513 651 q 404 618 449 618 q 269 665 324 618 q 215 807 215 711 q 273 947 215 897 q 418 997 331 997 m 417 917 q 333 886 363 917 q 304 804 304 856 q 332 726 304 754 q 415 699 360 699 q 473 711 449 699 q 512 747 497 724 q 526 804 526 771 q 499 886 528 856 q 417 917 469 917 z "}," ":{"ha":833,"x_min":0,"x_max":0,"o":""}," ":{"ha":833,"x_min":0,"x_max":0,"o":""},".":{"ha":833,"x_min":331,"x_max":503,"o":"m 331 0 l 331 169 l 503 169 l 503 0 l 331 0 z "},",":{"ha":833,"x_min":333,"x_max":500,"o":"m 333 -225 l 408 0 l 333 0 l 333 169 l 500 169 l 500 14 l 417 -225 l 333 -225 z "},":":{"ha":833,"x_min":331,"x_max":503,"o":"m 331 0 l 331 169 l 503 169 l 503 0 l 331 0 m 331 536 l 331 706 l 503 706 l 503 536 l 331 536 z "},";":{"ha":833,"x_min":331,"x_max":503,"o":"m 331 536 l 331 706 l 503 706 l 503 536 l 331 536 m 333 -225 l 408 0 l 333 0 l 333 169 l 500 169 l 500 14 l 417 -225 l 333 -225 z "},"…":{"ha":833,"x_min":69,"x_max":764,"o":"m 69 0 l 69 169 l 242 169 l 242 0 l 69 0 m 329 0 l 329 169 l 501 169 l 501 0 l 329 0 m 592 0 l 592 169 l 764 169 l 764 0 l 592 0 z "},"!":{"ha":833,"x_min":331,"x_max":503,"o":"m 379 290 q 369 406 375 339 q 360 542 364 472 q 357 667 357 611 l 357 986 l 476 986 l 476 667 q 473 542 476 611 q 465 406 469 472 q 456 290 460 339 l 379 290 m 331 0 l 331 169 l 503 169 l 503 0 l 331 0 z "},"¡":{"ha":833,"x_min":331,"x_max":503,"o":"m 379 471 l 456 471 q 465 356 460 422 q 473 219 469 289 q 476 94 476 150 l 476 -225 l 357 -225 l 357 94 q 360 219 357 150 q 369 356 364 289 q 379 471 375 422 m 331 761 l 503 761 l 503 592 l 331 592 l 331 761 z "},"?":{"ha":833,"x_min":92,"x_max":742,"o":"m 353 279 q 384 438 353 379 q 488 542 415 497 q 569 601 542 575 q 607 655 597 626 q 617 725 617 683 q 569 844 617 797 q 438 892 522 892 q 281 839 335 892 q 217 686 228 786 l 92 694 q 144 857 100 786 q 262 968 188 928 q 438 1008 336 1008 q 597 972 528 1008 q 703 872 665 936 q 742 725 742 808 q 723 624 742 667 q 666 544 704 581 q 568 469 628 508 q 510 420 531 446 q 481 361 489 394 q 472 279 472 328 l 353 279 m 326 0 l 326 169 l 499 169 l 499 0 l 326 0 z "},"¿":{"ha":833,"x_min":92,"x_max":742,"o":"m 396 -225 q 237 -193 306 -225 q 130 -103 168 -161 q 92 35 92 -44 q 110 140 92 96 q 167 222 129 185 q 265 299 206 260 q 342 376 322 335 q 361 489 361 417 l 481 489 q 449 330 481 389 q 346 226 418 271 q 264 167 292 193 q 226 110 236 140 q 217 35 217 79 q 264 -71 217 -33 q 396 -108 311 -108 q 553 -56 499 -108 q 617 97 607 -3 l 742 89 q 690 -74 733 -3 q 572 -185 646 -144 q 396 -225 497 -225 m 507 756 l 507 586 l 335 586 l 335 756 l 507 756 z "},"·":{"ha":833,"x_min":331,"x_max":503,"o":"m 331 338 l 331 507 l 503 507 l 503 338 l 331 338 z "},"•":{"ha":833,"x_min":267,"x_max":567,"o":"m 417 282 q 342 302 376 282 q 287 357 307 322 q 267 432 267 392 q 287 508 267 474 q 342 562 307 542 q 417 582 376 582 q 492 562 458 582 q 547 508 526 542 q 567 432 567 474 q 547 357 567 392 q 492 302 526 322 q 417 282 458 282 z "},"*":{"ha":833,"x_min":111,"x_max":722,"o":"m 275 394 l 192 450 l 328 639 l 111 639 l 111 742 l 328 742 l 192 931 l 275 986 l 417 783 l 560 986 l 643 931 l 506 742 l 722 742 l 722 639 l 506 639 l 643 450 l 560 394 l 417 597 l 275 394 z "},"〃":{"ha":833,"x_min":222,"x_max":611,"o":"m 396 390 l 482 668 l 611 668 l 486 390 l 396 390 m 222 390 l 310 668 l 438 668 l 313 390 l 222 390 z "},"#":{"ha":833,"x_min":69,"x_max":764,"o":"m 413 0 l 596 986 l 696 986 l 513 0 l 413 0 m 69 274 l 86 371 l 708 371 l 692 274 l 69 274 m 139 0 l 322 986 l 422 986 l 239 0 l 139 0 m 125 611 l 142 708 l 764 708 l 747 611 l 125 611 z "},"/":{"ha":833,"x_min":150,"x_max":683,"o":"m 150 -153 l 572 1042 l 683 1042 l 261 -153 l 150 -153 z "},"\\":{"ha":833,"x_min":150,"x_max":683,"o":"m 683 -153 l 572 -153 l 150 1042 l 261 1042 l 683 -153 z "},"-":{"ha":833,"x_min":167,"x_max":667,"o":"m 167 350 l 167 460 l 667 460 l 667 350 l 167 350 z "},"–":{"ha":833,"x_min":139,"x_max":694,"o":"m 139 351 l 139 460 l 694 460 l 694 351 l 139 351 z "},"—":{"ha":833,"x_min":28,"x_max":806,"o":"m 28 351 l 28 460 l 806 460 l 806 351 l 28 351 z "},"_":{"ha":833,"x_min":111,"x_max":722,"o":"m 111 -108 l 111 0 l 722 0 l 722 -108 l 111 -108 z "},"〜":{"ha":833,"x_min":8,"x_max":825,"o":"m 586 301 q 508 316 550 301 q 417 361 465 331 q 322 409 365 393 q 247 425 279 425 q 167 396 207 425 q 89 311 126 367 l 8 392 q 74 472 36 439 q 156 524 111 506 q 247 542 201 542 q 326 527 283 542 q 417 482 369 513 q 512 434 469 450 q 586 418 554 418 q 667 448 626 418 q 744 532 707 478 l 825 451 q 760 372 799 406 q 678 319 722 338 q 586 301 633 301 z "},"(":{"ha":833,"x_min":222,"x_max":611,"o":"m 494 -153 q 327 42 386 -57 q 245 242 268 142 q 222 444 222 343 q 245 647 222 546 q 327 847 268 747 q 494 1042 386 946 l 611 1042 q 449 843 507 943 q 367 644 390 743 q 343 444 343 544 q 367 245 343 344 q 449 47 390 146 q 611 -153 507 -53 l 494 -153 z "},")":{"ha":833,"x_min":222,"x_max":611,"o":"m 339 -153 l 222 -153 q 385 47 326 -53 q 467 245 443 146 q 490 444 490 344 q 467 644 490 544 q 385 843 443 743 q 222 1042 326 943 l 339 1042 q 506 847 447 946 q 588 647 565 747 q 611 444 611 546 q 588 242 611 343 q 506 42 565 142 q 339 -153 447 -57 z "},"{":{"ha":833,"x_min":153,"x_max":681,"o":"m 558 -167 q 385 -100 438 -167 q 333 72 333 -33 l 333 217 q 319 313 333 276 q 267 365 306 349 q 153 381 228 381 l 153 494 q 267 510 228 494 q 319 563 306 526 q 333 658 333 599 l 333 803 q 385 975 333 908 q 558 1042 438 1042 l 681 1042 l 681 933 l 560 933 q 470 901 496 933 q 444 806 444 869 l 444 678 q 406 513 444 574 q 264 442 367 453 l 264 433 q 406 363 367 424 q 444 197 444 301 l 444 69 q 470 -26 444 6 q 560 -58 496 -58 l 681 -58 l 681 -167 l 558 -167 z "},"}":{"ha":833,"x_min":153,"x_max":681,"o":"m 275 -167 l 153 -167 l 153 -58 l 274 -58 q 363 -26 338 -58 q 389 69 389 6 l 389 197 q 428 363 389 301 q 569 433 468 424 l 569 442 q 428 513 468 453 q 389 678 389 574 l 389 806 q 363 901 389 869 q 274 933 338 933 l 153 933 l 153 1042 l 275 1042 q 448 975 396 1042 q 500 803 500 908 l 500 658 q 514 563 500 599 q 567 510 528 526 q 681 494 606 494 l 681 381 q 567 365 606 381 q 514 313 528 349 q 500 217 500 276 l 500 72 q 448 -100 500 -33 q 275 -167 396 -167 z "},"[":{"ha":833,"x_min":194,"x_max":639,"o":"m 639 -153 l 194 -153 l 194 1042 l 639 1042 l 639 944 l 306 944 l 306 -56 l 639 -56 l 639 -153 z "},"]":{"ha":833,"x_min":194,"x_max":639,"o":"m 194 -153 l 194 -56 l 528 -56 l 528 944 l 194 944 l 194 1042 l 639 1042 l 639 -153 l 194 -153 z "},"‚":{"ha":833,"x_min":333,"x_max":500,"o":"m 333 -225 l 408 0 l 333 0 l 333 169 l 500 169 l 500 14 l 417 -225 l 333 -225 z "},"„":{"ha":833,"x_min":194,"x_max":639,"o":"m 194 -225 l 269 0 l 194 0 l 194 169 l 361 169 l 361 14 l 278 -225 l 194 -225 m 472 -225 l 547 0 l 472 0 l 472 169 l 639 169 l 639 14 l 556 -225 l 472 -225 z "},"“":{"ha":833,"x_min":194,"x_max":639,"o":"m 639 1017 l 564 792 l 639 792 l 639 622 l 472 622 l 472 778 l 556 1017 l 639 1017 m 361 1017 l 286 792 l 361 792 l 361 622 l 194 622 l 194 778 l 278 1017 l 361 1017 z "},"”":{"ha":833,"x_min":194,"x_max":639,"o":"m 194 592 l 269 817 l 194 817 l 194 986 l 361 986 l 361 831 l 278 592 l 194 592 m 472 592 l 547 817 l 472 817 l 472 986 l 639 986 l 639 831 l 556 592 l 472 592 z "},"‘":{"ha":833,"x_min":342,"x_max":508,"o":"m 508 1015 l 433 790 l 508 790 l 508 621 l 342 621 l 342 776 l 425 1015 l 508 1015 z "},"’":{"ha":833,"x_min":325,"x_max":492,"o":"m 325 592 l 400 817 l 325 817 l 325 986 l 492 986 l 492 831 l 408 592 l 325 592 z "},"«":{"ha":833,"x_min":111,"x_max":722,"o":"m 444 106 l 301 106 l 111 332 l 111 435 l 301 661 l 444 661 l 208 383 l 444 106 m 722 106 l 579 106 l 389 332 l 389 435 l 579 661 l 722 661 l 486 383 l 722 106 z "}}}
